SplineFontDB: 3.0
FontName: Jones-it-BlackItalic
FullName: Jones* Black Italic
FamilyName: Jones* Black
Weight: Black
Copyright: 
UComments: "2016-1-29: Created with FontForge (http://fontforge.org)"
Version: 002.000
ItalicAngle: -9
UnderlinePosition: -150
UnderlineWidth: 100
Ascent: 784
Descent: 216
InvalidEm: 0
LayerCount: 2
Layer: 0 0 "Back" 1
Layer: 1 0 "Fore" 0
XUID: [1021 31 -699969567 4970488]
FSType: 0
OS2Version: 2
OS2_WeightWidthSlopeOnly: 0
OS2_UseTypoMetrics: 0
CreationTime: 1454127431
ModificationTime: 1456603836
PfmFamily: 17
TTFWeight: 900
TTFWidth: 5
LineGap: 0
VLineGap: 0
OS2TypoAscent: 784
OS2TypoAOffset: 0
OS2TypoDescent: -216
OS2TypoDOffset: 0
OS2TypoLinegap: 200
OS2WinAscent: 850
OS2WinAOffset: 0
OS2WinDescent: 300
OS2WinDOffset: 0
HheadAscent: 850
HheadAOffset: 0
HheadDescent: -300
HheadDOffset: 0
OS2SubXSize: 650
OS2SubYSize: 600
OS2SubXOff: 0
OS2SubYOff: 75
OS2SupXSize: 650
OS2SupYSize: 600
OS2SupXOff: 0
OS2SupYOff: 350
OS2StrikeYSize: 50
OS2StrikeYPos: 314
OS2CapHeight: 700
OS2XHeight: 520
OS2Vendor: 'PfEd'
Lookup: 5 0 0 "lig" { "lig-1"  } ['calt' ('DFLT' <'dflt' > 'grek' <'dflt' > 'latn' <'dflt' > ) ]
Lookup: 1 0 0 "fi" { "fi-1"  } ['ss01' ('DFLT' <'dflt' > 'grek' <'dflt' > 'latn' <'dflt' > ) ]
Lookup: 258 0 0 "kern" { "kerning" [150,0,2] } ['kern' ('DFLT' <'dflt' > 'grek' <'dflt' > 'latn' <'dflt' > ) ]
MarkAttachClasses: 1
DEI: 91125
KernClass2: 13 10 "kerning"
 3 A L
 5 D O Q
 3 F P
 3 K X
 3 V W
 13 b e h m n o p
 15 a c g q r s u z
 14 d f i j l t fi
 3 k x
 3 v w
 3 R B
 3 T Y
 1 A
 7 C G O Q
 3 T Y
 3 V W
 15 a m n p r s u z
 11 c d e g o q
 18 b f h i j k l t fi
 5 v w y
 1 x

StartChar: E
Encoding: 69 69 0
Width: 670
VWidth: 0
Flags: HMW
AnchorPoint: "ced" 495 0 basechar 0
AnchorPoint: "dot" 365 760 basechar 0
LayerCount: 2
Fore
SplineSet
131 433 m 1
 671 433 l 5
 646 283 l 5
 106 283 l 1
 131 433 l 1
174 700 m 1
 764 700 l 5
 740 550 l 5
 150 550 l 1
 174 700 l 1
86 160 m 1
 676 160 l 5
 650 0 l 5
 60 0 l 1
 86 160 l 1
174 700 m 1
 344 700 l 1
 230 0 l 1
 60 0 l 1
 174 700 l 1
EndSplineSet
EndChar

StartChar: I
Encoding: 73 73 1
Width: 300
VWidth: 0
Flags: HMW
AnchorPoint: "ced" 145 0 basechar 0
AnchorPoint: "dot" 140 760 basechar 0
LayerCount: 2
Fore
SplineSet
179 700 m 5
 349 700 l 1
 235 0 l 1
 65 0 l 5
 179 700 l 5
EndSplineSet
EndChar

StartChar: F
Encoding: 70 70 2
Width: 665
VWidth: 0
Flags: HMW
AnchorPoint: "ced" 105 0 basechar 0
AnchorPoint: "dot" 365 760 basechar 0
LayerCount: 2
Fore
SplineSet
127 413 m 1
 657 413 l 5
 633 263 l 5
 103 263 l 1
 127 413 l 1
174 700 m 1
 754 700 l 5
 730 550 l 5
 150 550 l 1
 174 700 l 1
174 700 m 1
 344 700 l 1
 230 0 l 1
 60 0 l 1
 174 700 l 1
EndSplineSet
EndChar

StartChar: H
Encoding: 72 72 3
Width: 765
VWidth: 0
Flags: HMW
AnchorPoint: "ced" 625 0 basechar 0
AnchorPoint: "dot" 380 760 basechar 0
LayerCount: 2
Fore
SplineSet
649 700 m 5
 819 700 l 5
 705 0 l 5
 535 0 l 5
 649 700 l 5
131 433 m 1
 721 433 l 5
 696 283 l 5
 106 283 l 1
 131 433 l 1
174 700 m 1
 344 700 l 1
 230 0 l 1
 60 0 l 1
 174 700 l 1
EndSplineSet
EndChar

StartChar: L
Encoding: 76 76 4
Width: 655
VWidth: 0
Flags: HMW
AnchorPoint: "ced" 365 0 basechar 0
AnchorPoint: "dot" 385 760 basechar 0
LayerCount: 2
Fore
SplineSet
84 150 m 1
 654 150 l 5
 630 0 l 5
 60 0 l 1
 84 150 l 1
174 700 m 1
 344 700 l 1
 230 0 l 1
 60 0 l 1
 174 700 l 1
EndSplineSet
EndChar

StartChar: T
Encoding: 84 84 5
Width: 690
VWidth: 0
Flags: HMW
AnchorPoint: "ced" 347 0 basechar 0
AnchorPoint: "dot" 345 760 basechar 0
LayerCount: 2
Fore
SplineSet
134 700 m 1
 784 700 l 5
 760 550 l 5
 110 550 l 1
 134 700 l 1
374 700 m 1
 544 700 l 1
 430 0 l 1
 260 0 l 1
 374 700 l 1
EndSplineSet
EndChar

StartChar: O
Encoding: 79 79 7
Width: 850
VWidth: 0
Flags: HMW
AnchorPoint: "ced" 425 0 basechar 0
AnchorPoint: "dot" 425 760 basechar 0
LayerCount: 2
Fore
SplineSet
270 350 m 4
 254 234 322 140 445 140 c 4
 568 140 664 234 680 350 c 4
 696 466 627 560 504 560 c 4
 381 560 286 466 270 350 c 4
100 350 m 4
 128 549 310 710 525 710 c 4
 740 710 878 549 850 350 c 4
 822 151 639 -10 424 -10 c 4
 209 -10 72 151 100 350 c 4
EndSplineSet
EndChar

StartChar: C
Encoding: 67 67 8
Width: 732
VWidth: 0
Flags: HMW
AnchorPoint: "ced" 425 0 basechar 0
AnchorPoint: "dot" 425 760 basechar 0
LayerCount: 2
Fore
SplineSet
260 350 m 0
 244 234 309 140 445 140 c 0
 529 140 598 172 649 228 c 1
 728 113 l 1
 652 38 550 -10 424 -10 c 4
 199 -10 62 151 90 350 c 0
 118 549 300 710 525 710 c 4
 651 710 741 662 795 587 c 1
 684 472 l 1
 649 528 587 560 504 560 c 0
 368 560 276 466 260 350 c 0
EndSplineSet
EndChar

StartChar: A
Encoding: 65 65 9
Width: 800
VWidth: 0
Flags: HMW
AnchorPoint: "ced" 697 0 basechar 0
AnchorPoint: "ring" 400 700 basechar 0
AnchorPoint: "dot" 400 760 basechar 0
LayerCount: 2
Fore
SplineSet
434 700 m 1
 594 700 l 1
 589 670 l 5
 429 670 l 5
 434 700 l 1
218 270 m 1
 650 270 l 1
 626 125 l 1
 194 125 l 1
 218 270 l 1
610 0 m 1
 449 670 l 5
 594 700 l 1
 790 0 l 1
 610 0 l 1
434 700 m 1
 569 670 l 5
 190 0 l 1
 10 0 l 1
 434 700 l 1
EndSplineSet
EndChar

StartChar: V
Encoding: 86 86 10
Width: 780
VWidth: 0
Flags: HMW
AnchorPoint: "ced" 390 0 basechar 0
AnchorPoint: "dot" 389 760 basechar 0
LayerCount: 2
Fore
SplineSet
470 0 m 1
 310 0 l 1
 315 30 l 5
 475 30 l 5
 470 0 l 1
304 700 m 1
 455 30 l 1
 310 0 l 1
 124 700 l 1
 304 700 l 1
470 0 m 1
 335 30 l 1
 704 700 l 1
 884 700 l 1
 470 0 l 1
EndSplineSet
EndChar

StartChar: G
Encoding: 71 71 11
Width: 782
VWidth: 0
Flags: HMW
AnchorPoint: "ced" 425 0 basechar 0
AnchorPoint: "dot" 425 760 basechar 0
LayerCount: 2
Fore
SplineSet
794 400 m 1
 774 260 l 1
 472 260 l 1
 492 400 l 1
 794 400 l 1
753 113 m 1
 594 113 l 1
 630 370 l 1
 789 370 l 1
 753 113 l 1
260 350 m 0
 243 229 315 150 446 150 c 0
 524 150 598 172 660 233 c 1
 753 113 l 1
 677 38 550 -10 424 -10 c 4
 199 -10 62 151 90 350 c 0
 118 549 300 710 525 710 c 4
 651 710 746 662 800 587 c 1
 670 482 l 5
 630 538 582 560 504 560 c 0
 373 560 277 471 260 350 c 0
EndSplineSet
EndChar

StartChar: D
Encoding: 68 68 12
Width: 810
VWidth: 0
Flags: HMW
AnchorPoint: "ced" 325 0 basechar 0
AnchorPoint: "dot" 345 760 basechar 0
LayerCount: 2
Fore
SplineSet
194 700 m 5
 494 700 l 1
 470 550 l 1
 170 550 l 5
 194 700 l 5
104 150 m 5
 404 150 l 1
 380 0 l 1
 80 0 l 5
 104 150 l 5
194 700 m 5
 364 700 l 5
 250 0 l 5
 80 0 l 5
 194 700 l 5
404 150 m 1
 535 150 627 229 647 350 c 0
 667 471 601 550 470 550 c 1
 494 700 l 1
 709 700 849 549 817 350 c 0
 785 151 595 0 380 0 c 1
 404 150 l 1
EndSplineSet
EndChar

StartChar: U
Encoding: 85 85 13
Width: 760
VWidth: 0
Flags: HMW
AnchorPoint: "ced" 380 0 basechar 0
AnchorPoint: "dot" 380 760 basechar 0
LayerCount: 2
Fore
SplineSet
594 300 m 5
 659 700 l 5
 824 700 l 5
 756 280 l 5
 594 300 l 5
96 280 m 1
 164 700 l 1
 329 700 l 1
 264 300 l 1
 96 280 l 1
594 300 m 5
 756 280 l 5
 728 111 557 -10 378 -10 c 0
 199 -10 68 111 96 280 c 1
 264 300 l 1
 250 211 318 155 405 155 c 0
 492 155 580 211 594 300 c 5
EndSplineSet
EndChar

StartChar: o
Encoding: 111 111 14
Width: 650
VWidth: 0
Flags: HMW
AnchorPoint: "ced" 325 0 basechar 0
AnchorPoint: "dot" 325 673 basechar 0
LayerCount: 2
Fore
SplineSet
242 260 m 0
 232 190 275 135 344 135 c 4
 413 135 472 190 482 260 c 0
 492 330 448 385 379 385 c 0
 310 385 252 330 242 260 c 0
77 260 m 0
 98 409 231 530 400 530 c 0
 569 530 668 409 647 260 c 0
 626 111 493 -10 324 -10 c 0
 155 -10 56 111 77 260 c 0
EndSplineSet
EndChar

StartChar: B
Encoding: 66 66 15
Width: 695
VWidth: 0
Flags: HMW
AnchorPoint: "ced" 307 0 basechar 0
AnchorPoint: "dot" 288 760 basechar 0
LayerCount: 2
Fore
SplineSet
434 423 m 1
 517 423 545 441 552 486 c 0
 559 531 538 550 455 550 c 1
 499 700 l 1
 628 700 748 643 726 509 c 0
 704 376 565 315 436 315 c 1
 434 423 l 1
174 700 m 1
 344 700 l 1
 230 0 l 1
 60 0 l 1
 174 700 l 1
82 135 m 1
 407 135 l 1
 405 0 l 1
 60 0 l 1
 82 135 l 1
174 700 m 1
 499 700 l 1
 455 550 l 1
 150 550 l 1
 174 700 l 1
129 423 m 1
 494 423 l 1
 433 293 l 1
 108 293 l 1
 129 423 l 1
407 135 m 1
 490 135 527 163 535 213 c 0
 543 263 516 293 433 293 c 1
 470 400 l 1
 599 400 723 324 700 185 c 4
 677 46 544 0 405 0 c 1
 407 135 l 1
EndSplineSet
EndChar

StartChar: K
Encoding: 75 75 16
Width: 745
VWidth: 0
Flags: HMW
AnchorPoint: "ced" 665 0 basechar 0
AnchorPoint: "dot" 335 760 basechar 0
LayerCount: 2
Fore
SplineSet
304 413 m 1
 492 419 l 5
 750 0 l 1
 556 0 l 1
 304 413 l 1
609 700 m 1
 814 700 l 1
 264 207 l 1
 102 230 l 1
 609 700 l 1
174 700 m 1
 344 700 l 1
 230 0 l 1
 60 0 l 1
 174 700 l 1
EndSplineSet
EndChar

StartChar: R
Encoding: 82 82 17
Width: 718
VWidth: 0
Flags: HMW
AnchorPoint: "ced" 615 0 basechar 0
AnchorPoint: "dot" 345 760 basechar 0
LayerCount: 2
Fore
SplineSet
446 373 m 1
 514 373 560 410 569 465 c 0
 578 520 543 550 475 550 c 1
 519 700 l 1
 668 700 761 600 739 465 c 0
 717 331 590 223 441 223 c 1
 446 373 l 1
179 700 m 1
 349 700 l 1
 235 0 l 1
 65 0 l 1
 179 700 l 1
214 700 m 1
 519 700 l 1
 475 550 l 1
 190 550 l 1
 214 700 l 1
161 373 m 1
 446 373 l 1
 441 223 l 1
 136 223 l 1
 161 373 l 1
315 320 m 1
 500 320 l 1
 708 0 l 1
 523 0 l 1
 315 320 l 1
EndSplineSet
EndChar

StartChar: P
Encoding: 80 80 18
Width: 643
VWidth: 0
Flags: HMW
AnchorPoint: "ced" 125 0 basechar 0
AnchorPoint: "dot" 315 760 basechar 0
LayerCount: 2
Fore
SplineSet
406 373 m 5
 474 373 520 409 529 464 c 4
 538 519 503 550 435 550 c 5
 479 700 l 5
 628 700 721 599 699 464 c 4
 677 330 550 223 401 223 c 5
 406 373 l 5
179 700 m 1
 349 700 l 1
 235 0 l 1
 65 0 l 1
 179 700 l 1
194 700 m 1
 479 700 l 5
 435 550 l 5
 170 550 l 1
 194 700 l 1
141 373 m 1
 406 373 l 5
 401 223 l 5
 116 223 l 1
 141 373 l 1
EndSplineSet
EndChar

StartChar: Q
Encoding: 81 81 19
Width: 849
VWidth: 0
Flags: HMW
AnchorPoint: "ced" 425 0 basechar 0
AnchorPoint: "dot" 425 760 basechar 0
LayerCount: 2
Fore
SplineSet
270 350 m 0
 254 234 322 140 445 140 c 0
 568 140 664 234 680 350 c 0
 696 466 627 560 504 560 c 0
 381 560 286 466 270 350 c 0
100 350 m 0
 128 549 310 710 525 710 c 0
 740 710 878 549 850 350 c 0
 822 151 639 -10 424 -10 c 0
 209 -10 72 151 100 350 c 0
697 -54 m 1
 442 244 l 1
 576 362 l 1
 832 65 l 1
 697 -54 l 1
EndSplineSet
EndChar

StartChar: J
Encoding: 74 74 20
Width: 599
VWidth: 0
Flags: HMW
AnchorPoint: "ced" 255 0 basechar 0
AnchorPoint: "dot" 245 760 basechar 0
LayerCount: 2
Fore
SplineSet
426 260 m 1
 498 700 l 1
 663 700 l 1
 591 260 l 1
 426 260 l 1
426 260 m 1
 591 260 l 1
 560 71 412 -10 253 -10 c 0
 145 -10 59 41 26 157 c 1
 169 246 l 1
 187 180 233 133 282 133 c 4
 349 133 412 171 426 260 c 1
EndSplineSet
EndChar

StartChar: S
Encoding: 83 83 21
Width: 625
VWidth: 0
Flags: HMW
AnchorPoint: "ced" 315 0 basechar 0
AnchorPoint: "dot" 335 760 basechar 0
LayerCount: 2
Fore
SplineSet
469 208 m 1
 625 215 l 1
 604 66 475 -15 326 -15 c 0
 177 -15 91 66 37 123 c 1
 142 243 l 1
 192 189 270 135 337 135 c 0
 417 135 462 160 469 208 c 1
297 501 m 1
 136 496 l 1
 157 642 287 715 431 715 c 0
 560 715 632 669 680 617 c 1
 575 490 l 1
 536 534 487 565 405 565 c 0
 337 565 302 539 297 501 c 1
411 430 m 0
 533 405 645 357 625 215 c 1
 469 208 l 1
 476 259 426 270 330 290 c 0
 221 313 118 369 136 496 c 1
 297 501 l 1
 291 458 333 446 411 430 c 0
EndSplineSet
EndChar

StartChar: M
Encoding: 77 77 22
Width: 932
VWidth: 0
Flags: HMW
AnchorPoint: "ced" 790 0 basechar 0
AnchorPoint: "dot" 470 760 basechar 0
LayerCount: 2
Fore
SplineSet
521 130 m 1
 453 130 l 1
 492 310 l 1
 540 310 l 1
 521 130 l 1
806 640 m 1
 826 700 l 1
 986 700 l 1
 983 680 l 1
 806 640 l 1
961 640 m 5
 521 130 l 1
 492 310 l 1
 826 700 l 1
 961 640 l 5
983 680 m 1
 872 0 l 1
 702 0 l 1
 806 640 l 1
 983 680 l 1
334 640 m 1
 171 680 l 1
 174 700 l 1
 334 700 l 1
 334 640 l 1
179 640 m 1
 334 700 l 1
 540 310 l 1
 453 130 l 1
 179 640 l 1
171 680 m 1
 334 640 l 1
 230 0 l 1
 60 0 l 1
 171 680 l 1
EndSplineSet
EndChar

StartChar: Y
Encoding: 89 89 23
Width: 680
VWidth: 0
Flags: HMW
AnchorPoint: "ced" 345 0 basechar 0
AnchorPoint: "dot" 337 760 basechar 0
LayerCount: 2
Fore
SplineSet
303 295 m 1
 473 295 l 1
 425 0 l 1
 255 0 l 1
 303 295 l 1
124 700 m 1
 304 700 l 1
 473 295 l 1
 330 217 l 1
 124 700 l 1
604 700 m 1
 784 700 l 1
 420 217 l 1
 303 295 l 1
 604 700 l 1
EndSplineSet
EndChar

StartChar: W
Encoding: 87 87 24
Width: 1065
VWidth: 0
Flags: HMW
AnchorPoint: "ced" 750 0 basechar 0
AnchorPoint: "dot" 530 760 basechar 0
LayerCount: 2
Fore
SplineSet
564 700 m 1
 729 700 l 5
 713 690 l 5
 576 690 l 1
 564 700 l 1
830 0 m 1
 670 0 l 1
 672 10 l 1
 832 10 l 1
 830 0 l 1
729 700 m 5
 832 10 l 1
 670 0 l 1
 576 690 l 1
 729 700 l 5
830 0 m 1
 672 10 l 1
 994 700 l 1
 1164 700 l 1
 830 0 l 1
395 0 m 1
 235 0 l 1
 237 10 l 1
 397 10 l 1
 395 0 l 1
299 700 m 1
 397 10 l 1
 235 0 l 1
 129 700 l 1
 299 700 l 1
395 0 m 1
 237 10 l 1
 564 700 l 1
 713 690 l 5
 395 0 l 1
EndSplineSet
EndChar

StartChar: N
Encoding: 78 78 25
Width: 790
VWidth: 0
Flags: HMW
AnchorPoint: "ced" 650 0 basechar 0
AnchorPoint: "dot" 400 760 basechar 0
LayerCount: 2
Fore
SplineSet
730 0 m 1
 570 0 l 1
 574 24 l 1
 732 14 l 1
 730 0 l 1
334 700 m 1
 331 680 l 1
 171 680 l 1
 174 700 l 1
 334 700 l 1
172 625 m 5
 334 700 l 1
 732 75 l 1
 570 0 l 1
 172 625 l 5
674 700 m 1
 844 700 l 1
 730 0 l 1
 563 20 l 1
 674 700 l 1
174 700 m 1
 341 680 l 1
 230 0 l 1
 60 0 l 1
 174 700 l 1
EndSplineSet
EndChar

StartChar: X
Encoding: 88 88 26
Width: 750
VWidth: 0
Flags: HMW
AnchorPoint: "ced" 645 0 basechar 0
AnchorPoint: "dot" 374 760 basechar 0
LayerCount: 2
Fore
SplineSet
149 700 m 1
 344 700 l 1
 735 0 l 1
 540 0 l 5
 149 700 l 1
634 700 m 5
 829 700 l 1
 210 0 l 1
 15 0 l 1
 634 700 l 5
EndSplineSet
EndChar

StartChar: Z
Encoding: 90 90 27
Width: 680
VWidth: 0
Flags: HMW
AnchorPoint: "ced" 515 0 basechar 0
AnchorPoint: "dot" 335 760 basechar 0
LayerCount: 2
Fore
SplineSet
709 580 m 1
 666 560 l 1
 719 700 l 1
 729 700 l 1
 709 580 l 1
65 120 m 1
 108 140 l 1
 55 0 l 1
 45 0 l 1
 65 120 l 1
179 700 m 1
 719 700 l 1
 665 550 l 1
 155 550 l 1
 179 700 l 1
109 150 m 1
 659 150 l 1
 635 0 l 1
 55 0 l 1
 109 150 l 1
511 560 m 1
 709 580 l 1
 263 140 l 5
 65 120 l 1
 511 560 l 1
EndSplineSet
EndChar

StartChar: l
Encoding: 108 108 28
Width: 265
VWidth: 0
Flags: HMW
AnchorPoint: "ced" 133 0 basechar 0
AnchorPoint: "dot" 133 793 basechar 0
LayerCount: 2
Fore
SplineSet
169 730 m 5
 334 730 l 1
 215 0 l 1
 50 0 l 5
 169 730 l 5
EndSplineSet
EndChar

StartChar: b
Encoding: 98 98 29
Width: 655
VWidth: 0
Flags: HMW
AnchorPoint: "ced" 356 0 basechar 0
AnchorPoint: "dot" 360 673 basechar 0
LayerCount: 2
Fore
SplineSet
257 260 m 0
 244 181 287 135 362 135 c 4
 437 135 489 181 502 260 c 0
 515 339 478 385 403 385 c 4
 328 385 270 339 257 260 c 0
222 260 m 0
 246 409 297 530 471 530 c 0
 595 530 693 419 667 260 c 0
 641 101 507 -10 383 -10 c 0
 219 -10 198 111 222 260 c 0
169 730 m 1
 334 730 l 1
 215 0 l 1
 50 0 l 1
 169 730 l 1
EndSplineSet
EndChar

StartChar: c
Encoding: 99 99 30
Width: 573
VWidth: 0
Flags: HMW
AnchorPoint: "ced" 325 0 basechar 0
AnchorPoint: "dot" 325 673 basechar 0
LayerCount: 2
Fore
SplineSet
242 260 m 0
 233 196 268 140 345 140 c 4
 404 140 439 160 473 200 c 1
 566 92 l 1
 510 28 421 -10 324 -10 c 0
 157 -10 56 111 77 260 c 0
 98 409 233 530 400 530 c 0
 497 530 575 491 613 428 c 1
 490 320 l 5
 468 360 438 380 379 380 c 4
 302 380 251 326 242 260 c 0
EndSplineSet
EndChar

StartChar: d
Encoding: 100 100 31
Width: 655
VWidth: 0
Flags: HMW
AnchorPoint: "ced" 300 0 basechar 0
AnchorPoint: "dot" 295 673 basechar 0
LayerCount: 2
Fore
SplineSet
482 260 m 4
 495 339 453 385 378 385 c 4
 303 385 250 339 237 260 c 4
 224 181 262 135 337 135 c 4
 412 135 469 181 482 260 c 4
517 260 m 4
 493 111 432 -10 268 -10 c 4
 144 -10 46 101 72 260 c 4
 98 419 232 530 356 530 c 4
 530 530 541 409 517 260 c 4
724 730 m 5
 605 0 l 5
 440 0 l 5
 559 730 l 5
 724 730 l 5
EndSplineSet
EndChar

StartChar: k
Encoding: 107 107 32
Width: 615
VWidth: 0
Flags: W
HStem: 0 21G<50 218.26 430.179 620> 500 20G<477.197 685> 710 20G<165.74 334>
AnchorPoint: "ced" 545 0 basechar 0
AnchorPoint: "dot" 345 673 basechar 0
LayerCount: 2
Fore
SplineSet
270 291 m 5
 436 311 l 1
 620 0 l 1
 442 0 l 1
 270 291 l 5
499 520 m 1
 685 520 l 1
 233 110 l 1
 100 154 l 1
 499 520 l 1
169 730 m 1
 334 730 l 1
 215 0 l 1
 50 0 l 1
 169 730 l 1
EndSplineSet
EndChar

StartChar: e
Encoding: 101 101 33
Width: 615
VWidth: 0
Flags: HMW
AnchorPoint: "ced" 320 0 basechar 0
AnchorPoint: "dot" 310 673 basechar 0
LayerCount: 2
Fore
SplineSet
622 260 m 1
 616 220 l 1
 451 220 l 1
 457 260 l 1
 622 260 l 1
451 220 m 1
 145 220 l 1
 161 317 l 1
 467 317 l 1
 451 220 l 1
457 260 m 1
 474 364 446 403 379 403 c 0
 312 403 254 364 237 260 c 1
 72 260 l 1
 98 419 227 530 406 530 c 0
 565 530 648 419 622 260 c 1
 457 260 l 1
72 260 m 1
 237 260 l 1
 225 186 291 125 342 125 c 0
 386 125 428 146 462 177 c 1
 568 92 l 1
 511 28 405 -10 318 -10 c 0
 159 -10 46 101 72 260 c 1
EndSplineSet
EndChar

StartChar: p
Encoding: 112 112 34
Width: 655
VWidth: 0
Flags: HMW
AnchorPoint: "ced" 355 0 basechar 0
AnchorPoint: "dot" 360 673 basechar 0
LayerCount: 2
Fore
SplineSet
257 260 m 4
 244 181 287 135 362 135 c 4
 437 135 489 181 502 260 c 4
 515 339 478 385 403 385 c 4
 328 385 270 339 257 260 c 4
222 260 m 4
 246 409 307 530 471 530 c 4
 595 530 693 419 667 260 c 4
 641 101 507 -10 383 -10 c 4
 209 -10 198 111 222 260 c 4
17 -200 m 5
 135 520 l 5
 300 520 l 5
 182 -200 l 5
 17 -200 l 5
EndSplineSet
EndChar

StartChar: q
Encoding: 113 113 35
Width: 655
VWidth: 0
Flags: HMW
AnchorPoint: "ced" 300 0 basechar 0
AnchorPoint: "dot" 295 673 basechar 0
LayerCount: 2
Fore
SplineSet
482 260 m 0
 495 339 453 385 378 385 c 0
 303 385 250 339 237 260 c 0
 224 181 262 135 337 135 c 0
 412 135 469 181 482 260 c 0
517 260 m 0
 493 111 442 -10 268 -10 c 0
 144 -10 46 101 72 260 c 0
 98 419 232 530 356 530 c 0
 520 530 541 409 517 260 c 0
572 -200 m 1
 407 -200 l 1
 525 520 l 1
 690 520 l 1
 572 -200 l 1
EndSplineSet
EndChar

StartChar: h
Encoding: 104 104 36
Width: 635
VWidth: 0
Flags: HMW
AnchorPoint: "ced" 525 0 basechar 0
AnchorPoint: "dot" 350 673 basechar 0
LayerCount: 2
Fore
SplineSet
642 320 m 5
 590 0 l 5
 425 0 l 5
 474 300 l 5
 642 320 l 5
169 730 m 5
 334 730 l 5
 215 0 l 5
 50 0 l 5
 169 730 l 5
474 300 m 5
 484 359 427 385 387 385 c 4
 338 385 274 360 261 280 c 5
 226 280 l 5
 249 419 327 530 486 530 c 4
 615 530 663 449 642 320 c 5
 474 300 l 5
EndSplineSet
EndChar

StartChar: n
Encoding: 110 110 37
Width: 635
VWidth: 0
Flags: HMW
AnchorPoint: "ced" 530 0 basechar 0
AnchorPoint: "dot" 340 673 basechar 0
LayerCount: 2
Fore
SplineSet
642 320 m 5
 590 0 l 5
 425 0 l 5
 474 300 l 5
 642 320 l 5
135 520 m 5
 300 520 l 5
 215 0 l 5
 50 0 l 5
 135 520 l 5
474 300 m 5
 484 359 427 385 387 385 c 4
 338 385 274 360 261 280 c 5
 226 280 l 5
 249 419 327 530 486 530 c 4
 615 530 663 449 642 320 c 5
 474 300 l 5
EndSplineSet
EndChar

StartChar: m
Encoding: 109 109 38
Width: 900
VWidth: 0
Flags: HMW
AnchorPoint: "ced" 795 0 basechar 0
AnchorPoint: "dot" 450 673 basechar 0
LayerCount: 2
Fore
SplineSet
907 320 m 1
 855 0 l 1
 690 0 l 1
 739 300 l 1
 907 320 l 1
739 300 m 1
 747 352 739 390 684 390 c 0
 621 390 595 360 582 280 c 5
 517 280 l 5
 540 419 652 530 776 530 c 0
 910 530 928 449 907 320 c 1
 739 300 l 1
590 330 m 5
 536 0 l 5
 377 0 l 5
 426 300 l 5
 590 330 l 5
135 520 m 1
 300 520 l 1
 215 0 l 1
 50 0 l 1
 135 520 l 1
426 300 m 5
 434 352 424 390 369 390 c 0
 306 390 272 350 261 280 c 1
 226 280 l 1
 249 419 337 530 461 530 c 0
 605 530 609 449 588 320 c 5
 426 300 l 5
EndSplineSet
EndChar

StartChar: r
Encoding: 114 114 39
Width: 410
VWidth: 0
Flags: HMW
AnchorPoint: "ced" 140 0 basechar 0
AnchorPoint: "dot" 210 673 basechar 0
LayerCount: 2
Fore
SplineSet
135 520 m 1
 300 520 l 1
 215 0 l 1
 50 0 l 1
 135 520 l 1
456 375 m 1
 431 375 l 2
 337 375 270 340 259 270 c 1
 224 270 l 1
 250 429 321 520 480 520 c 5
 456 375 l 1
EndSplineSet
EndChar

StartChar: u
Encoding: 117 117 40
Width: 635
VWidth: 0
Flags: HMW
AnchorPoint: "ced" 285 0 basechar 0
AnchorPoint: "dot" 305 673 basechar 0
LayerCount: 2
Fore
SplineSet
78 200 m 1
 130 520 l 1
 295 520 l 1
 246 220 l 1
 78 200 l 1
585 0 m 1
 420 0 l 1
 505 520 l 1
 670 520 l 1
 585 0 l 1
246 220 m 1
 236 161 293 135 333 135 c 0
 382 135 446 160 459 240 c 1
 494 240 l 1
 471 101 392 -10 233 -10 c 0
 104 -10 57 71 78 200 c 1
 246 220 l 1
EndSplineSet
EndChar

StartChar: g
Encoding: 103 103 41
Width: 655
VWidth: 0
Flags: HMW
AnchorPoint: "dot" 300 673 basechar 0
LayerCount: 2
Fore
SplineSet
482 260 m 0
 495 339 453 385 378 385 c 4
 303 385 250 339 237 260 c 0
 224 181 262 135 337 135 c 4
 412 135 469 181 482 260 c 0
517 260 m 0
 493 111 432 -10 268 -10 c 0
 144 -10 46 101 72 260 c 0
 98 419 232 530 356 530 c 0
 530 530 541 409 517 260 c 0
299 -78 m 1
 287 -220 l 1
 130 -220 51 -172 14 -108 c 1
 163 -32 l 1
 183 -56 236 -78 299 -78 c 1
608 20 m 1
 443 20 l 1
 525 520 l 1
 690 520 l 1
 608 20 l 1
443 20 m 1
 608 20 l 1
 585 -119 436 -220 287 -220 c 1
 299 -78 l 1
 356 -78 433 -39 443 20 c 1
EndSplineSet
EndChar

StartChar: i
Encoding: 105 105 42
Width: 255
VWidth: 0
Flags: HMW
AnchorPoint: "ced" 125 0 basechar 0
LayerCount: 2
Fore
SplineSet
140 682 m 4
 149 736 200 780 254 780 c 4
 308 780 345 736 336 682 c 4
 327 628 276 584 222 584 c 4
 168 584 131 628 140 682 c 4
130 520 m 1
 295 520 l 1
 210 0 l 1
 45 0 l 1
 130 520 l 1
EndSplineSet
EndChar

StartChar: t
Encoding: 116 116 43
Width: 420
VWidth: 0
Flags: HMW
AnchorPoint: "ced" 267 0 basechar 0
AnchorPoint: "dot" 305 673 basechar 0
LayerCount: 2
Fore
SplineSet
95 520 m 1
 465 520 l 1
 441 375 l 1
 71 375 l 1
 95 520 l 1
273 170 m 1
 103 140 l 1
 190 673 l 1
 355 673 l 1
 273 170 l 1
302 135 m 1
 316 135 333 146 343 160 c 5
 409 42 l 1
 377 13 328 -10 246 -10 c 1
 302 135 l 1
273 170 m 1
 269 148 277 135 302 135 c 5
 246 -10 l 1
 127 -10 90 61 103 140 c 1
 273 170 l 1
EndSplineSet
EndChar

StartChar: a
Encoding: 97 97 44
Width: 580
VWidth: 0
Flags: HMW
AnchorPoint: "ced" 455 0 basechar 0
AnchorPoint: "ring" 275 673 basechar 0
AnchorPoint: "dot" 275 673 basechar 0
LayerCount: 2
Fore
SplineSet
379 302 m 1
 469 302 l 1
 456 218 l 1
 396 218 l 1
 379 302 l 1
420 310 m 1
 429 365 393 395 332 395 c 1
 370 530 l 1
 513 530 609 454 589 330 c 1
 420 310 l 1
332 395 m 1
 258 395 227 369 192 342 c 1
 123 450 l 1
 188 499 258 530 370 530 c 1
 332 395 l 1
420 310 m 1
 589 330 l 1
 535 0 l 1
 370 0 l 1
 420 310 l 1
224 157 m 1
 218 123 244 105 277 105 c 0
 335 105 390 120 403 200 c 1
 434 180 l 1
 416 71 327 -10 198 -10 c 4
 99 -10 29 41 47 150 c 1
 224 157 l 1
379 302 m 1
 396 218 l 1
 287 218 231 202 224 157 c 1
 47 150 l 1
 69 285 192 302 379 302 c 1
EndSplineSet
EndChar

StartChar: j
Encoding: 106 106 45
Width: 255
VWidth: 0
Flags: HMW
LayerCount: 2
Fore
SplineSet
144 682 m 4
 153 736 204 780 258 780 c 4
 312 780 349 736 340 682 c 4
 331 628 280 584 226 584 c 4
 172 584 135 628 144 682 c 4
134 520 m 5
 299 520 l 5
 204 -60 l 5
 44 -30 l 5
 134 520 l 5
1 -65 m 5
 8 -210 l 5
 -49 -210 -117 -192 -138 -158 c 5
 -48 -37 l 5
 -34 -56 -21 -65 1 -65 c 5
44 -30 m 5
 204 -60 l 5
 185 -179 97 -210 8 -210 c 5
 1 -65 l 5
 28 -65 40 -57 44 -30 c 5
EndSplineSet
EndChar

StartChar: s
Encoding: 115 115 46
Width: 520
VWidth: 0
Flags: HMW
AnchorPoint: "ced" 265 0 basechar 0
AnchorPoint: "dot" 265 673 basechar 0
LayerCount: 2
Fore
SplineSet
354 167 m 1
 517 157 l 5
 502 48 403 -10 264 -10 c 0
 155 -10 66 19 20 86 c 1
 116 198 l 1
 155 151 221 131 269 131 c 0
 317 131 350 142 354 167 c 1
257 365 m 1
 91 363 l 1
 107 479 220 530 339 530 c 0
 438 530 516 496 551 448 c 1
 465 345 l 1
 432 378 377 395 340 395 c 0
 302 395 261 391 257 365 c 1
376 326 m 0
 471 311 531 257 517 157 c 5
 354 167 l 1
 359 201 317 198 240 211 c 0
 159 225 77 265 91 363 c 1
 257 365 l 1
 253 335 310 337 376 326 c 0
EndSplineSet
EndChar

StartChar: v
Encoding: 118 118 47
Width: 590
VWidth: 0
Flags: HW
AnchorPoint: "ced" 287 0 basechar 0
AnchorPoint: "dot" 273 673 basechar 0
LayerCount: 2
Fore
SplineSet
365 0 m 5
 225 0 l 1
 226 5 l 1
 366 5 l 5
 365 0 l 5
226 5 m 1
 490 520 l 1
 660 520 l 1
 365 0 l 5
 226 5 l 1
100 520 m 1
 270 520 l 1
 366 5 l 5
 225 0 l 1
 100 520 l 1
EndSplineSet
EndChar

StartChar: f
Encoding: 102 102 48
Width: 375
VWidth: 0
Flags: HMW
AnchorPoint: "ced" 160 0 basechar 0
LayerCount: 2
Fore
SplineSet
95 520 m 1
 448 520 l 1
 424 375 l 1
 71 375 l 1
 95 520 l 1
333 540 m 1
 245 0 l 1
 80 0 l 1
 176 590 l 1
 333 540 l 1
380 595 m 1
 388 740 l 1
 450 740 491 718 512 688 c 1
 414 577 l 1
 406 587 399 595 380 595 c 1
333 540 m 1
 176 590 l 1
 189 669 269 740 388 740 c 1
 380 595 l 1
 345 595 338 569 333 540 c 1
EndSplineSet
Substitution2: "fi-1" fi
EndChar

StartChar: y
Encoding: 121 121 49
Width: 579
VWidth: 0
Flags: HW
AnchorPoint: "dot" 305 673 basechar 0
LayerCount: 2
Fore
SplineSet
94 520 m 1
 264 520 l 1
 368 25 l 1
 251 -40 l 5
 94 520 l 1
141 -75 m 1
 154 -210 l 1
 97 -210 32 -184 11 -150 c 1
 80 -42 l 1
 94 -61 112 -75 141 -75 c 1
243 -5 m 2
 484 520 l 1
 649 520 l 1
 369 -60 l 2
 323 -156 243 -210 154 -210 c 1
 141 -75 l 1
 168 -75 219 -52 243 -5 c 2
EndSplineSet
EndChar

StartChar: w
Encoding: 119 119 50
Width: 795
VWidth: 0
Flags: HW
AnchorPoint: "ced" 565 0 basechar 0
AnchorPoint: "dot" 408 673 basechar 0
LayerCount: 2
Fore
SplineSet
420 520 m 1
 565 520 l 1
 557 470 l 1
 412 470 l 1
 420 520 l 1
645 0 m 1
 490 0 l 1
 491 5 l 1
 629 25 l 1
 645 0 l 1
524 25 m 5
 705 520 l 1
 870 520 l 1
 645 0 l 1
 524 25 l 5
422 470 m 1
 565 520 l 1
 619 25 l 1
 490 0 l 1
 422 470 l 1
325 0 m 1
 170 0 l 1
 174 25 l 1
 326 5 l 1
 325 0 l 1
204 25 m 1
 420 520 l 1
 547 470 l 1
 325 0 l 1
 204 25 l 1
115 520 m 1
 280 520 l 1
 299 25 l 1
 170 0 l 1
 115 520 l 1
EndSplineSet
EndChar

StartChar: x
Encoding: 120 120 51
Width: 615
VWidth: 0
Flags: HW
AnchorPoint: "ced" 510 0 basechar 0
AnchorPoint: "dot" 280 673 basechar 0
LayerCount: 2
Fore
SplineSet
15 0 m 1
 475 520 l 5
 665 520 l 1
 205 0 l 1
 15 0 l 1
120 520 m 1
 310 520 l 1
 600 0 l 1
 410 0 l 5
 120 520 l 1
EndSplineSet
EndChar

StartChar: z
Encoding: 122 122 52
Width: 570
VWidth: 0
Flags: HMW
AnchorPoint: "ced" 460 0 basechar 0
AnchorPoint: "dot" 290 673 basechar 0
LayerCount: 2
Fore
SplineSet
59 115 m 1
 102 135 l 1
 60 0 l 1
 40 0 l 1
 59 115 l 1
104 145 m 1
 554 145 l 1
 530 0 l 1
 60 0 l 1
 104 145 l 1
585 520 m 1
 605 520 l 1
 586 405 l 1
 543 385 l 5
 585 520 l 1
145 520 m 1
 585 520 l 1
 541 375 l 5
 121 375 l 1
 145 520 l 1
373 385 m 1
 586 405 l 1
 272 135 l 1
 59 115 l 1
 373 385 l 1
EndSplineSet
EndChar

StartChar: zero
Encoding: 48 48 53
Width: 600
VWidth: 0
Flags: HMW
LayerCount: 2
Fore
SplineSet
242 350 m 4
 222 228 231 140 323 140 c 0
 415 140 452 228 472 350 c 4
 492 472 483 560 391 560 c 0
 299 560 262 472 242 350 c 4
72 350 m 0
 104 549 241 710 416 710 c 0
 591 710 674 549 642 350 c 0
 610 151 473 -10 298 -10 c 0
 123 -10 40 151 72 350 c 0
EndSplineSet
EndChar

StartChar: one
Encoding: 49 49 54
Width: 600
VWidth: 0
Flags: HMW
LayerCount: 2
Fore
SplineSet
574 700 m 1
 570 676 l 1
 410 676 l 1
 414 700 l 1
 574 700 l 1
414 700 m 1
 520 606 l 1
 240 426 l 1
 168 540 l 1
 414 700 l 1
402 690 m 1
 574 700 l 1
 460 0 l 1
 290 0 l 1
 402 690 l 1
EndSplineSet
EndChar

StartChar: six
Encoding: 54 54 55
Width: 600
VWidth: 0
Flags: HMW
LayerCount: 2
Fore
SplineSet
246 220 m 1
 151 220 l 1
 172 349 303 445 432 445 c 1
 350 310 l 1
 292 310 253 265 246 220 c 1
246 220 m 0
 239 175 263 130 321 130 c 0
 379 130 419 175 426 220 c 0
 433 265 408 310 350 310 c 1
 432 445 l 1
 531 445 607 349 586 220 c 0
 565 91 447 -10 298 -10 c 0
 149 -10 65 91 86 220 c 0
 95 277 129 326 169 377 c 6
 423 700 l 5
 603 700 l 5
 305 352 l 1
 241 345 l 1
 198 316 254 271 246 220 c 0
EndSplineSet
EndChar

StartChar: period
Encoding: 46 46 56
Width: 230
VWidth: 0
Flags: HMW
LayerCount: 2
Fore
SplineSet
25 95 m 4
 34 153 90 200 148 200 c 4
 206 200 244 153 235 95 c 4
 226 37 171 -10 113 -10 c 4
 55 -10 16 37 25 95 c 4
EndSplineSet
EndChar

StartChar: semicolon
Encoding: 59 59 57
Width: 254
VWidth: 0
Flags: HMW
LayerCount: 2
Fore
SplineSet
35 95 m 0
 44 153 101 200 163 200 c 0
 227 200 265 155 256 97 c 0
 250 59 222 23 198 -2 c 2
 79 -130 l 1
 -11 -130 l 1
 72 1 l 1
 40 23 29 61 35 95 c 0
103 509 m 4
 112 567 167 614 225 614 c 4
 283 614 322 567 313 509 c 4
 304 451 249 404 191 404 c 4
 133 404 94 451 103 509 c 4
EndSplineSet
EndChar

StartChar: comma
Encoding: 44 44 58
Width: 254
VWidth: 0
Flags: HMW
LayerCount: 2
Fore
SplineSet
35 95 m 0
 44 153 101 200 163 200 c 0
 227 200 265 155 256 97 c 0
 250 59 222 23 198 -2 c 2
 79 -130 l 1
 -11 -130 l 1
 72 1 l 1
 40 23 29 61 35 95 c 0
EndSplineSet
EndChar

StartChar: colon
Encoding: 58 58 59
Width: 230
VWidth: 0
Flags: HMW
LayerCount: 2
Fore
SplineSet
25 95 m 4
 34 153 90 200 148 200 c 4
 206 200 244 153 235 95 c 4
 226 37 171 -10 113 -10 c 4
 55 -10 16 37 25 95 c 4
93 509 m 4
 102 567 157 614 215 614 c 4
 273 614 312 567 303 509 c 4
 294 451 239 404 181 404 c 4
 123 404 84 451 93 509 c 4
EndSplineSet
EndChar

StartChar: two
Encoding: 50 50 60
Width: 600
VWidth: 0
Flags: HMW
LayerCount: 2
Fore
SplineSet
72 135 m 1
 92 135 l 1
 70 0 l 1
 50 0 l 1
 72 135 l 1
455 490 m 5
 461 529 451 565 387 565 c 0
 328 565 288 525 239 442 c 1
 135 523 l 1
 194 629 293 710 411 710 c 0
 550 710 630 615 611 496 c 1
 455 490 l 5
70 0 m 1
 94 145 l 1
 574 145 l 1
 550 0 l 1
 70 0 l 1
439 261 m 2
 280 135 l 1
 72 135 l 1
 297 310 l 2
 410 396 445 429 455 490 c 5
 611 496 l 1
 596 406 557 355 439 261 c 2
EndSplineSet
EndChar

StartChar: nine
Encoding: 57 57 61
Width: 600
VWidth: 0
Flags: HMW
LayerCount: 2
Fore
SplineSet
468 480 m 1
 563 480 l 1
 542 351 411 255 282 255 c 1
 364 390 l 1
 422 390 461 435 468 480 c 1
468 480 m 0
 475 525 451 570 393 570 c 0
 335 570 295 525 288 480 c 0
 281 435 306 390 364 390 c 1
 282 255 l 1
 183 255 107 351 128 480 c 0
 149 609 267 710 416 710 c 0
 565 710 649 609 628 480 c 0
 619 423 585 374 545 323 c 6
 291 0 l 5
 111 0 l 5
 409 348 l 1
 473 355 l 1
 516 384 460 429 468 480 c 0
EndSplineSet
EndChar

StartChar: three
Encoding: 51 51 62
Width: 600
VWidth: 0
Flags: HMW
LayerCount: 2
Fore
SplineSet
318 419 m 1
 505 419 606 347 582 197 c 0
 559 57 425 -10 298 -10 c 0
 208 -10 118 14 66 99 c 1
 181 197 l 1
 213 142 264 134 312 134 c 0
 365 134 412 168 420 217 c 4
 428 266 401 295 298 295 c 5
 318 419 l 1
173 602 m 1
 231 660 302 710 416 710 c 0
 550 710 622 629 606 530 c 0
 587 411 475 315 301 315 c 1
 322 440 l 1
 392 440 431 468 437 506 c 0
 443 544 424 565 382 565 c 0
 337 565 304 552 256 504 c 1
 173 602 l 1
EndSplineSet
EndChar

StartChar: eight
Encoding: 56 56 63
Width: 600
VWidth: 0
Flags: HMW
LayerCount: 2
Fore
SplineSet
312 503 m 4
 306 468 326 440 372 440 c 4
 418 440 446 468 452 503 c 0
 458 538 438 566 392 566 c 4
 346 566 318 538 312 503 c 4
250 215 m 0
 243 170 275 134 322 134 c 0
 369 134 413 170 420 215 c 0
 427 260 395 296 348 296 c 0
 301 296 257 260 250 215 c 0
155 520 m 0
 173 629 292 710 416 710 c 0
 540 710 633 629 615 520 c 0
 597 411 477 325 353 325 c 0
 229 325 137 411 155 520 c 0
82 197 m 0
 103 327 230 409 367 409 c 0
 504 409 603 327 582 197 c 0
 561 67 435 -10 298 -10 c 0
 161 -10 61 67 82 197 c 0
EndSplineSet
EndChar

StartChar: four
Encoding: 52 52 64
Width: 600
VWidth: 0
Flags: HMW
LayerCount: 2
Fore
SplineSet
81 250 m 1
 101 250 l 1
 77 105 l 5
 57 105 l 5
 81 250 l 1
101 250 m 1
 611 250 l 1
 587 105 l 5
 77 105 l 5
 101 250 l 1
614 700 m 1
 610 676 l 1
 435 676 l 1
 439 700 l 1
 614 700 l 1
439 700 m 1
 547 659 l 1
 202 230 l 1
 81 250 l 1
 439 700 l 1
446 680 m 1
 614 700 l 1
 500 0 l 1
 335 0 l 1
 446 680 l 1
EndSplineSet
EndChar

StartChar: five
Encoding: 53 53 65
Width: 600
VWidth: 0
Flags: HMW
LayerCount: 2
Fore
SplineSet
131 311 m 1
 146 346 l 1
 311 496 l 1
 246 281 l 1
 131 311 l 1
436 465 m 1
 543 465 611 380 587 230 c 4
 561 70 425 -10 298 -10 c 0
 208 -10 118 14 66 99 c 1
 190 212 l 1
 222 157 253 136 316 136 c 0
 369 136 412 171 422 230 c 0
 432 289 417 330 354 330 c 1
 436 465 l 1
131 311 m 1
 244 700 l 1
 399 700 l 1
 287 321 l 1
 131 311 l 1
244 700 m 1
 624 700 l 1
 600 555 l 1
 220 555 l 1
 244 700 l 1
354 330 m 1
 297 330 268 302 246 281 c 1
 227 291 l 1
 263 390 327 465 436 465 c 1
 354 330 l 1
EndSplineSet
EndChar

StartChar: seven
Encoding: 55 55 66
Width: 600
VWidth: 0
Flags: HMW
LayerCount: 2
Fore
SplineSet
644 570 m 1
 321 0 l 5
 154 0 l 1
 477 570 l 1
 644 570 l 1
644 700 m 1
 665 700 l 1
 644 570 l 1
 623 570 l 1
 644 700 l 1
164 700 m 1
 644 700 l 1
 620 555 l 1
 140 555 l 1
 164 700 l 1
EndSplineSet
EndChar

StartChar: exclam
Encoding: 33 33 67
Width: 230
VWidth: 0
Flags: HMW
LayerCount: 2
Fore
SplineSet
25 95 m 4
 34 153 90 200 148 200 c 4
 206 200 244 153 235 95 c 4
 226 37 171 -10 113 -10 c 4
 55 -10 16 37 25 95 c 4
106 490 m 1
 284 490 l 1
 218 250 l 1
 94 250 l 1
 106 490 l 1
145 730 m 1
 323 730 l 1
 284 490 l 1
 106 490 l 1
 145 730 l 1
EndSplineSet
EndChar

StartChar: quotedbl
Encoding: 34 34 68
Width: 340
VWidth: 0
Flags: HMW
LayerCount: 2
Fore
SplineSet
286 655 m 0
 294 702 334 740 376 740 c 0
 418 740 446 702 438 655 c 0
 437 646 434 634 429 624 c 6
 362 480 l 1
 305 480 l 1
 284 624 l 6
 283 634 285 646 286 655 c 0
116 655 m 0
 124 702 164 740 206 740 c 0
 248 740 276 702 268 655 c 0
 267 646 264 634 259 624 c 6
 192 480 l 1
 135 480 l 1
 114 624 l 6
 113 634 115 646 116 655 c 0
EndSplineSet
EndChar

StartChar: quotesingle
Encoding: 39 39 69
Width: 170
VWidth: 0
Flags: HMW
LayerCount: 2
Fore
SplineSet
107 655 m 0
 115 702 159 740 206 740 c 0
 253 740 285 702 277 655 c 0
 276 646 273 634 268 624 c 6
 195 480 l 1
 131 480 l 1
 106 624 l 6
 104 634 106 646 107 655 c 0
EndSplineSet
EndChar

StartChar: numbersign
Encoding: 35 35 70
Width: 810
VWidth: 0
Flags: HMW
LayerCount: 2
Fore
SplineSet
777 290 m 5
 752 135 l 1
 62 135 l 1
 87 290 l 5
 777 290 l 5
862 565 m 5
 837 410 l 1
 147 410 l 1
 172 565 l 5
 862 565 l 5
639 700 m 1
 799 700 l 1
 565 0 l 1
 405 0 l 1
 639 700 l 1
359 700 m 1
 519 700 l 1
 285 0 l 1
 125 0 l 1
 359 700 l 1
EndSplineSet
EndChar

StartChar: percent
Encoding: 37 37 71
Width: 940
VWidth: 0
Flags: HMW
LayerCount: 2
Fore
SplineSet
709 180 m 0
 705 155 720 135 742 135 c 0
 764 135 785 155 789 180 c 0
 793 205 779 225 757 225 c 0
 735 225 713 205 709 180 c 0
265 520 m 0
 261 495 275 475 297 475 c 0
 319 475 341 495 345 520 c 0
 349 545 334 565 312 565 c 0
 290 565 269 545 265 520 c 0
115 520 m 0
 132 625 231 710 336 710 c 0
 441 710 512 625 495 520 c 0
 478 415 379 330 274 330 c 0
 169 330 98 415 115 520 c 0
559 180 m 0
 576 285 675 370 780 370 c 0
 885 370 956 285 939 180 c 0
 922 75 823 -10 718 -10 c 0
 613 -10 542 75 559 180 c 0
724 700 m 1
 884 700 l 1
 330 0 l 1
 170 0 l 1
 724 700 l 1
EndSplineSet
EndChar

StartChar: dollar
Encoding: 36 36 72
Width: 600
VWidth: 0
Flags: HMW
LayerCount: 2
Fore
SplineSet
464 208 m 1
 620 215 l 1
 596 66 465 -15 316 -15 c 0
 167 -15 83 66 30 123 c 1
 138 243 l 1
 187 189 263 135 330 135 c 0
 410 135 456 160 464 208 c 1
298 501 m 1
 137 496 l 1
 161 642 292 715 436 715 c 0
 565 715 636 669 683 617 c 1
 576 490 l 1
 538 534 489 565 407 565 c 0
 339 565 304 539 298 501 c 1
410 430 m 0
 532 405 643 357 620 215 c 1
 464 208 l 1
 472 259 421 270 326 290 c 0
 217 313 116 369 137 496 c 1
 298 501 l 1
 291 458 333 446 410 430 c 0
408 780 m 1
 478 780 l 1
 338 -80 l 1
 268 -80 l 1
 408 780 l 1
EndSplineSet
EndChar

StartChar: asterisk
Encoding: 42 42 73
Width: 324
VWidth: 0
Flags: HMW
LayerCount: 2
Fore
SplineSet
132 462 m 1
 96 548 l 1
 244 610 l 1
 381 698 l 1
 417 612 l 1
 269 550 l 1
 132 462 l 1
107 612 m 1
 171 698 l 1
 279 610 l 1
 406 548 l 1
 342 462 l 1
 234 550 l 1
 107 612 l 1
231 730 m 1
 331 730 l 1
 291 580 l 1
 282 430 l 1
 182 430 l 1
 221 580 l 1
 231 730 l 1
EndSplineSet
EndChar

StartChar: slash
Encoding: 47 47 74
Width: 430
VWidth: 0
Flags: HMW
LayerCount: 2
Fore
SplineSet
427 780 m 1
 577 780 l 1
 117 -80 l 5
 -33 -80 l 1
 427 780 l 1
EndSplineSet
EndChar

StartChar: ampersand
Encoding: 38 38 75
Width: 715
VWidth: 0
Flags: HMW
LayerCount: 2
Fore
SplineSet
331 403 m 0
 411 424 465 490 470 520 c 1
 631 530 l 1
 616 435 486 357 390 335 c 0
 288 312 253 264 244 210 c 1
 69 180 l 1
 92 320 221 374 331 403 c 0
371 530 m 1
 213 540 l 1
 231 649 342 710 451 710 c 0
 560 710 650 649 631 530 c 1
 470 520 l 1
 476 554 461 575 429 575 c 0
 402 575 375 554 371 530 c 1
307 291 m 2
 236 396 200 460 213 540 c 1
 371 530 l 1
 364 489 388 437 455 339 c 2
 685 0 l 1
 505 0 l 1
 307 291 l 2
612 359 m 1
 713 264 l 5
 627 105 487 -10 298 -10 c 0
 149 -10 48 51 69 180 c 1
 244 210 l 1
 236 161 275 135 352 135 c 0
 439 135 548 210 612 359 c 1
EndSplineSet
EndChar

StartChar: parenleft
Encoding: 40 40 76
Width: 275
VWidth: 0
Flags: HMW
LayerCount: 2
Fore
SplineSet
292 750 m 5
 384 700 l 5
 222 440 164 90 242 -170 c 5
 134 -220 l 5
 -36 90 22 440 292 750 c 5
EndSplineSet
EndChar

StartChar: parenright
Encoding: 41 41 77
Width: 275
VWidth: 0
Flags: HMW
LayerCount: 2
Fore
SplineSet
84 -220 m 5
 -8 -170 l 5
 154 90 212 440 134 700 c 5
 242 750 l 5
 412 440 354 90 84 -220 c 5
EndSplineSet
EndChar

StartChar: hyphen
Encoding: 45 45 78
Width: 430
VWidth: 0
Flags: HMW
LayerCount: 2
Fore
SplineSet
126 375 m 5
 426 375 l 5
 401 220 l 1
 101 220 l 1
 126 375 l 5
EndSplineSet
EndChar

StartChar: plus
Encoding: 43 43 79
Width: 510
VWidth: 0
Flags: HMW
LayerCount: 2
Fore
SplineSet
431 589 m 5
 357 134 l 5
 197 134 l 1
 271 589 l 1
 431 589 l 5
101 439 m 1
 551 439 l 1
 526 284 l 1
 76 284 l 1
 101 439 l 1
EndSplineSet
EndChar

StartChar: equal
Encoding: 61 61 80
Width: 510
VWidth: 0
Flags: HMW
LayerCount: 2
Fore
SplineSet
78 295 m 1
 528 295 l 1
 509 180 l 1
 59 180 l 1
 78 295 l 1
116 530 m 5
 566 530 l 5
 548 415 l 1
 98 415 l 1
 116 530 l 5
EndSplineSet
EndChar

StartChar: backslash
Encoding: 92 92 81
Width: 430
VWidth: 0
Flags: HMW
LayerCount: 2
Fore
SplineSet
257 780 m 1
 437 -80 l 1
 287 -80 l 5
 107 780 l 1
 257 780 l 1
EndSplineSet
EndChar

StartChar: less
Encoding: 60 60 82
Width: 510
VWidth: 0
Flags: HMW
LayerCount: 2
Fore
SplineSet
98 415 m 5
 517 225 l 5
 498 110 l 5
 79 300 l 5
 98 415 l 5
98 415 m 5
 579 605 l 5
 560 490 l 5
 79 300 l 5
 98 415 l 5
EndSplineSet
EndChar

StartChar: greater
Encoding: 62 62 83
Width: 510
VWidth: 0
Flags: HMW
LayerCount: 2
Fore
SplineSet
535 300 m 5
 116 490 l 5
 135 605 l 5
 554 415 l 5
 535 300 l 5
535 300 m 5
 54 110 l 5
 73 225 l 5
 554 415 l 5
 535 300 l 5
EndSplineSet
EndChar

StartChar: question
Encoding: 63 63 84
Width: 555
VWidth: 0
Flags: HMW
LayerCount: 2
Fore
SplineSet
194 95 m 4
 203 153 259 200 317 200 c 4
 375 200 413 153 404 95 c 4
 395 37 340 -10 282 -10 c 4
 224 -10 185 37 194 95 c 4
361 442 m 0
 410 466 426 496 431 526 c 1
 604 546 l 1
 589 451 553 407 489 371 c 4
 438 342 419 331 406 250 c 1
 246 250 l 1
 250 400 297 411 361 442 c 0
431 526 m 1
 436 558 413 585 364 585 c 0
 311 585 280 570 235 507 c 1
 137 593 l 1
 193 679 273 740 406 740 c 0
 570 740 620 645 604 546 c 1
 431 526 l 1
EndSplineSet
EndChar

StartChar: at
Encoding: 64 64 85
Width: 1050
VWidth: 0
Flags: HMW
LayerCount: 2
Fore
SplineSet
662 260 m 0
 675 339 628 385 573 385 c 4
 518 385 460 339 447 260 c 0
 434 181 477 135 532 135 c 0
 587 135 649 181 662 260 c 0
697 260 m 0
 673 111 607 -10 468 -10 c 0
 349 -10 256 101 282 260 c 0
 308 419 437 530 556 530 c 0
 705 530 721 409 697 260 c 0
865 520 m 1
 800 120 l 1
 636 100 l 1
 705 520 l 1
 865 520 l 1
97 260 m 0
 139 519 365 730 644 730 c 0
 903 730 1086 559 1044 300 c 0
 1006 64 882 -10 776 -10 c 0
 652 -10 627 43 636 100 c 1
 800 120 l 1
 790 61 797 33 833 33 c 0
 884 33 983 116 1013 300 c 0
 1053 543 882 701 639 701 c 0
 376 701 168 503 128 260 c 0
 88 17 253 -181 496 -181 c 1
 491 -210 l 1
 232 -210 55 1 97 260 c 0
EndSplineSet
EndChar

StartChar: bracketleft
Encoding: 91 91 86
Width: 315
VWidth: 0
Flags: HMW
LayerCount: 2
Fore
SplineSet
240 584 m 1
 264 730 l 1
 414 730 l 1
 390 584 l 1
 240 584 l 1
112 -200 m 1
 136 -54 l 5
 286 -54 l 5
 262 -200 l 1
 112 -200 l 1
164 730 m 1
 315 730 l 1
 163 -200 l 1
 12 -200 l 1
 164 730 l 1
EndSplineSet
EndChar

StartChar: bracketright
Encoding: 93 93 87
Width: 295
VWidth: 0
Flags: HMW
LayerCount: 2
Fore
SplineSet
141 -54 m 1
 117 -200 l 1
 -33 -200 l 1
 -9 -54 l 1
 141 -54 l 1
269 730 m 1
 245 584 l 5
 95 584 l 5
 119 730 l 1
 269 730 l 1
217 -200 m 1
 66 -200 l 1
 218 730 l 1
 369 730 l 1
 217 -200 l 1
EndSplineSet
EndChar

StartChar: asciicircum
Encoding: 94 94 88
Width: 510
VWidth: 0
Flags: HMW
LayerCount: 2
Fore
SplineSet
410 430 m 1
 289 730 l 5
 459 730 l 5
 560 430 l 1
 410 430 l 1
289 730 m 1
 459 730 l 1
 240 430 l 1
 90 430 l 1
 289 730 l 1
EndSplineSet
EndChar

StartChar: underscore
Encoding: 95 95 89
Width: 600
VWidth: 0
Flags: HMW
LayerCount: 2
Fore
SplineSet
-9 -40 m 5
 595 -40 l 5
 569 -200 l 1
 -35 -200 l 1
 -9 -40 l 5
EndSplineSet
EndChar

StartChar: braceleft
Encoding: 123 123 90
Width: 369
VWidth: 0
Flags: HMW
LayerCount: 2
Fore
SplineSet
108 325 m 1
 126 325 l 1
 106 205 l 1
 88 205 l 1
 108 325 l 1
161 150 m 5
 281 150 l 5
 255 -10 l 1
 129 -50 l 1
 161 150 l 5
231 580 m 1
 345 540 l 1
 319 380 l 1
 199 380 l 1
 231 580 l 1
199 380 m 1
 319 380 l 1
 303 281 217 230 98 230 c 5
 108 325 l 1
 176 325 192 340 199 380 c 1
161 150 m 1
 168 190 156 205 88 205 c 1
 110 300 l 1
 229 300 297 249 281 150 c 1
 161 150 l 1
345 540 m 1
 231 580 l 1
 244 659 333 730 452 730 c 1
 439 615 l 1
 361 615 352 580 345 540 c 1
255 -10 m 1
 248 -50 247 -85 325 -85 c 1
 300 -200 l 1
 181 -200 116 -129 129 -50 c 1
 255 -10 l 1
EndSplineSet
EndChar

StartChar: braceright
Encoding: 125 125 91
Width: 349
VWidth: 0
Flags: HMW
LayerCount: 2
Fore
SplineSet
352 205 m 1
 334 205 l 1
 354 325 l 1
 372 325 l 1
 352 205 l 1
299 380 m 5
 179 380 l 5
 205 540 l 1
 331 580 l 1
 299 380 l 5
229 -50 m 1
 115 -10 l 1
 141 150 l 1
 261 150 l 1
 229 -50 l 1
261 150 m 1
 141 150 l 1
 157 249 243 300 362 300 c 5
 352 205 l 1
 284 205 268 190 261 150 c 1
299 380 m 1
 292 340 304 325 372 325 c 1
 350 230 l 1
 231 230 163 281 179 380 c 1
 299 380 l 1
115 -10 m 1
 229 -50 l 1
 216 -129 127 -200 8 -200 c 1
 21 -85 l 1
 99 -85 108 -50 115 -10 c 1
205 540 m 1
 212 580 213 615 135 615 c 1
 160 730 l 1
 279 730 344 659 331 580 c 1
 205 540 l 1
EndSplineSet
EndChar

StartChar: bar
Encoding: 124 124 92
Width: 320
VWidth: 0
Flags: HMW
LayerCount: 2
Fore
SplineSet
332 780 m 5
 192 -80 l 5
 102 -80 l 1
 242 780 l 1
 332 780 l 5
EndSplineSet
EndChar

StartChar: asciitilde
Encoding: 126 126 93
Width: 470
VWidth: 0
Flags: HMW
LayerCount: 2
Fore
SplineSet
152 164 m 1
 77 194 l 1
 94 272 149 321 200 321 c 0
 264 321 299 257 343 257 c 0
 388 257 402 287 408 324 c 1
 473 294 l 1
 454 206 401 167 351 167 c 0
 289 167 258 231 215 231 c 4
 171 231 158 201 152 164 c 1
EndSplineSet
EndChar

StartChar: quoteleft
Encoding: 8216 8216 94
Width: 214
VWidth: 0
Flags: HMW
LayerCount: 2
Fore
SplineSet
276 505 m 0
 267 447 211 400 149 400 c 0
 85 400 47 445 56 503 c 0
 62 541 90 577 114 602 c 2
 233 730 l 1
 323 730 l 1
 239 599 l 1
 271 577 282 539 276 505 c 0
EndSplineSet
EndChar

StartChar: quoteright
Encoding: 8217 8217 95
Width: 214
VWidth: 0
Flags: HMW
LayerCount: 2
Fore
SplineSet
136 715 m 0
 145 773 202 820 264 820 c 0
 328 820 366 775 357 717 c 0
 351 679 323 643 299 618 c 2
 180 490 l 1
 90 490 l 1
 173 621 l 1
 141 643 130 681 136 715 c 0
EndSplineSet
EndChar

StartChar: quotedblleft
Encoding: 8220 8220 96
Width: 414
VWidth: 0
Flags: HMW
LayerCount: 2
Fore
SplineSet
276 505 m 0
 267 447 211 400 149 400 c 0
 85 400 47 445 56 503 c 0
 62 541 90 577 114 602 c 2
 233 730 l 1
 323 730 l 1
 239 599 l 1
 271 577 282 539 276 505 c 0
476 505 m 0
 467 447 411 400 349 400 c 0
 285 400 247 445 256 503 c 0
 262 541 290 577 314 602 c 2
 433 730 l 1
 523 730 l 1
 439 599 l 1
 471 577 482 539 476 505 c 0
EndSplineSet
EndChar

StartChar: quotedblright
Encoding: 8221 8221 97
Width: 414
VWidth: 0
Flags: HMW
LayerCount: 2
Fore
SplineSet
336 715 m 0
 345 773 402 820 464 820 c 0
 528 820 566 775 557 717 c 0
 551 679 523 643 499 618 c 2
 380 490 l 1
 290 490 l 1
 373 621 l 1
 341 643 330 681 336 715 c 0
136 715 m 0
 145 773 202 820 264 820 c 0
 328 820 366 775 357 717 c 0
 351 679 323 643 299 618 c 2
 180 490 l 1
 90 490 l 1
 173 621 l 1
 141 643 130 681 136 715 c 0
EndSplineSet
EndChar

StartChar: tilde
Encoding: 732 732 98
Width: 500
VWidth: 0
Flags: HMW
AnchorPoint: "dot" 250 610 basechar 0
LayerCount: 2
Fore
SplineSet
238 600 m 5
 150 620 l 1
 167 698 234 747 285 747 c 0
 349 747 377 703 421 703 c 0
 456 703 487 713 491 740 c 1
 577 720 l 1
 558 632 485 593 435 593 c 0
 373 593 349 637 306 637 c 4
 272 637 242 627 238 600 c 5
EndSplineSet
EndChar

StartChar: dotaccent
Encoding: 729 729 99
Width: 500
VWidth: 0
Flags: HMW
AnchorPoint: "dot" 250 590 basechar 0
LayerCount: 2
Fore
SplineSet
272 666 m 0
 280 713 325 752 372 752 c 0
 419 752 452 713 444 666 c 0
 436 619 391 580 344 580 c 0
 297 580 264 619 272 666 c 0
EndSplineSet
EndChar

StartChar: ring
Encoding: 730 730 100
Width: 500
VWidth: 0
Flags: HMW
AnchorPoint: "ring" 250 590 basechar 0
LayerCount: 2
Fore
SplineSet
311 680 m 0
 306 651 324 630 353 630 c 0
 382 630 406 651 411 680 c 0
 416 709 398 730 369 730 c 4
 340 730 316 709 311 680 c 0
261 680 m 0
 270 735 322 780 377 780 c 0
 432 780 470 735 461 680 c 0
 452 625 399 580 344 580 c 0
 289 580 252 625 261 680 c 0
EndSplineSet
EndChar

StartChar: breve
Encoding: 728 728 101
Width: 500
VWidth: 0
Flags: HMW
AnchorPoint: "dot" 244 559 basechar 0
LayerCount: 2
Fore
SplineSet
355 679 m 1
 315 679 292 693 300 741 c 1
 184 735 l 1
 168 636 226 559 335 559 c 1
 355 679 l 1
355 679 m 5
 335 559 l 1
 444 559 528 636 544 735 c 1
 430 741 l 5
 422 693 397 679 355 679 c 5
EndSplineSet
EndChar

StartChar: circumflex
Encoding: 710 710 102
Width: 500
VWidth: 0
Flags: HMW
AnchorPoint: "dot" 250 630 basechar 0
LayerCount: 2
Fore
SplineSet
418 630 m 1
 334 730 l 1
 424 730 l 1
 508 630 l 1
 418 630 l 1
314 730 m 5
 404 730 l 1
 288 630 l 1
 198 630 l 5
 314 730 l 5
EndSplineSet
EndChar

StartChar: caron
Encoding: 711 711 103
Width: 500
VWidth: 0
Flags: HMW
AnchorPoint: "dot" 250 630 basechar 0
LayerCount: 2
Fore
SplineSet
304 730 m 1
 388 630 l 1
 298 630 l 5
 214 730 l 5
 304 730 l 1
408 630 m 1
 318 630 l 1
 434 730 l 1
 524 730 l 1
 408 630 l 1
EndSplineSet
EndChar

StartChar: exclamdown
Encoding: 161 161 104
Width: 190
VWidth: 0
Flags: HMW
LayerCount: 2
Fore
SplineSet
249 425 m 4
 240 367 185 320 127 320 c 4
 69 320 30 367 39 425 c 4
 48 483 103 530 161 530 c 4
 219 530 258 483 249 425 c 4
169 30 m 1
 -9 30 l 1
 57 270 l 1
 181 270 l 1
 169 30 l 1
130 -210 m 1
 -48 -210 l 1
 -9 30 l 1
 169 30 l 1
 130 -210 l 1
EndSplineSet
EndChar

StartChar: cent
Encoding: 162 162 105
Width: 600
VWidth: 0
Flags: HMW
LayerCount: 2
Fore
SplineSet
257 260 m 0
 247 196 281 140 358 140 c 4
 417 140 453 160 488 200 c 1
 578 92 l 1
 521 28 430 -10 333 -10 c 0
 166 -10 68 111 92 260 c 0
 116 409 254 530 421 530 c 0
 518 530 595 491 632 428 c 1
 507 320 l 5
 486 360 456 380 397 380 c 4
 320 380 268 326 257 260 c 0
393 600 m 5
 453 600 l 1
 342 -80 l 1
 282 -80 l 5
 393 600 l 5
EndSplineSet
EndChar

StartChar: questiondown
Encoding: 191 191 106
Width: 555
VWidth: 0
Flags: HMW
LayerCount: 2
Fore
SplineSet
445 425 m 4
 436 367 381 320 323 320 c 4
 265 320 226 367 235 425 c 4
 244 483 299 530 357 530 c 4
 415 530 454 483 445 425 c 4
279 78 m 0
 230 54 214 24 209 -6 c 1
 36 -26 l 1
 51 69 86 113 150 149 c 4
 201 178 221 189 234 270 c 1
 394 270 l 1
 390 120 343 109 279 78 c 0
209 -6 m 1
 204 -38 226 -65 275 -65 c 0
 328 -65 360 -50 405 13 c 1
 503 -73 l 1
 447 -159 367 -220 234 -220 c 0
 70 -220 20 -125 36 -26 c 1
 209 -6 l 1
EndSplineSet
EndChar

StartChar: uni0203
Encoding: 515 515 107
Width: 580
VWidth: 0
Flags: HMW
LayerCount: 2
Fore
SplineSet
379 302 m 1
 469 302 l 1
 456 218 l 1
 396 218 l 1
 379 302 l 1
420 310 m 1
 429 365 393 395 332 395 c 1
 370 530 l 1
 513 530 609 454 589 330 c 1
 420 310 l 1
332 395 m 1
 258 395 227 369 192 342 c 1
 123 450 l 1
 188 499 258 530 370 530 c 1
 332 395 l 1
420 310 m 1
 589 330 l 1
 535 0 l 1
 370 0 l 1
 420 310 l 1
224 157 m 1
 218 123 244 105 277 105 c 0
 335 105 390 120 403 200 c 1
 434 180 l 1
 416 71 327 -10 198 -10 c 4
 99 -10 29 41 47 150 c 1
 224 157 l 1
379 302 m 1
 396 218 l 1
 287 218 231 202 224 157 c 1
 47 150 l 1
 69 285 192 302 379 302 c 1
389 642 m 1
 349 642 321 628 313 580 c 1
 199 586 l 1
 215 685 299 762 408 762 c 1
 389 642 l 1
389 642 m 5
 408 762 l 1
 517 762 575 685 559 586 c 1
 443 580 l 5
 451 628 431 642 389 642 c 5
EndSplineSet
EndChar

StartChar: sterling
Encoding: 163 163 108
Width: 600
VWidth: 0
Flags: HMW
LayerCount: 2
Fore
SplineSet
205 95 m 1
 57 -1 l 1
 272 273 120 279 161 530 c 1
 315 490 l 1
 285 306 383 270 205 95 c 1
141 -25 m 1
 57 -1 l 1
 144 77 230 142 301 142 c 4
 365 142 372 118 416 118 c 0
 461 118 471 129 497 166 c 1
 566 70 l 1
 527 -18 459 -32 409 -32 c 0
 327 -32 276 2 233 2 c 0
 189 2 164 -6 141 -25 c 1
110 400 m 1
 408 400 l 1
 383 245 l 1
 85 245 l 1
 110 400 l 1
395 555 m 1
 415 710 l 1
 497 710 559 669 586 610 c 1
 492 497 l 1
 471 536 439 555 395 555 c 1
315 490 m 1
 161 530 l 1
 179 639 272 710 415 710 c 1
 395 555 l 1
 340 555 321 529 315 490 c 1
EndSplineSet
EndChar

StartChar: currency
Encoding: 164 164 109
Width: 600
VWidth: 0
Flags: HMW
LayerCount: 2
Fore
SplineSet
280 315 m 0
 273 273 297 239 339 239 c 0
 381 239 415 273 422 315 c 0
 429 357 406 391 364 391 c 0
 322 391 287 357 280 315 c 0
149 219 m 5
 225 128 l 1
 113 32 l 1
 37 123 l 5
 149 219 l 5
413 133 m 1
 517 224 l 1
 602 123 l 1
 497 32 l 1
 413 133 l 1
589 598 m 1
 666 507 l 1
 534 394 l 1
 458 485 l 1
 589 598 l 1
100 507 m 1
 205 598 l 1
 300 485 l 1
 194 394 l 1
 100 507 l 1
135 315 m 0
 154 434 267 531 386 531 c 0
 505 531 586 434 567 315 c 0
 548 196 435 99 316 99 c 0
 197 99 116 196 135 315 c 0
EndSplineSet
EndChar

StartChar: yen
Encoding: 165 165 110
Width: 600
VWidth: 0
Flags: HMW
LayerCount: 2
Fore
SplineSet
226 295 m 1
 375 295 l 1
 327 0 l 1
 178 0 l 1
 226 295 l 1
76 700 m 1
 234 700 l 1
 375 295 l 1
 248 217 l 1
 76 700 l 1
498 700 m 1
 656 700 l 1
 327 217 l 1
 226 295 l 1
 498 700 l 1
58 171 m 1
 598 171 l 1
 586 97 l 1
 46 97 l 1
 58 171 l 1
83 323 m 5
 623 323 l 5
 611 249 l 1
 71 249 l 1
 83 323 l 5
EndSplineSet
EndChar

StartChar: brokenbar
Encoding: 166 166 111
Width: 300
VWidth: 0
Flags: HMW
LayerCount: 2
Fore
SplineSet
260 460 m 5
 190 460 l 5
 242 780 l 1
 312 780 l 1
 260 460 l 5
231 280 m 1
 172 -80 l 1
 102 -80 l 1
 161 280 l 1
 231 280 l 1
EndSplineSet
EndChar

StartChar: section
Encoding: 167 167 112
Width: 520
VWidth: 0
Flags: HMW
LayerCount: 2
Fore
SplineSet
375 152 m 1
 512 137 l 5
 496 41 382 -10 273 -10 c 0
 164 -10 82 50 47 92 c 1
 143 193 l 1
 176 160 247 125 295 125 c 0
 333 125 372 135 375 152 c 1
241 192 m 4
 125 204 44 300 208 450 c 1
 288 450 l 1
 173 360 243 318 349 303 c 0
 450 288 527 232 512 137 c 5
 375 152 l 1
 378 172 347 181 241 192 c 4
309 548 m 1
 172 563 l 1
 188 659 282 710 391 710 c 0
 500 710 545 670 580 628 c 1
 484 527 l 1
 451 560 417 575 369 575 c 0
 331 575 312 565 309 548 c 1
423 508 m 0
 539 496 620 400 456 250 c 1
 376 250 l 1
 491 340 421 382 315 397 c 0
 214 412 157 468 172 563 c 1
 309 548 l 1
 306 528 366 514 423 508 c 0
EndSplineSet
EndChar

StartChar: dieresis
Encoding: 168 168 113
Width: 500
VWidth: 0
Flags: HMW
AnchorPoint: "dot" 250 590 basechar 0
LayerCount: 2
Fore
SplineSet
162 666 m 0
 170 713 215 752 262 752 c 0
 309 752 342 713 334 666 c 0
 326 619 281 580 234 580 c 0
 187 580 154 619 162 666 c 0
382 666 m 0
 390 713 435 752 482 752 c 0
 529 752 562 713 554 666 c 0
 546 619 501 580 454 580 c 0
 407 580 374 619 382 666 c 0
EndSplineSet
EndChar

StartChar: copyright
Encoding: 169 169 114
Width: 850
VWidth: 0
Flags: HMW
LayerCount: 2
Fore
SplineSet
383 350 m 0
 374 292 405 245 473 245 c 0
 515 245 550 261 576 289 c 1
 614 232 l 1
 575 194 524 170 461 170 c 4
 349 170 282 250 298 350 c 0
 314 450 407 530 519 530 c 4
 582 530 627 506 653 468 c 1
 596 411 l 1
 579 439 549 455 507 455 c 0
 439 455 392 408 383 350 c 0
170 350 m 0
 141 174 259 30 430 30 c 0
 601 30 765 174 794 350 c 0
 823 526 705 670 534 670 c 0
 363 670 199 526 170 350 c 0
127 350 m 0
 159 549 346 710 541 710 c 0
 736 710 869 549 837 350 c 0
 805 151 618 -10 423 -10 c 0
 228 -10 95 151 127 350 c 0
EndSplineSet
EndChar

StartChar: ordfeminine
Encoding: 170 170 115
Width: 535
VWidth: 0
Flags: HMW
LayerCount: 2
Fore
SplineSet
383 540 m 1
 451 540 l 1
 441 476 l 1
 396 476 l 1
 383 540 l 1
414 546 m 1
 421 587 394 609 348 609 c 1
 377 710 l 1
 484 710 556 653 541 560 c 1
 414 546 l 1
348 609 m 1
 292 609 270 590 243 570 c 1
 191 650 l 1
 240 687 293 710 377 710 c 1
 348 609 l 1
414 546 m 1
 541 560 l 1
 500 313 l 1
 376 313 l 1
 414 546 l 1
267 431 m 1
 263 405 282 392 307 392 c 0
 351 392 391 403 401 463 c 1
 425 448 l 1
 412 366 345 306 248 306 c 4
 174 306 122 344 135 426 c 1
 267 431 l 1
383 540 m 1
 396 476 l 1
 314 476 272 465 267 431 c 1
 135 426 l 1
 151 527 243 540 383 540 c 1
137 286 m 5
 470 286 l 5
 451 169 l 1
 118 169 l 1
 137 286 l 5
EndSplineSet
EndChar

StartChar: registered
Encoding: 174 174 116
Width: 850
VWidth: 0
Flags: HMW
LayerCount: 2
Fore
SplineSet
503 362 m 1
 537 362 561 380 565 408 c 0
 569 436 552 450 518 450 c 1
 540 525 l 1
 614 525 661 476 650 408 c 0
 639 341 575 286 501 286 c 1
 503 362 l 1
370 525 m 1
 455 525 l 1
 398 175 l 1
 313 175 l 1
 370 525 l 1
388 525 m 1
 540 525 l 1
 518 450 l 1
 375 450 l 1
 388 525 l 1
361 362 m 1
 503 362 l 1
 501 286 l 1
 349 286 l 1
 361 362 l 1
438 335 m 1
 531 335 l 1
 635 175 l 1
 542 175 l 1
 438 335 l 1
170 350 m 0
 141 174 259 30 430 30 c 0
 601 30 765 174 794 350 c 0
 823 526 705 670 534 670 c 0
 363 670 199 526 170 350 c 0
127 350 m 0
 159 549 346 710 541 710 c 0
 736 710 869 549 837 350 c 0
 805 151 618 -10 423 -10 c 0
 228 -10 95 151 127 350 c 0
EndSplineSet
EndChar

StartChar: ordmasculine
Encoding: 186 186 117
Width: 535
VWidth: 0
Flags: HMW
LayerCount: 2
Fore
SplineSet
119 286 m 5
 505 286 l 5
 486 169 l 1
 100 169 l 1
 119 286 l 5
258 510 m 0
 249 458 281 416 333 416 c 4
 385 416 429 458 438 510 c 0
 447 562 415 604 363 604 c 0
 311 604 267 562 258 510 c 0
134 510 m 0
 152 622 254 712 381 712 c 0
 508 712 580 622 562 510 c 0
 544 398 442 308 315 308 c 0
 188 308 116 398 134 510 c 0
EndSplineSet
EndChar

StartChar: plusminus
Encoding: 177 177 118
Width: 510
VWidth: 0
Flags: HMW
LayerCount: 2
Fore
SplineSet
431 589 m 5
 371 219 l 5
 211 219 l 1
 271 589 l 1
 431 589 l 5
106 467 m 1
 556 467 l 1
 536 341 l 1
 86 341 l 1
 106 467 l 1
57 165 m 5
 507 165 l 5
 482 10 l 1
 32 10 l 1
 57 165 l 5
EndSplineSet
EndChar

StartChar: degree
Encoding: 176 176 119
Width: 400
VWidth: 0
Flags: HMW
LayerCount: 2
Fore
SplineSet
241 680 m 0
 235 641 260 610 299 610 c 0
 338 610 375 641 381 680 c 0
 387 719 361 750 322 750 c 0
 283 750 247 719 241 680 c 0
211 680 m 0
 220 735 272 780 327 780 c 0
 382 780 420 735 411 680 c 0
 402 625 349 580 294 580 c 0
 239 580 202 625 211 680 c 0
EndSplineSet
EndChar

StartChar: mu
Encoding: 181 181 120
Width: 635
VWidth: 0
Flags: HMW
LayerCount: 2
Fore
SplineSet
78 200 m 1
 130 520 l 1
 295 520 l 1
 246 220 l 1
 78 200 l 1
585 0 m 1
 420 0 l 1
 505 520 l 1
 670 520 l 1
 585 0 l 1
246 220 m 1
 236 161 293 135 333 135 c 0
 382 135 446 160 459 240 c 1
 494 240 l 1
 471 101 392 -10 233 -10 c 0
 104 -10 57 71 78 200 c 1
 246 220 l 1
106 220 m 1
 271 220 l 1
 203 -198 l 1
 38 -198 l 1
 106 220 l 1
EndSplineSet
EndChar

StartChar: uni00B2
Encoding: 178 178 121
Width: 300
VWidth: 0
Flags: HMW
LayerCount: 2
Fore
SplineSet
94 423 m 1
 104 423 l 1
 93 356 l 1
 83 356 l 1
 94 423 l 1
285 600 m 5
 288 620 283 638 251 638 c 0
 221 638 201 618 177 576 c 1
 125 617 l 1
 155 670 204 710 263 710 c 0
 333 710 373 664 363 604 c 1
 285 600 l 5
93 356 m 1
 105 428 l 1
 345 428 l 1
 333 356 l 1
 93 356 l 1
277 486 m 2
 198 423 l 1
 94 423 l 1
 207 510 l 2
 264 553 280 570 285 600 c 5
 363 604 l 1
 356 559 336 533 277 486 c 2
EndSplineSet
EndChar

StartChar: uni00B3
Encoding: 179 179 122
Width: 300
VWidth: 0
Flags: HMW
LayerCount: 2
Fore
SplineSet
217 564 m 1
 311 564 361 529 349 454 c 0
 338 384 271 350 207 350 c 0
 162 350 117 362 91 404 c 1
 148 454 l 1
 164 426 190 422 214 422 c 0
 240 422 264 440 268 464 c 4
 272 488 259 502 207 502 c 5
 217 564 l 1
144 656 m 1
 173 685 209 710 266 710 c 0
 333 710 369 670 361 620 c 0
 351 560 295 512 208 512 c 1
 219 575 l 1
 254 575 274 589 277 608 c 0
 280 627 270 638 249 638 c 0
 227 638 210 631 186 607 c 1
 144 656 l 1
EndSplineSet
EndChar

StartChar: grave
Encoding: 96 96 123
Width: 320
VWidth: 0
Flags: HMW
AnchorPoint: "dot" 200 590 basechar 0
LayerCount: 2
Fore
SplineSet
246 590 m 5
 149 730 l 5
 329 730 l 1
 386 590 l 1
 246 590 l 5
EndSplineSet
EndChar

StartChar: acute
Encoding: 180 180 124
Width: 320
VWidth: 0
Flags: HMW
AnchorPoint: "dot" 120 590 basechar 0
LayerCount: 2
Fore
SplineSet
256 590 m 1
 136 590 l 5
 239 730 l 5
 399 730 l 1
 256 590 l 1
EndSplineSet
EndChar

StartChar: uni00AD
Encoding: 173 173 125
Width: 470
VWidth: 0
Flags: HMW
LayerCount: 2
Fore
SplineSet
126 375 m 5
 466 375 l 5
 441 220 l 1
 101 220 l 1
 126 375 l 5
EndSplineSet
EndChar

StartChar: logicalnot
Encoding: 172 172 126
Width: 540
VWidth: 0
Flags: HMW
LayerCount: 2
Fore
SplineSet
142 475 m 5
 482 475 l 5
 457 320 l 1
 117 320 l 1
 142 475 l 5
482 475 m 5
 552 475 l 5
 520 275 l 1
 450 275 l 1
 482 475 l 5
EndSplineSet
EndChar

StartChar: macron
Encoding: 175 175 127
Width: 300
VWidth: 0
Flags: HMW
LayerCount: 2
Fore
SplineSet
128 800 m 1
 432 800 l 5
 419 720 l 5
 115 720 l 1
 128 800 l 1
EndSplineSet
EndChar

StartChar: periodcentered
Encoding: 183 183 128
Width: 190
VWidth: 0
Flags: HMW
LayerCount: 2
Fore
SplineSet
66 345 m 4
 75 403 130 450 188 450 c 4
 246 450 285 403 276 345 c 4
 267 287 212 240 154 240 c 4
 96 240 57 287 66 345 c 4
EndSplineSet
EndChar

StartChar: uni00B9
Encoding: 185 185 129
Width: 600
VWidth: 0
Flags: HMW
LayerCount: 2
Fore
SplineSet
468 700 m 1
 466 688 l 1
 386 688 l 1
 388 700 l 1
 468 700 l 1
388 700 m 1
 441 653 l 1
 301 563 l 1
 265 620 l 1
 388 700 l 1
382 695 m 1
 468 700 l 1
 411 350 l 1
 326 350 l 1
 382 695 l 1
EndSplineSet
EndChar

StartChar: paragraph
Encoding: 182 182 130
Width: 600
VWidth: 0
Flags: HMW
LayerCount: 2
Fore
SplineSet
559 700 m 1
 552 656 l 1
 460 656 l 1
 467 700 l 1
 559 700 l 1
639 700 m 1
 525 0 l 1
 445 0 l 1
 559 700 l 1
 639 700 l 1
489 700 m 1
 375 0 l 1
 295 0 l 1
 409 700 l 1
 489 700 l 1
337 260 m 1
 238 260 132 351 153 480 c 0
 174 609 310 700 409 700 c 1
 380 520 366 440 337 260 c 1
EndSplineSet
EndChar

StartChar: cedilla
Encoding: 184 184 131
Width: 320
VWidth: 0
Flags: HMW
AnchorPoint: "ced" 146 -1 basechar 0
LayerCount: 2
Fore
SplineSet
89 30 m 1
 129 30 l 1
 173 -4 242 -44 231 -112 c 0
 222 -169 194 -204 117 -204 c 4
 70 -204 46 -180 27 -165 c 1
 61 -95 l 1
 75 -108 93 -120 113 -120 c 0
 139 -120 151 -109 154 -89 c 0
 158 -64 130 -9 89 30 c 1
EndSplineSet
EndChar

StartChar: guillemotleft
Encoding: 171 171 132
Width: 592
VWidth: 0
Flags: HMW
LayerCount: 2
Fore
SplineSet
98 415 m 5
 349 225 l 5
 330 110 l 5
 79 300 l 5
 98 415 l 5
98 415 m 5
 411 605 l 5
 392 490 l 5
 79 300 l 5
 98 415 l 5
348 415 m 5
 599 225 l 5
 580 110 l 5
 329 300 l 5
 348 415 l 5
348 415 m 5
 661 605 l 5
 642 490 l 5
 329 300 l 5
 348 415 l 5
EndSplineSet
EndChar

StartChar: guillemotright
Encoding: 187 187 133
Width: 592
VWidth: 0
Flags: HMW
LayerCount: 2
Fore
SplineSet
611 300 m 5
 360 490 l 5
 379 605 l 5
 630 415 l 5
 611 300 l 5
611 300 m 5
 298 110 l 5
 317 225 l 5
 630 415 l 5
 611 300 l 5
361 300 m 5
 110 490 l 5
 129 605 l 5
 380 415 l 5
 361 300 l 5
361 300 m 5
 48 110 l 5
 67 225 l 5
 380 415 l 5
 361 300 l 5
EndSplineSet
EndChar

StartChar: Agrave
Encoding: 192 192 134
Width: 800
VWidth: 0
Flags: HMW
LayerCount: 2
Fore
SplineSet
434 700 m 1
 594 700 l 1
 589 670 l 5
 429 670 l 5
 434 700 l 1
218 270 m 1
 650 270 l 1
 626 125 l 1
 194 125 l 1
 218 270 l 1
610 0 m 1
 449 670 l 5
 594 700 l 1
 790 0 l 1
 610 0 l 1
434 700 m 1
 569 670 l 5
 190 0 l 1
 10 0 l 1
 434 700 l 1
433 770 m 5
 336 910 l 5
 516 910 l 1
 573 770 l 1
 433 770 l 5
EndSplineSet
EndChar

StartChar: Aacute
Encoding: 193 193 135
Width: 800
VWidth: 0
Flags: HMW
LayerCount: 2
Fore
SplineSet
434 700 m 1
 594 700 l 1
 589 670 l 5
 429 670 l 5
 434 700 l 1
218 270 m 1
 650 270 l 1
 626 125 l 1
 194 125 l 1
 218 270 l 1
610 0 m 1
 449 670 l 5
 594 700 l 1
 790 0 l 1
 610 0 l 1
434 700 m 1
 569 670 l 5
 190 0 l 1
 10 0 l 1
 434 700 l 1
563 770 m 1
 443 770 l 5
 546 910 l 5
 706 910 l 1
 563 770 l 1
EndSplineSet
EndChar

StartChar: Acircumflex
Encoding: 194 194 136
Width: 800
VWidth: 0
Flags: HMW
LayerCount: 2
Fore
SplineSet
434 700 m 1
 594 700 l 1
 589 670 l 5
 429 670 l 5
 434 700 l 1
218 270 m 1
 650 270 l 1
 626 125 l 1
 194 125 l 1
 218 270 l 1
610 0 m 1
 449 670 l 5
 594 700 l 1
 790 0 l 1
 610 0 l 1
434 700 m 1
 569 670 l 5
 190 0 l 1
 10 0 l 1
 434 700 l 1
588 770 m 1
 504 870 l 1
 594 870 l 1
 678 770 l 1
 588 770 l 1
484 870 m 5
 574 870 l 1
 458 770 l 1
 368 770 l 5
 484 870 l 5
EndSplineSet
EndChar

StartChar: Atilde
Encoding: 195 195 137
Width: 800
VWidth: 0
Flags: HMW
LayerCount: 2
Fore
SplineSet
434 700 m 1
 594 700 l 1
 589 670 l 5
 429 670 l 5
 434 700 l 1
218 270 m 1
 650 270 l 1
 626 125 l 1
 194 125 l 1
 218 270 l 1
610 0 m 1
 449 670 l 5
 594 700 l 1
 790 0 l 1
 610 0 l 1
434 700 m 1
 569 670 l 5
 190 0 l 1
 10 0 l 1
 434 700 l 1
393 770 m 5
 305 790 l 1
 322 868 389 917 440 917 c 0
 504 917 532 873 576 873 c 0
 611 873 642 883 646 910 c 1
 732 890 l 1
 713 802 641 763 591 763 c 0
 529 763 504 807 461 807 c 4
 427 807 397 797 393 770 c 5
EndSplineSet
EndChar

StartChar: Adieresis
Encoding: 196 196 138
Width: 800
VWidth: 0
Flags: HMW
LayerCount: 2
Fore
SplineSet
434 700 m 1
 594 700 l 1
 589 670 l 5
 429 670 l 5
 434 700 l 1
218 270 m 1
 650 270 l 1
 626 125 l 1
 194 125 l 1
 218 270 l 1
610 0 m 1
 449 670 l 5
 594 700 l 1
 790 0 l 1
 610 0 l 1
434 700 m 1
 569 670 l 5
 190 0 l 1
 10 0 l 1
 434 700 l 1
341 856 m 0
 349 903 394 942 441 942 c 0
 488 942 521 903 513 856 c 0
 505 809 460 770 413 770 c 0
 366 770 333 809 341 856 c 0
561 856 m 0
 569 903 614 942 661 942 c 0
 708 942 741 903 733 856 c 0
 725 809 680 770 633 770 c 0
 586 770 553 809 561 856 c 0
EndSplineSet
EndChar

StartChar: Aring
Encoding: 197 197 139
Width: 800
VWidth: 0
Flags: HMW
LayerCount: 2
Fore
SplineSet
434 700 m 1
 594 700 l 1
 589 670 l 5
 429 670 l 5
 434 700 l 1
218 270 m 1
 650 270 l 1
 626 125 l 1
 194 125 l 1
 218 270 l 1
610 0 m 1
 449 670 l 5
 594 700 l 1
 790 0 l 1
 610 0 l 1
434 700 m 1
 569 670 l 5
 190 0 l 1
 10 0 l 1
 434 700 l 1
471 760 m 0
 466 731 484 710 513 710 c 0
 542 710 566 731 571 760 c 0
 576 789 558 810 529 810 c 4
 500 810 476 789 471 760 c 0
421 760 m 0
 430 815 483 860 538 860 c 0
 593 860 630 815 621 760 c 0
 612 705 560 660 505 660 c 0
 450 660 412 705 421 760 c 0
EndSplineSet
EndChar

StartChar: Ccedilla
Encoding: 199 199 140
Width: 732
VWidth: 0
Flags: HM
LayerCount: 2
Fore
SplineSet
267 350 m 0
 248 234 312 140 448 140 c 0
 532 140 602 172 654 228 c 1
 730 113 l 1
 653 38 549 -10 423 -10 c 4
 198 -10 65 151 97 350 c 0
 129 549 316 710 541 710 c 4
 667 710 755 662 808 587 c 1
 694 472 l 1
 660 528 599 560 516 560 c 0
 380 560 286 466 267 350 c 0
405 -3 m 1
 445 -3 l 1
 489 -37 557 -77 546 -145 c 0
 537 -202 509 -237 432 -237 c 4
 385 -237 362 -213 343 -198 c 1
 376 -128 l 1
 390 -141 409 -153 429 -153 c 0
 455 -153 466 -142 469 -122 c 0
 473 -97 446 -42 405 -3 c 1
EndSplineSet
EndChar

StartChar: Egrave
Encoding: 200 200 141
Width: 670
VWidth: 0
Flags: HM
LayerCount: 2
Fore
SplineSet
131 433 m 1
 671 433 l 5
 646 283 l 5
 106 283 l 1
 131 433 l 1
174 700 m 1
 764 700 l 5
 740 550 l 5
 150 550 l 1
 174 700 l 1
86 160 m 1
 676 160 l 5
 650 0 l 5
 60 0 l 1
 86 160 l 1
174 700 m 1
 344 700 l 1
 230 0 l 1
 60 0 l 1
 174 700 l 1
410 770 m 5
 313 910 l 5
 493 910 l 1
 550 770 l 1
 410 770 l 5
EndSplineSet
EndChar

StartChar: Eacute
Encoding: 201 201 142
Width: 670
VWidth: 0
Flags: HM
LayerCount: 2
Fore
SplineSet
131 433 m 1
 671 433 l 5
 646 283 l 5
 106 283 l 1
 131 433 l 1
174 700 m 1
 764 700 l 5
 740 550 l 5
 150 550 l 1
 174 700 l 1
86 160 m 1
 676 160 l 5
 650 0 l 5
 60 0 l 1
 86 160 l 1
174 700 m 1
 344 700 l 1
 230 0 l 1
 60 0 l 1
 174 700 l 1
540 770 m 1
 420 770 l 5
 523 910 l 5
 683 910 l 1
 540 770 l 1
EndSplineSet
EndChar

StartChar: Ecircumflex
Encoding: 202 202 143
Width: 670
VWidth: 0
Flags: HM
LayerCount: 2
Fore
SplineSet
131 433 m 1
 671 433 l 5
 646 283 l 5
 106 283 l 1
 131 433 l 1
174 700 m 1
 764 700 l 5
 740 550 l 5
 150 550 l 1
 174 700 l 1
86 160 m 1
 676 160 l 5
 650 0 l 5
 60 0 l 1
 86 160 l 1
174 700 m 1
 344 700 l 1
 230 0 l 1
 60 0 l 1
 174 700 l 1
545 770 m 1
 462 870 l 1
 552 870 l 1
 635 770 l 1
 545 770 l 1
442 870 m 5
 532 870 l 1
 415 770 l 1
 325 770 l 5
 442 870 l 5
EndSplineSet
EndChar

StartChar: Edieresis
Encoding: 203 203 144
Width: 670
VWidth: 0
Flags: HM
LayerCount: 2
Fore
SplineSet
131 433 m 1
 671 433 l 5
 646 283 l 5
 106 283 l 1
 131 433 l 1
174 700 m 1
 764 700 l 5
 740 550 l 5
 150 550 l 1
 174 700 l 1
86 160 m 1
 676 160 l 5
 650 0 l 5
 60 0 l 1
 86 160 l 1
174 700 m 1
 344 700 l 1
 230 0 l 1
 60 0 l 1
 174 700 l 1
298 856 m 0
 306 903 351 942 398 942 c 0
 445 942 478 903 470 856 c 0
 462 809 417 770 370 770 c 0
 323 770 290 809 298 856 c 0
518 856 m 0
 526 903 571 942 618 942 c 0
 665 942 698 903 690 856 c 0
 682 809 637 770 590 770 c 0
 543 770 510 809 518 856 c 0
EndSplineSet
EndChar

StartChar: Igrave
Encoding: 204 204 145
Width: 300
VWidth: 0
Flags: HMW
LayerCount: 2
Fore
SplineSet
179 700 m 5
 349 700 l 1
 235 0 l 1
 65 0 l 5
 179 700 l 5
183 770 m 5
 86 910 l 5
 266 910 l 1
 323 770 l 1
 183 770 l 5
EndSplineSet
EndChar

StartChar: Iacute
Encoding: 205 205 146
Width: 300
VWidth: 0
Flags: HMW
LayerCount: 2
Fore
SplineSet
179 700 m 5
 349 700 l 1
 235 0 l 1
 65 0 l 5
 179 700 l 5
313 770 m 1
 193 770 l 5
 296 910 l 5
 456 910 l 1
 313 770 l 1
EndSplineSet
EndChar

StartChar: Icircumflex
Encoding: 206 206 147
Width: 300
VWidth: 0
Flags: HMW
LayerCount: 2
Fore
SplineSet
179 700 m 5
 349 700 l 1
 235 0 l 1
 65 0 l 5
 179 700 l 5
318 770 m 1
 234 870 l 1
 324 870 l 1
 408 770 l 1
 318 770 l 1
214 870 m 5
 304 870 l 1
 188 770 l 1
 98 770 l 5
 214 870 l 5
EndSplineSet
EndChar

StartChar: Idieresis
Encoding: 207 207 148
Width: 300
VWidth: 0
Flags: HMW
LayerCount: 2
Fore
SplineSet
179 700 m 5
 349 700 l 1
 235 0 l 1
 65 0 l 5
 179 700 l 5
71 856 m 0
 79 903 124 942 171 942 c 0
 218 942 251 903 243 856 c 0
 235 809 190 770 143 770 c 0
 96 770 63 809 71 856 c 0
291 856 m 0
 299 903 344 942 391 942 c 0
 438 942 471 903 463 856 c 0
 455 809 410 770 363 770 c 0
 316 770 283 809 291 856 c 0
EndSplineSet
EndChar

StartChar: Ntilde
Encoding: 209 209 149
Width: 790
VWidth: 0
Flags: HMW
LayerCount: 2
Fore
SplineSet
730 0 m 1
 570 0 l 1
 574 24 l 1
 732 14 l 1
 730 0 l 1
334 700 m 1
 331 680 l 1
 171 680 l 1
 174 700 l 1
 334 700 l 1
172 625 m 5
 334 700 l 1
 732 75 l 1
 570 0 l 1
 172 625 l 5
674 700 m 1
 844 700 l 1
 730 0 l 1
 563 20 l 1
 674 700 l 1
174 700 m 1
 341 680 l 1
 230 0 l 1
 60 0 l 1
 174 700 l 1
385 770 m 5
 298 790 l 1
 315 868 382 917 433 917 c 0
 497 917 525 873 569 873 c 0
 604 873 634 883 638 910 c 1
 725 890 l 1
 706 802 633 763 583 763 c 0
 521 763 497 807 454 807 c 4
 420 807 389 797 385 770 c 5
EndSplineSet
EndChar

StartChar: Ograve
Encoding: 210 210 150
Width: 850
VWidth: 0
Flags: HM
LayerCount: 2
Fore
SplineSet
277 350 m 4
 258 234 325 140 448 140 c 4
 571 140 668 234 687 350 c 4
 706 466 639 560 516 560 c 4
 393 560 296 466 277 350 c 4
107 350 m 4
 139 549 326 710 541 710 c 4
 756 710 889 549 857 350 c 4
 825 151 638 -10 423 -10 c 4
 208 -10 75 151 107 350 c 4
480 770 m 5
 383 910 l 5
 563 910 l 1
 620 770 l 1
 480 770 l 5
EndSplineSet
EndChar

StartChar: Oacute
Encoding: 211 211 151
Width: 850
VWidth: 0
Flags: HM
LayerCount: 2
Fore
SplineSet
277 350 m 4
 258 234 325 140 448 140 c 4
 571 140 668 234 687 350 c 4
 706 466 639 560 516 560 c 4
 393 560 296 466 277 350 c 4
107 350 m 4
 139 549 326 710 541 710 c 4
 756 710 889 549 857 350 c 4
 825 151 638 -10 423 -10 c 4
 208 -10 75 151 107 350 c 4
610 770 m 1
 490 770 l 5
 593 910 l 5
 753 910 l 1
 610 770 l 1
EndSplineSet
EndChar

StartChar: Ocircumflex
Encoding: 212 212 152
Width: 850
VWidth: 0
Flags: HM
LayerCount: 2
Fore
SplineSet
277 350 m 4
 258 234 325 140 448 140 c 4
 571 140 668 234 687 350 c 4
 706 466 639 560 516 560 c 4
 393 560 296 466 277 350 c 4
107 350 m 4
 139 549 326 710 541 710 c 4
 756 710 889 549 857 350 c 4
 825 151 638 -10 423 -10 c 4
 208 -10 75 151 107 350 c 4
615 770 m 1
 532 870 l 1
 622 870 l 1
 705 770 l 1
 615 770 l 1
512 870 m 5
 602 870 l 1
 485 770 l 1
 395 770 l 5
 512 870 l 5
EndSplineSet
EndChar

StartChar: Otilde
Encoding: 213 213 153
Width: 850
VWidth: 0
Flags: HM
LayerCount: 2
Fore
SplineSet
277 350 m 4
 258 234 325 140 448 140 c 4
 571 140 668 234 687 350 c 4
 706 466 639 560 516 560 c 4
 393 560 296 466 277 350 c 4
107 350 m 4
 139 549 326 710 541 710 c 4
 756 710 889 549 857 350 c 4
 825 151 638 -10 423 -10 c 4
 208 -10 75 151 107 350 c 4
440 770 m 5
 353 790 l 1
 370 868 437 917 488 917 c 0
 552 917 580 873 624 873 c 0
 659 873 689 883 693 910 c 1
 780 890 l 1
 761 802 688 763 638 763 c 0
 576 763 552 807 509 807 c 4
 475 807 444 797 440 770 c 5
EndSplineSet
EndChar

StartChar: Odieresis
Encoding: 214 214 154
Width: 850
VWidth: 0
Flags: HM
LayerCount: 2
Fore
SplineSet
277 350 m 4
 258 234 325 140 448 140 c 4
 571 140 668 234 687 350 c 4
 706 466 639 560 516 560 c 4
 393 560 296 466 277 350 c 4
107 350 m 4
 139 549 326 710 541 710 c 4
 756 710 889 549 857 350 c 4
 825 151 638 -10 423 -10 c 4
 208 -10 75 151 107 350 c 4
368 856 m 0
 376 903 421 942 468 942 c 0
 515 942 548 903 540 856 c 0
 532 809 487 770 440 770 c 0
 393 770 360 809 368 856 c 0
588 856 m 0
 596 903 641 942 688 942 c 0
 735 942 768 903 760 856 c 0
 752 809 707 770 660 770 c 0
 613 770 580 809 588 856 c 0
EndSplineSet
EndChar

StartChar: Ugrave
Encoding: 217 217 155
Width: 760
VWidth: 0
Flags: HMW
LayerCount: 2
Fore
SplineSet
594 300 m 5
 659 700 l 5
 824 700 l 5
 756 280 l 5
 594 300 l 5
96 280 m 1
 164 700 l 1
 329 700 l 1
 264 300 l 1
 96 280 l 1
594 300 m 5
 756 280 l 5
 728 111 557 -10 378 -10 c 0
 199 -10 68 111 96 280 c 1
 264 300 l 1
 250 211 318 155 405 155 c 0
 492 155 580 211 594 300 c 5
415 770 m 5
 318 910 l 5
 498 910 l 1
 555 770 l 1
 415 770 l 5
EndSplineSet
EndChar

StartChar: Uacute
Encoding: 218 218 156
Width: 760
VWidth: 0
Flags: HMW
LayerCount: 2
Fore
SplineSet
594 300 m 5
 659 700 l 5
 824 700 l 5
 756 280 l 5
 594 300 l 5
96 280 m 1
 164 700 l 1
 329 700 l 1
 264 300 l 1
 96 280 l 1
594 300 m 5
 756 280 l 5
 728 111 557 -10 378 -10 c 0
 199 -10 68 111 96 280 c 1
 264 300 l 1
 250 211 318 155 405 155 c 0
 492 155 580 211 594 300 c 5
545 770 m 1
 425 770 l 5
 528 910 l 5
 688 910 l 1
 545 770 l 1
EndSplineSet
EndChar

StartChar: Ucircumflex
Encoding: 219 219 157
Width: 760
VWidth: 0
Flags: HMW
LayerCount: 2
Fore
SplineSet
594 300 m 5
 659 700 l 5
 824 700 l 5
 756 280 l 5
 594 300 l 5
96 280 m 1
 164 700 l 1
 329 700 l 1
 264 300 l 1
 96 280 l 1
594 300 m 5
 756 280 l 5
 728 111 557 -10 378 -10 c 0
 199 -10 68 111 96 280 c 1
 264 300 l 1
 250 211 318 155 405 155 c 0
 492 155 580 211 594 300 c 5
550 770 m 1
 467 870 l 1
 557 870 l 1
 640 770 l 1
 550 770 l 1
447 870 m 5
 537 870 l 1
 420 770 l 1
 330 770 l 5
 447 870 l 5
EndSplineSet
EndChar

StartChar: Udieresis
Encoding: 220 220 158
Width: 760
VWidth: 0
Flags: HMW
LayerCount: 2
Fore
SplineSet
594 300 m 5
 659 700 l 5
 824 700 l 5
 756 280 l 5
 594 300 l 5
96 280 m 1
 164 700 l 1
 329 700 l 1
 264 300 l 1
 96 280 l 1
594 300 m 5
 756 280 l 5
 728 111 557 -10 378 -10 c 0
 199 -10 68 111 96 280 c 1
 264 300 l 1
 250 211 318 155 405 155 c 0
 492 155 580 211 594 300 c 5
303 856 m 0
 311 903 356 942 403 942 c 0
 450 942 483 903 475 856 c 0
 467 809 422 770 375 770 c 0
 328 770 295 809 303 856 c 0
523 856 m 0
 531 903 576 942 623 942 c 0
 670 942 703 903 695 856 c 0
 687 809 642 770 595 770 c 0
 548 770 515 809 523 856 c 0
EndSplineSet
EndChar

StartChar: Yacute
Encoding: 221 221 159
Width: 680
VWidth: 0
Flags: HMW
LayerCount: 2
Fore
SplineSet
303 295 m 1
 473 295 l 1
 425 0 l 1
 255 0 l 1
 303 295 l 1
124 700 m 1
 304 700 l 1
 473 295 l 1
 330 217 l 1
 124 700 l 1
604 700 m 1
 784 700 l 1
 420 217 l 1
 303 295 l 1
 604 700 l 1
503 770 m 1
 383 770 l 5
 486 910 l 5
 646 910 l 1
 503 770 l 1
EndSplineSet
EndChar

StartChar: agrave
Encoding: 224 224 160
Width: 580
VWidth: 0
Flags: HMW
LayerCount: 2
Fore
SplineSet
379 302 m 1
 469 302 l 1
 456 218 l 1
 396 218 l 1
 379 302 l 1
420 310 m 1
 429 365 393 395 332 395 c 1
 370 530 l 1
 513 530 609 454 589 330 c 1
 420 310 l 1
332 395 m 1
 258 395 227 369 192 342 c 1
 123 450 l 1
 188 499 258 530 370 530 c 1
 332 395 l 1
420 310 m 1
 589 330 l 1
 535 0 l 1
 370 0 l 1
 420 310 l 1
224 157 m 1
 218 123 244 105 277 105 c 0
 335 105 390 120 403 200 c 1
 434 180 l 1
 416 71 327 -10 198 -10 c 4
 99 -10 29 41 47 150 c 1
 224 157 l 1
379 302 m 1
 396 218 l 1
 287 218 231 202 224 157 c 1
 47 150 l 1
 69 285 192 302 379 302 c 1
310 590 m 5
 213 730 l 5
 393 730 l 1
 450 590 l 1
 310 590 l 5
EndSplineSet
EndChar

StartChar: aacute
Encoding: 225 225 161
Width: 580
VWidth: 0
Flags: HMW
LayerCount: 2
Fore
SplineSet
379 302 m 1
 469 302 l 1
 456 218 l 1
 396 218 l 1
 379 302 l 1
420 310 m 1
 429 365 393 395 332 395 c 1
 370 530 l 1
 513 530 609 454 589 330 c 1
 420 310 l 1
332 395 m 1
 258 395 227 369 192 342 c 1
 123 450 l 1
 188 499 258 530 370 530 c 1
 332 395 l 1
420 310 m 1
 589 330 l 1
 535 0 l 1
 370 0 l 1
 420 310 l 1
224 157 m 1
 218 123 244 105 277 105 c 0
 335 105 390 120 403 200 c 1
 434 180 l 1
 416 71 327 -10 198 -10 c 4
 99 -10 29 41 47 150 c 1
 224 157 l 1
379 302 m 1
 396 218 l 1
 287 218 231 202 224 157 c 1
 47 150 l 1
 69 285 192 302 379 302 c 1
440 590 m 1
 320 590 l 5
 423 730 l 5
 583 730 l 1
 440 590 l 1
EndSplineSet
EndChar

StartChar: acircumflex
Encoding: 226 226 162
Width: 580
VWidth: 0
Flags: HMW
LayerCount: 2
Fore
SplineSet
379 302 m 1
 469 302 l 1
 456 218 l 1
 396 218 l 1
 379 302 l 1
420 310 m 1
 429 365 393 395 332 395 c 1
 370 530 l 1
 513 530 609 454 589 330 c 1
 420 310 l 1
332 395 m 1
 258 395 227 369 192 342 c 1
 123 450 l 1
 188 499 258 530 370 530 c 1
 332 395 l 1
420 310 m 1
 589 330 l 1
 535 0 l 1
 370 0 l 1
 420 310 l 1
224 157 m 1
 218 123 244 105 277 105 c 0
 335 105 390 120 403 200 c 1
 434 180 l 1
 416 71 327 -10 198 -10 c 4
 99 -10 29 41 47 150 c 1
 224 157 l 1
379 302 m 1
 396 218 l 1
 287 218 231 202 224 157 c 1
 47 150 l 1
 69 285 192 302 379 302 c 1
445 590 m 1
 361 690 l 1
 451 690 l 1
 535 590 l 1
 445 590 l 1
341 690 m 5
 431 690 l 1
 315 590 l 1
 225 590 l 5
 341 690 l 5
EndSplineSet
EndChar

StartChar: atilde
Encoding: 227 227 163
Width: 580
VWidth: 0
Flags: HMW
LayerCount: 2
Fore
SplineSet
379 302 m 1
 469 302 l 1
 456 218 l 1
 396 218 l 1
 379 302 l 1
420 310 m 1
 429 365 393 395 332 395 c 1
 370 530 l 1
 513 530 609 454 589 330 c 1
 420 310 l 1
332 395 m 1
 258 395 227 369 192 342 c 1
 123 450 l 1
 188 499 258 530 370 530 c 1
 332 395 l 1
420 310 m 1
 589 330 l 1
 535 0 l 1
 370 0 l 1
 420 310 l 1
224 157 m 1
 218 123 244 105 277 105 c 0
 335 105 390 120 403 200 c 1
 434 180 l 1
 416 71 327 -10 198 -10 c 4
 99 -10 29 41 47 150 c 1
 224 157 l 1
379 302 m 1
 396 218 l 1
 287 218 231 202 224 157 c 1
 47 150 l 1
 69 285 192 302 379 302 c 1
270 590 m 5
 182 610 l 1
 199 688 266 737 317 737 c 0
 381 737 409 693 453 693 c 0
 488 693 519 703 523 730 c 1
 610 710 l 1
 591 622 518 583 468 583 c 0
 406 583 381 627 338 627 c 4
 304 627 274 617 270 590 c 5
EndSplineSet
EndChar

StartChar: adieresis
Encoding: 228 228 164
Width: 580
VWidth: 0
Flags: HMW
LayerCount: 2
Fore
SplineSet
379 302 m 1
 469 302 l 1
 456 218 l 1
 396 218 l 1
 379 302 l 1
420 310 m 1
 429 365 393 395 332 395 c 1
 370 530 l 1
 513 530 609 454 589 330 c 1
 420 310 l 1
332 395 m 1
 258 395 227 369 192 342 c 1
 123 450 l 1
 188 499 258 530 370 530 c 1
 332 395 l 1
420 310 m 1
 589 330 l 1
 535 0 l 1
 370 0 l 1
 420 310 l 1
224 157 m 1
 218 123 244 105 277 105 c 0
 335 105 390 120 403 200 c 1
 434 180 l 1
 416 71 327 -10 198 -10 c 4
 99 -10 29 41 47 150 c 1
 224 157 l 1
379 302 m 1
 396 218 l 1
 287 218 231 202 224 157 c 1
 47 150 l 1
 69 285 192 302 379 302 c 1
198 676 m 0
 206 723 251 762 298 762 c 0
 345 762 378 723 370 676 c 0
 362 629 317 590 270 590 c 0
 223 590 190 629 198 676 c 0
418 676 m 0
 426 723 471 762 518 762 c 0
 565 762 598 723 590 676 c 0
 582 629 537 590 490 590 c 0
 443 590 410 629 418 676 c 0
EndSplineSet
EndChar

StartChar: aring
Encoding: 229 229 165
Width: 580
VWidth: 0
Flags: HMW
LayerCount: 2
Fore
SplineSet
379 302 m 1
 469 302 l 1
 456 218 l 1
 396 218 l 1
 379 302 l 1
420 310 m 1
 429 365 393 395 332 395 c 1
 370 530 l 1
 513 530 609 454 589 330 c 1
 420 310 l 1
332 395 m 1
 258 395 227 369 192 342 c 1
 123 450 l 1
 188 499 258 530 370 530 c 1
 332 395 l 1
420 310 m 1
 589 330 l 1
 535 0 l 1
 370 0 l 1
 420 310 l 1
224 157 m 1
 218 123 244 105 277 105 c 0
 335 105 390 120 403 200 c 1
 434 180 l 1
 416 71 327 -10 198 -10 c 4
 99 -10 29 41 47 150 c 1
 224 157 l 1
379 302 m 1
 396 218 l 1
 287 218 231 202 224 157 c 1
 47 150 l 1
 69 285 192 302 379 302 c 1
346 690 m 0
 341 661 359 640 388 640 c 0
 417 640 441 661 446 690 c 0
 451 719 434 740 405 740 c 4
 376 740 351 719 346 690 c 0
296 690 m 0
 305 745 358 790 413 790 c 0
 468 790 505 745 496 690 c 0
 487 635 435 590 380 590 c 0
 325 590 287 635 296 690 c 0
EndSplineSet
EndChar

StartChar: ccedilla
Encoding: 231 231 166
Width: 573
VWidth: 0
Flags: HM
LayerCount: 2
Fore
SplineSet
247 260 m 0
 237 196 271 140 348 140 c 4
 407 140 443 160 478 200 c 1
 568 92 l 1
 511 28 420 -10 323 -10 c 0
 156 -10 58 111 82 260 c 0
 106 409 244 530 411 530 c 0
 508 530 585 491 622 428 c 1
 497 320 l 5
 476 360 446 380 387 380 c 4
 310 380 258 326 247 260 c 0
305 -3 m 1
 345 -3 l 1
 389 -37 457 -77 446 -145 c 0
 437 -202 409 -237 332 -237 c 4
 285 -237 262 -213 243 -198 c 1
 276 -128 l 1
 290 -141 309 -153 329 -153 c 0
 355 -153 366 -142 369 -122 c 0
 373 -97 346 -42 305 -3 c 1
EndSplineSet
EndChar

StartChar: egrave
Encoding: 232 232 167
Width: 615
VWidth: 0
Flags: HMW
LayerCount: 2
Fore
SplineSet
622 260 m 1
 616 220 l 1
 451 220 l 1
 457 260 l 1
 622 260 l 1
451 220 m 1
 145 220 l 1
 161 317 l 1
 467 317 l 1
 451 220 l 1
457 260 m 1
 474 364 446 403 379 403 c 0
 312 403 254 364 237 260 c 1
 72 260 l 1
 98 419 227 530 406 530 c 0
 565 530 648 419 622 260 c 1
 457 260 l 1
72 260 m 1
 237 260 l 1
 225 186 291 125 342 125 c 0
 386 125 428 146 462 177 c 1
 568 92 l 1
 511 28 405 -10 318 -10 c 0
 159 -10 46 101 72 260 c 1
331 590 m 5
 234 730 l 5
 414 730 l 1
 471 590 l 1
 331 590 l 5
EndSplineSet
EndChar

StartChar: eacute
Encoding: 233 233 168
Width: 615
VWidth: 0
Flags: HMW
LayerCount: 2
Fore
SplineSet
622 260 m 1
 616 220 l 1
 451 220 l 1
 457 260 l 1
 622 260 l 1
451 220 m 1
 145 220 l 1
 161 317 l 1
 467 317 l 1
 451 220 l 1
457 260 m 1
 474 364 446 403 379 403 c 0
 312 403 254 364 237 260 c 1
 72 260 l 1
 98 419 227 530 406 530 c 0
 565 530 648 419 622 260 c 1
 457 260 l 1
72 260 m 1
 237 260 l 1
 225 186 291 125 342 125 c 0
 386 125 428 146 462 177 c 1
 568 92 l 1
 511 28 405 -10 318 -10 c 0
 159 -10 46 101 72 260 c 1
461 590 m 1
 341 590 l 5
 444 730 l 5
 604 730 l 1
 461 590 l 1
EndSplineSet
EndChar

StartChar: ecircumflex
Encoding: 234 234 169
Width: 615
VWidth: 0
Flags: HMW
LayerCount: 2
Fore
SplineSet
622 260 m 1
 616 220 l 1
 451 220 l 1
 457 260 l 1
 622 260 l 1
451 220 m 1
 145 220 l 1
 161 317 l 1
 467 317 l 1
 451 220 l 1
457 260 m 1
 474 364 446 403 379 403 c 0
 312 403 254 364 237 260 c 1
 72 260 l 1
 98 419 227 530 406 530 c 0
 565 530 648 419 622 260 c 1
 457 260 l 1
72 260 m 1
 237 260 l 1
 225 186 291 125 342 125 c 0
 386 125 428 146 462 177 c 1
 568 92 l 1
 511 28 405 -10 318 -10 c 0
 159 -10 46 101 72 260 c 1
466 590 m 1
 382 690 l 1
 472 690 l 1
 556 590 l 1
 466 590 l 1
362 690 m 5
 452 690 l 1
 336 590 l 1
 246 590 l 5
 362 690 l 5
EndSplineSet
EndChar

StartChar: edieresis
Encoding: 235 235 170
Width: 615
VWidth: 0
Flags: HMW
LayerCount: 2
Fore
SplineSet
622 260 m 1
 616 220 l 1
 451 220 l 1
 457 260 l 1
 622 260 l 1
451 220 m 1
 145 220 l 1
 161 317 l 1
 467 317 l 1
 451 220 l 1
457 260 m 1
 474 364 446 403 379 403 c 0
 312 403 254 364 237 260 c 1
 72 260 l 1
 98 419 227 530 406 530 c 0
 565 530 648 419 622 260 c 1
 457 260 l 1
72 260 m 1
 237 260 l 1
 225 186 291 125 342 125 c 0
 386 125 428 146 462 177 c 1
 568 92 l 1
 511 28 405 -10 318 -10 c 0
 159 -10 46 101 72 260 c 1
219 676 m 0
 227 723 272 762 319 762 c 0
 366 762 399 723 391 676 c 0
 383 629 338 590 291 590 c 0
 244 590 211 629 219 676 c 0
439 676 m 0
 447 723 492 762 539 762 c 0
 586 762 619 723 611 676 c 0
 603 629 558 590 511 590 c 0
 464 590 431 629 439 676 c 0
EndSplineSet
EndChar

StartChar: igrave
Encoding: 236 236 171
Width: 270
VWidth: 0
Flags: HMW
LayerCount: 2
Fore
SplineSet
140 520 m 5
 300 520 l 1
 215 0 l 1
 55 0 l 5
 140 520 l 5
151 590 m 5
 54 730 l 5
 234 730 l 1
 291 590 l 1
 151 590 l 5
EndSplineSet
EndChar

StartChar: iacute
Encoding: 237 237 172
Width: 270
VWidth: 0
Flags: HMW
LayerCount: 2
Fore
SplineSet
140 520 m 5
 300 520 l 1
 215 0 l 1
 55 0 l 5
 140 520 l 5
281 590 m 1
 161 590 l 5
 264 730 l 5
 424 730 l 1
 281 590 l 1
EndSplineSet
EndChar

StartChar: icircumflex
Encoding: 238 238 173
Width: 270
VWidth: 0
Flags: HMW
LayerCount: 2
Fore
SplineSet
140 520 m 5
 300 520 l 1
 215 0 l 1
 55 0 l 5
 140 520 l 5
286 590 m 1
 202 690 l 1
 292 690 l 1
 376 590 l 1
 286 590 l 1
182 690 m 5
 272 690 l 1
 156 590 l 1
 66 590 l 5
 182 690 l 5
EndSplineSet
EndChar

StartChar: idieresis
Encoding: 239 239 174
Width: 270
VWidth: 0
Flags: HMW
LayerCount: 2
Fore
SplineSet
140 520 m 5
 300 520 l 1
 215 0 l 1
 55 0 l 5
 140 520 l 5
39 676 m 0
 47 723 92 762 139 762 c 0
 186 762 219 723 211 676 c 0
 203 629 158 590 111 590 c 0
 64 590 31 629 39 676 c 0
259 676 m 0
 267 723 312 762 359 762 c 0
 406 762 439 723 431 676 c 0
 423 629 378 590 331 590 c 0
 284 590 251 629 259 676 c 0
EndSplineSet
EndChar

StartChar: ntilde
Encoding: 241 241 175
Width: 635
VWidth: 0
Flags: HMW
LayerCount: 2
Fore
SplineSet
642 320 m 5
 590 0 l 5
 425 0 l 5
 474 300 l 5
 642 320 l 5
135 520 m 5
 300 520 l 5
 215 0 l 5
 50 0 l 5
 135 520 l 5
474 300 m 5
 484 359 427 385 387 385 c 4
 338 385 274 360 261 280 c 5
 226 280 l 5
 249 419 327 530 486 530 c 4
 615 530 663 449 642 320 c 5
 474 300 l 5
304 590 m 5
 216 610 l 1
 233 688 300 737 351 737 c 0
 415 737 443 693 487 693 c 0
 522 693 552 703 556 730 c 1
 643 710 l 1
 624 622 551 583 501 583 c 0
 439 583 415 627 372 627 c 4
 338 627 308 617 304 590 c 5
EndSplineSet
EndChar

StartChar: ograve
Encoding: 242 242 176
Width: 650
VWidth: 0
Flags: HMW
LayerCount: 2
Fore
SplineSet
247 260 m 0
 236 190 278 135 347 135 c 4
 416 135 476 190 487 260 c 0
 498 330 457 385 388 385 c 0
 319 385 258 330 247 260 c 0
82 260 m 0
 106 409 242 530 411 530 c 0
 580 530 676 409 652 260 c 0
 628 111 492 -10 323 -10 c 0
 154 -10 58 111 82 260 c 0
351 590 m 5
 254 730 l 5
 434 730 l 1
 491 590 l 1
 351 590 l 5
EndSplineSet
EndChar

StartChar: oacute
Encoding: 243 243 177
Width: 650
VWidth: 0
Flags: HMW
LayerCount: 2
Fore
SplineSet
247 260 m 0
 236 190 278 135 347 135 c 4
 416 135 476 190 487 260 c 0
 498 330 457 385 388 385 c 0
 319 385 258 330 247 260 c 0
82 260 m 0
 106 409 242 530 411 530 c 0
 580 530 676 409 652 260 c 0
 628 111 492 -10 323 -10 c 0
 154 -10 58 111 82 260 c 0
481 590 m 1
 361 590 l 5
 464 730 l 5
 624 730 l 1
 481 590 l 1
EndSplineSet
EndChar

StartChar: ocircumflex
Encoding: 244 244 178
Width: 650
VWidth: 0
Flags: HMW
LayerCount: 2
Fore
SplineSet
247 260 m 0
 236 190 278 135 347 135 c 4
 416 135 476 190 487 260 c 0
 498 330 457 385 388 385 c 0
 319 385 258 330 247 260 c 0
82 260 m 0
 106 409 242 530 411 530 c 0
 580 530 676 409 652 260 c 0
 628 111 492 -10 323 -10 c 0
 154 -10 58 111 82 260 c 0
486 590 m 1
 402 690 l 1
 492 690 l 1
 576 590 l 1
 486 590 l 1
382 690 m 5
 472 690 l 1
 356 590 l 1
 266 590 l 5
 382 690 l 5
EndSplineSet
EndChar

StartChar: otilde
Encoding: 245 245 179
Width: 650
VWidth: 0
Flags: HMW
LayerCount: 2
Fore
SplineSet
247 260 m 0
 236 190 278 135 347 135 c 4
 416 135 476 190 487 260 c 0
 498 330 457 385 388 385 c 0
 319 385 258 330 247 260 c 0
82 260 m 0
 106 409 242 530 411 530 c 0
 580 530 676 409 652 260 c 0
 628 111 492 -10 323 -10 c 0
 154 -10 58 111 82 260 c 0
311 590 m 5
 223 610 l 1
 240 688 307 737 358 737 c 0
 422 737 450 693 494 693 c 0
 529 693 560 703 564 730 c 1
 651 710 l 1
 632 622 559 583 509 583 c 0
 447 583 422 627 379 627 c 4
 345 627 315 617 311 590 c 5
EndSplineSet
EndChar

StartChar: odieresis
Encoding: 246 246 180
Width: 650
VWidth: 0
Flags: HMW
LayerCount: 2
Fore
SplineSet
247 260 m 0
 236 190 278 135 347 135 c 4
 416 135 476 190 487 260 c 0
 498 330 457 385 388 385 c 0
 319 385 258 330 247 260 c 0
82 260 m 0
 106 409 242 530 411 530 c 0
 580 530 676 409 652 260 c 0
 628 111 492 -10 323 -10 c 0
 154 -10 58 111 82 260 c 0
239 676 m 0
 247 723 292 762 339 762 c 0
 386 762 419 723 411 676 c 0
 403 629 358 590 311 590 c 0
 264 590 231 629 239 676 c 0
459 676 m 0
 467 723 512 762 559 762 c 0
 606 762 639 723 631 676 c 0
 623 629 578 590 531 590 c 0
 484 590 451 629 459 676 c 0
EndSplineSet
EndChar

StartChar: ugrave
Encoding: 249 249 181
Width: 635
VWidth: 0
Flags: HMW
LayerCount: 2
Fore
SplineSet
78 200 m 1
 130 520 l 1
 295 520 l 1
 246 220 l 1
 78 200 l 1
585 0 m 1
 420 0 l 1
 505 520 l 1
 670 520 l 1
 585 0 l 1
246 220 m 1
 236 161 293 135 333 135 c 0
 382 135 446 160 459 240 c 1
 494 240 l 1
 471 101 392 -10 233 -10 c 0
 104 -10 57 71 78 200 c 1
 246 220 l 1
339 590 m 5
 241 730 l 5
 421 730 l 1
 479 590 l 1
 339 590 l 5
EndSplineSet
EndChar

StartChar: uacute
Encoding: 250 250 182
Width: 635
VWidth: 0
Flags: HMW
LayerCount: 2
Fore
SplineSet
78 200 m 1
 130 520 l 1
 295 520 l 1
 246 220 l 1
 78 200 l 1
585 0 m 1
 420 0 l 1
 505 520 l 1
 670 520 l 1
 585 0 l 1
246 220 m 1
 236 161 293 135 333 135 c 0
 382 135 446 160 459 240 c 1
 494 240 l 1
 471 101 392 -10 233 -10 c 0
 104 -10 57 71 78 200 c 1
 246 220 l 1
469 590 m 1
 349 590 l 5
 451 730 l 5
 611 730 l 1
 469 590 l 1
EndSplineSet
EndChar

StartChar: ucircumflex
Encoding: 251 251 183
Width: 635
VWidth: 0
Flags: HMW
LayerCount: 2
Fore
SplineSet
78 200 m 1
 130 520 l 1
 295 520 l 1
 246 220 l 1
 78 200 l 1
585 0 m 1
 420 0 l 1
 505 520 l 1
 670 520 l 1
 585 0 l 1
246 220 m 1
 236 161 293 135 333 135 c 0
 382 135 446 160 459 240 c 1
 494 240 l 1
 471 101 392 -10 233 -10 c 0
 104 -10 57 71 78 200 c 1
 246 220 l 1
474 590 m 1
 390 690 l 1
 480 690 l 1
 564 590 l 1
 474 590 l 1
370 690 m 5
 460 690 l 1
 344 590 l 1
 254 590 l 5
 370 690 l 5
EndSplineSet
EndChar

StartChar: udieresis
Encoding: 252 252 184
Width: 635
VWidth: 0
Flags: HMW
LayerCount: 2
Fore
SplineSet
78 200 m 1
 130 520 l 1
 295 520 l 1
 246 220 l 1
 78 200 l 1
585 0 m 1
 420 0 l 1
 505 520 l 1
 670 520 l 1
 585 0 l 1
246 220 m 1
 236 161 293 135 333 135 c 0
 382 135 446 160 459 240 c 1
 494 240 l 1
 471 101 392 -10 233 -10 c 0
 104 -10 57 71 78 200 c 1
 246 220 l 1
227 676 m 0
 235 723 280 762 327 762 c 0
 374 762 407 723 399 676 c 0
 391 629 346 590 299 590 c 0
 252 590 219 629 227 676 c 0
447 676 m 0
 455 723 500 762 547 762 c 0
 594 762 627 723 619 676 c 0
 611 629 566 590 519 590 c 0
 472 590 439 629 447 676 c 0
EndSplineSet
EndChar

StartChar: yacute
Encoding: 253 253 185
Width: 579
VWidth: 0
Flags: HMW
LayerCount: 2
Fore
SplineSet
94 520 m 1
 264 520 l 1
 368 25 l 1
 251 -40 l 5
 94 520 l 1
141 -75 m 1
 154 -210 l 1
 97 -210 32 -184 11 -150 c 1
 80 -42 l 1
 94 -61 112 -75 141 -75 c 1
243 -5 m 2
 484 520 l 1
 649 520 l 1
 369 -60 l 2
 323 -156 243 -210 154 -210 c 1
 141 -75 l 1
 168 -75 219 -52 243 -5 c 2
435 590 m 1
 315 590 l 5
 418 730 l 5
 578 730 l 1
 435 590 l 1
EndSplineSet
EndChar

StartChar: ydieresis
Encoding: 255 255 186
Width: 579
VWidth: 0
Flags: HMW
LayerCount: 2
Fore
SplineSet
94 520 m 1
 264 520 l 1
 368 25 l 1
 251 -40 l 5
 94 520 l 1
141 -75 m 1
 154 -210 l 1
 97 -210 32 -184 11 -150 c 1
 80 -42 l 1
 94 -61 112 -75 141 -75 c 1
243 -5 m 2
 484 520 l 1
 649 520 l 1
 369 -60 l 2
 323 -156 243 -210 154 -210 c 1
 141 -75 l 1
 168 -75 219 -52 243 -5 c 2
193 676 m 0
 201 723 246 762 293 762 c 0
 340 762 373 723 365 676 c 0
 357 629 312 590 265 590 c 0
 218 590 185 629 193 676 c 0
413 676 m 0
 421 723 466 762 513 762 c 0
 560 762 593 723 585 676 c 0
 577 629 532 590 485 590 c 0
 438 590 405 629 413 676 c 0
EndSplineSet
EndChar

StartChar: Amacron
Encoding: 256 256 187
Width: 800
VWidth: 0
Flags: HMW
LayerCount: 2
Fore
SplineSet
434 700 m 1
 594 700 l 1
 589 670 l 5
 429 670 l 5
 434 700 l 1
218 270 m 1
 650 270 l 1
 626 125 l 1
 194 125 l 1
 218 270 l 1
610 0 m 1
 449 670 l 5
 594 700 l 1
 790 0 l 1
 610 0 l 1
434 700 m 1
 569 670 l 5
 190 0 l 1
 10 0 l 1
 434 700 l 1
364 850 m 1
 668 850 l 5
 655 770 l 5
 351 770 l 1
 364 850 l 1
EndSplineSet
EndChar

StartChar: amacron
Encoding: 257 257 188
Width: 580
VWidth: 0
Flags: HMW
LayerCount: 2
Fore
SplineSet
379 302 m 1
 469 302 l 1
 456 218 l 1
 396 218 l 1
 379 302 l 1
420 310 m 1
 429 365 393 395 332 395 c 1
 370 530 l 1
 513 530 609 454 589 330 c 1
 420 310 l 1
332 395 m 1
 258 395 227 369 192 342 c 1
 123 450 l 1
 188 499 258 530 370 530 c 1
 332 395 l 1
420 310 m 1
 589 330 l 1
 535 0 l 1
 370 0 l 1
 420 310 l 1
224 157 m 1
 218 123 244 105 277 105 c 0
 335 105 390 120 403 200 c 1
 434 180 l 1
 416 71 327 -10 198 -10 c 4
 99 -10 29 41 47 150 c 1
 224 157 l 1
379 302 m 1
 396 218 l 1
 287 218 231 202 224 157 c 1
 47 150 l 1
 69 285 192 302 379 302 c 1
241 670 m 1
 545 670 l 5
 532 590 l 5
 228 590 l 1
 241 670 l 1
EndSplineSet
EndChar

StartChar: Abreve
Encoding: 258 258 189
Width: 800
VWidth: 0
Flags: HMW
LayerCount: 2
Fore
SplineSet
434 700 m 1
 594 700 l 1
 589 670 l 5
 429 670 l 5
 434 700 l 1
218 270 m 1
 650 270 l 1
 626 125 l 1
 194 125 l 1
 218 270 l 1
610 0 m 1
 449 670 l 5
 594 700 l 1
 790 0 l 1
 610 0 l 1
434 700 m 1
 569 670 l 5
 190 0 l 1
 10 0 l 1
 434 700 l 1
519 870 m 1
 479 870 456 884 464 932 c 1
 348 926 l 1
 332 827 391 750 500 750 c 1
 519 870 l 1
519 870 m 5
 500 750 l 1
 609 750 692 827 708 926 c 1
 594 932 l 5
 586 884 561 870 519 870 c 5
EndSplineSet
EndChar

StartChar: abreve
Encoding: 259 259 190
Width: 580
VWidth: 0
Flags: HMW
LayerCount: 2
Fore
SplineSet
379 302 m 1
 469 302 l 1
 456 218 l 1
 396 218 l 1
 379 302 l 1
420 310 m 1
 429 365 393 395 332 395 c 1
 370 530 l 1
 513 530 609 454 589 330 c 1
 420 310 l 1
332 395 m 1
 258 395 227 369 192 342 c 1
 123 450 l 1
 188 499 258 530 370 530 c 1
 332 395 l 1
420 310 m 1
 589 330 l 1
 535 0 l 1
 370 0 l 1
 420 310 l 1
224 157 m 1
 218 123 244 105 277 105 c 0
 335 105 390 120 403 200 c 1
 434 180 l 1
 416 71 327 -10 198 -10 c 4
 99 -10 29 41 47 150 c 1
 224 157 l 1
379 302 m 1
 396 218 l 1
 287 218 231 202 224 157 c 1
 47 150 l 1
 69 285 192 302 379 302 c 1
396 690 m 1
 356 690 333 704 341 752 c 1
 225 746 l 1
 209 647 268 570 377 570 c 1
 396 690 l 1
396 690 m 5
 377 570 l 1
 486 570 569 647 585 746 c 1
 471 752 l 5
 463 704 438 690 396 690 c 5
EndSplineSet
EndChar

StartChar: Cacute
Encoding: 262 262 191
Width: 732
VWidth: 0
Flags: HM
LayerCount: 2
Fore
SplineSet
267 350 m 0
 248 234 312 140 448 140 c 0
 532 140 602 172 654 228 c 1
 730 113 l 1
 653 38 549 -10 423 -10 c 4
 198 -10 65 151 97 350 c 0
 129 549 316 710 541 710 c 4
 667 710 755 662 808 587 c 1
 694 472 l 1
 660 528 599 560 516 560 c 0
 380 560 286 466 267 350 c 0
610 770 m 1
 490 770 l 5
 593 910 l 5
 753 910 l 1
 610 770 l 1
EndSplineSet
EndChar

StartChar: cacute
Encoding: 263 263 192
Width: 573
VWidth: 0
Flags: HM
LayerCount: 2
Fore
SplineSet
247 260 m 0
 237 196 271 140 348 140 c 4
 407 140 443 160 478 200 c 1
 568 92 l 1
 511 28 420 -10 323 -10 c 0
 156 -10 58 111 82 260 c 0
 106 409 244 530 411 530 c 0
 508 530 585 491 622 428 c 1
 497 320 l 5
 476 360 446 380 387 380 c 4
 310 380 258 326 247 260 c 0
481 590 m 1
 361 590 l 5
 464 730 l 5
 624 730 l 1
 481 590 l 1
EndSplineSet
EndChar

StartChar: Ccircumflex
Encoding: 264 264 193
Width: 732
VWidth: 0
Flags: HM
LayerCount: 2
Fore
SplineSet
267 350 m 0
 248 234 312 140 448 140 c 0
 532 140 602 172 654 228 c 1
 730 113 l 1
 653 38 549 -10 423 -10 c 4
 198 -10 65 151 97 350 c 0
 129 549 316 710 541 710 c 4
 667 710 755 662 808 587 c 1
 694 472 l 1
 660 528 599 560 516 560 c 0
 380 560 286 466 267 350 c 0
615 770 m 1
 532 870 l 1
 622 870 l 1
 705 770 l 1
 615 770 l 1
512 870 m 5
 602 870 l 1
 485 770 l 1
 395 770 l 5
 512 870 l 5
EndSplineSet
EndChar

StartChar: ccircumflex
Encoding: 265 265 194
Width: 573
VWidth: 0
Flags: HM
LayerCount: 2
Fore
SplineSet
247 260 m 0
 237 196 271 140 348 140 c 4
 407 140 443 160 478 200 c 1
 568 92 l 1
 511 28 420 -10 323 -10 c 0
 156 -10 58 111 82 260 c 0
 106 409 244 530 411 530 c 0
 508 530 585 491 622 428 c 1
 497 320 l 5
 476 360 446 380 387 380 c 4
 310 380 258 326 247 260 c 0
486 590 m 1
 402 690 l 1
 492 690 l 1
 576 590 l 1
 486 590 l 1
382 690 m 5
 472 690 l 1
 356 590 l 1
 266 590 l 5
 382 690 l 5
EndSplineSet
EndChar

StartChar: Cdotaccent
Encoding: 266 266 195
Width: 732
VWidth: 0
Flags: HM
LayerCount: 2
Fore
SplineSet
267 350 m 0
 248 234 312 140 448 140 c 0
 532 140 602 172 654 228 c 1
 730 113 l 1
 653 38 549 -10 423 -10 c 4
 198 -10 65 151 97 350 c 0
 129 549 316 710 541 710 c 4
 667 710 755 662 808 587 c 1
 694 472 l 1
 660 528 599 560 516 560 c 0
 380 560 286 466 267 350 c 0
478 856 m 0
 486 903 531 942 578 942 c 0
 625 942 658 903 650 856 c 0
 642 809 597 770 550 770 c 0
 503 770 470 809 478 856 c 0
EndSplineSet
EndChar

StartChar: cdotaccent
Encoding: 267 267 196
Width: 573
VWidth: 0
Flags: HM
LayerCount: 2
Fore
SplineSet
247 260 m 0
 237 196 271 140 348 140 c 4
 407 140 443 160 478 200 c 1
 568 92 l 1
 511 28 420 -10 323 -10 c 0
 156 -10 58 111 82 260 c 0
 106 409 244 530 411 530 c 0
 508 530 585 491 622 428 c 1
 497 320 l 5
 476 360 446 380 387 380 c 4
 310 380 258 326 247 260 c 0
349 676 m 0
 357 723 402 762 449 762 c 0
 496 762 529 723 521 676 c 0
 513 629 468 590 421 590 c 0
 374 590 341 629 349 676 c 0
EndSplineSet
EndChar

StartChar: Ccaron
Encoding: 268 268 197
Width: 732
VWidth: 0
Flags: HM
LayerCount: 2
Fore
SplineSet
267 350 m 0
 248 234 312 140 448 140 c 0
 532 140 602 172 654 228 c 1
 730 113 l 1
 653 38 549 -10 423 -10 c 4
 198 -10 65 151 97 350 c 0
 129 549 316 710 541 710 c 4
 667 710 755 662 808 587 c 1
 694 472 l 1
 660 528 599 560 516 560 c 0
 380 560 286 466 267 350 c 0
502 870 m 1
 585 770 l 1
 495 770 l 5
 412 870 l 5
 502 870 l 1
605 770 m 1
 515 770 l 1
 632 870 l 1
 722 870 l 1
 605 770 l 1
EndSplineSet
EndChar

StartChar: ccaron
Encoding: 269 269 198
Width: 573
VWidth: 0
Flags: HM
LayerCount: 2
Fore
SplineSet
247 260 m 0
 237 196 271 140 348 140 c 4
 407 140 443 160 478 200 c 1
 568 92 l 1
 511 28 420 -10 323 -10 c 0
 156 -10 58 111 82 260 c 0
 106 409 244 530 411 530 c 0
 508 530 585 491 622 428 c 1
 497 320 l 5
 476 360 446 380 387 380 c 4
 310 380 258 326 247 260 c 0
372 690 m 1
 456 590 l 1
 366 590 l 5
 282 690 l 5
 372 690 l 1
476 590 m 1
 386 590 l 1
 502 690 l 1
 592 690 l 1
 476 590 l 1
EndSplineSet
EndChar

StartChar: Dcaron
Encoding: 270 270 199
Width: 810
VWidth: 0
Flags: HMW
LayerCount: 2
Fore
SplineSet
194 700 m 5
 494 700 l 1
 470 550 l 1
 170 550 l 5
 194 700 l 5
104 150 m 5
 404 150 l 1
 380 0 l 1
 80 0 l 5
 104 150 l 5
194 700 m 5
 364 700 l 5
 250 0 l 5
 80 0 l 5
 194 700 l 5
404 150 m 1
 535 150 627 229 647 350 c 0
 667 471 601 550 470 550 c 1
 494 700 l 1
 709 700 849 549 817 350 c 0
 785 151 595 0 380 0 c 1
 404 150 l 1
494 870 m 1
 578 770 l 1
 488 770 l 5
 404 870 l 5
 494 870 l 1
598 770 m 1
 508 770 l 1
 624 870 l 1
 714 870 l 1
 598 770 l 1
EndSplineSet
EndChar

StartChar: dcaron
Encoding: 271 271 200
Width: 655
VWidth: 0
Flags: HMW
LayerCount: 2
Fore
SplineSet
482 260 m 4
 495 339 453 385 378 385 c 4
 303 385 250 339 237 260 c 4
 224 181 262 135 337 135 c 4
 412 135 469 181 482 260 c 4
517 260 m 4
 493 111 432 -10 268 -10 c 4
 144 -10 46 101 72 260 c 4
 98 419 232 530 356 530 c 4
 530 530 541 409 517 260 c 4
724 730 m 5
 605 0 l 5
 440 0 l 5
 559 730 l 5
 724 730 l 5
760 705 m 0
 769 763 825 810 887 810 c 0
 951 810 989 765 980 707 c 0
 974 669 946 633 922 608 c 2
 803 480 l 1
 713 480 l 1
 797 611 l 1
 765 633 754 671 760 705 c 0
EndSplineSet
EndChar

StartChar: Emacron
Encoding: 274 274 201
Width: 670
VWidth: 0
Flags: HM
LayerCount: 2
Fore
SplineSet
131 433 m 1
 671 433 l 5
 646 283 l 5
 106 283 l 1
 131 433 l 1
174 700 m 1
 764 700 l 5
 740 550 l 5
 150 550 l 1
 174 700 l 1
86 160 m 1
 676 160 l 5
 650 0 l 5
 60 0 l 1
 86 160 l 1
174 700 m 1
 344 700 l 1
 230 0 l 1
 60 0 l 1
 174 700 l 1
341 850 m 1
 645 850 l 5
 632 770 l 5
 328 770 l 1
 341 850 l 1
EndSplineSet
EndChar

StartChar: emacron
Encoding: 275 275 202
Width: 615
VWidth: 0
Flags: HMW
LayerCount: 2
Fore
SplineSet
622 260 m 1
 616 220 l 1
 451 220 l 1
 457 260 l 1
 622 260 l 1
451 220 m 1
 145 220 l 1
 161 317 l 1
 467 317 l 1
 451 220 l 1
457 260 m 1
 474 364 446 403 379 403 c 0
 312 403 254 364 237 260 c 1
 72 260 l 1
 98 419 227 530 406 530 c 0
 565 530 648 419 622 260 c 1
 457 260 l 1
72 260 m 1
 237 260 l 1
 225 186 291 125 342 125 c 0
 386 125 428 146 462 177 c 1
 568 92 l 1
 511 28 405 -10 318 -10 c 0
 159 -10 46 101 72 260 c 1
262 670 m 1
 566 670 l 5
 553 590 l 5
 249 590 l 1
 262 670 l 1
EndSplineSet
EndChar

StartChar: Ebreve
Encoding: 276 276 203
Width: 670
VWidth: 0
Flags: HM
LayerCount: 2
Fore
SplineSet
131 433 m 1
 671 433 l 5
 646 283 l 5
 106 283 l 1
 131 433 l 1
174 700 m 1
 764 700 l 5
 740 550 l 5
 150 550 l 1
 174 700 l 1
86 160 m 1
 676 160 l 5
 650 0 l 5
 60 0 l 1
 86 160 l 1
174 700 m 1
 344 700 l 1
 230 0 l 1
 60 0 l 1
 174 700 l 1
497 870 m 1
 457 870 434 884 442 932 c 1
 326 926 l 1
 310 827 368 750 477 750 c 1
 497 870 l 1
497 870 m 5
 477 750 l 1
 586 750 670 827 686 926 c 1
 572 932 l 5
 564 884 539 870 497 870 c 5
EndSplineSet
EndChar

StartChar: ebreve
Encoding: 277 277 204
Width: 615
VWidth: 0
Flags: HMW
LayerCount: 2
Fore
SplineSet
622 260 m 1
 616 220 l 1
 451 220 l 1
 457 260 l 1
 622 260 l 1
451 220 m 1
 145 220 l 1
 161 317 l 1
 467 317 l 1
 451 220 l 1
457 260 m 1
 474 364 446 403 379 403 c 0
 312 403 254 364 237 260 c 1
 72 260 l 1
 98 419 227 530 406 530 c 0
 565 530 648 419 622 260 c 1
 457 260 l 1
72 260 m 1
 237 260 l 1
 225 186 291 125 342 125 c 0
 386 125 428 146 462 177 c 1
 568 92 l 1
 511 28 405 -10 318 -10 c 0
 159 -10 46 101 72 260 c 1
417 690 m 1
 377 690 354 704 362 752 c 1
 246 746 l 1
 230 647 289 570 398 570 c 1
 417 690 l 1
417 690 m 5
 398 570 l 1
 507 570 590 647 606 746 c 1
 492 752 l 5
 484 704 459 690 417 690 c 5
EndSplineSet
EndChar

StartChar: Edotaccent
Encoding: 278 278 205
Width: 670
VWidth: 0
Flags: HM
LayerCount: 2
Fore
SplineSet
131 433 m 1
 671 433 l 5
 646 283 l 5
 106 283 l 1
 131 433 l 1
174 700 m 1
 764 700 l 5
 740 550 l 5
 150 550 l 1
 174 700 l 1
86 160 m 1
 676 160 l 5
 650 0 l 5
 60 0 l 1
 86 160 l 1
174 700 m 1
 344 700 l 1
 230 0 l 1
 60 0 l 1
 174 700 l 1
408 856 m 0
 416 903 461 942 508 942 c 0
 555 942 588 903 580 856 c 0
 572 809 527 770 480 770 c 0
 433 770 400 809 408 856 c 0
EndSplineSet
EndChar

StartChar: edotaccent
Encoding: 279 279 206
Width: 615
VWidth: 0
Flags: HMW
LayerCount: 2
Fore
SplineSet
622 260 m 1
 616 220 l 1
 451 220 l 1
 457 260 l 1
 622 260 l 1
451 220 m 1
 145 220 l 1
 161 317 l 1
 467 317 l 1
 451 220 l 1
457 260 m 1
 474 364 446 403 379 403 c 0
 312 403 254 364 237 260 c 1
 72 260 l 1
 98 419 227 530 406 530 c 0
 565 530 648 419 622 260 c 1
 457 260 l 1
72 260 m 1
 237 260 l 1
 225 186 291 125 342 125 c 0
 386 125 428 146 462 177 c 1
 568 92 l 1
 511 28 405 -10 318 -10 c 0
 159 -10 46 101 72 260 c 1
329 676 m 0
 337 723 382 762 429 762 c 0
 476 762 509 723 501 676 c 0
 493 629 448 590 401 590 c 0
 354 590 321 629 329 676 c 0
EndSplineSet
EndChar

StartChar: Ecaron
Encoding: 282 282 207
Width: 670
VWidth: 0
Flags: HM
LayerCount: 2
Fore
SplineSet
131 433 m 1
 671 433 l 5
 646 283 l 5
 106 283 l 1
 131 433 l 1
174 700 m 1
 764 700 l 5
 740 550 l 5
 150 550 l 1
 174 700 l 1
86 160 m 1
 676 160 l 5
 650 0 l 5
 60 0 l 1
 86 160 l 1
174 700 m 1
 344 700 l 1
 230 0 l 1
 60 0 l 1
 174 700 l 1
432 870 m 1
 515 770 l 1
 425 770 l 5
 342 870 l 5
 432 870 l 1
535 770 m 1
 445 770 l 1
 562 870 l 1
 652 870 l 1
 535 770 l 1
EndSplineSet
EndChar

StartChar: ecaron
Encoding: 283 283 208
Width: 615
VWidth: 0
Flags: HMW
LayerCount: 2
Fore
SplineSet
622 260 m 1
 616 220 l 1
 451 220 l 1
 457 260 l 1
 622 260 l 1
451 220 m 1
 145 220 l 1
 161 317 l 1
 467 317 l 1
 451 220 l 1
457 260 m 1
 474 364 446 403 379 403 c 0
 312 403 254 364 237 260 c 1
 72 260 l 1
 98 419 227 530 406 530 c 0
 565 530 648 419 622 260 c 1
 457 260 l 1
72 260 m 1
 237 260 l 1
 225 186 291 125 342 125 c 0
 386 125 428 146 462 177 c 1
 568 92 l 1
 511 28 405 -10 318 -10 c 0
 159 -10 46 101 72 260 c 1
352 690 m 1
 436 590 l 1
 346 590 l 5
 262 690 l 5
 352 690 l 1
456 590 m 1
 366 590 l 1
 482 690 l 1
 572 690 l 1
 456 590 l 1
EndSplineSet
EndChar

StartChar: Gcircumflex
Encoding: 284 284 209
Width: 782
VWidth: 0
Flags: HMW
LayerCount: 2
Fore
SplineSet
802 400 m 1
 779 260 l 1
 477 260 l 1
 500 400 l 1
 802 400 l 1
755 113 m 1
 596 113 l 1
 638 370 l 1
 797 370 l 1
 755 113 l 1
267 350 m 0
 247 229 318 150 449 150 c 0
 527 150 602 172 665 233 c 1
 755 113 l 1
 678 38 549 -10 423 -10 c 4
 198 -10 65 151 97 350 c 0
 129 549 316 710 541 710 c 4
 667 710 760 662 813 587 c 1
 680 482 l 5
 641 538 594 560 516 560 c 0
 385 560 287 471 267 350 c 0
615 770 m 1
 532 870 l 1
 622 870 l 1
 705 770 l 1
 615 770 l 1
512 870 m 5
 602 870 l 1
 485 770 l 1
 395 770 l 5
 512 870 l 5
EndSplineSet
EndChar

StartChar: gcircumflex
Encoding: 285 285 210
Width: 655
VWidth: 0
Flags: HMW
LayerCount: 2
Fore
SplineSet
482 260 m 0
 495 339 453 385 378 385 c 4
 303 385 250 339 237 260 c 0
 224 181 262 135 337 135 c 4
 412 135 469 181 482 260 c 0
517 260 m 0
 493 111 432 -10 268 -10 c 0
 144 -10 46 101 72 260 c 0
 98 419 232 530 356 530 c 0
 530 530 541 409 517 260 c 0
299 -78 m 1
 287 -220 l 1
 130 -220 51 -172 14 -108 c 1
 163 -32 l 1
 183 -56 236 -78 299 -78 c 1
608 20 m 1
 443 20 l 1
 525 520 l 1
 690 520 l 1
 608 20 l 1
443 20 m 1
 608 20 l 1
 585 -119 436 -220 287 -220 c 1
 299 -78 l 1
 356 -78 433 -39 443 20 c 1
461 590 m 1
 377 690 l 1
 467 690 l 1
 551 590 l 1
 461 590 l 1
357 690 m 5
 447 690 l 1
 331 590 l 1
 241 590 l 5
 357 690 l 5
EndSplineSet
EndChar

StartChar: Gbreve
Encoding: 286 286 211
Width: 782
VWidth: 0
Flags: HMW
LayerCount: 2
Fore
SplineSet
802 400 m 1
 779 260 l 1
 477 260 l 1
 500 400 l 1
 802 400 l 1
755 113 m 1
 596 113 l 1
 638 370 l 1
 797 370 l 1
 755 113 l 1
267 350 m 0
 247 229 318 150 449 150 c 0
 527 150 602 172 665 233 c 1
 755 113 l 1
 678 38 549 -10 423 -10 c 4
 198 -10 65 151 97 350 c 0
 129 549 316 710 541 710 c 4
 667 710 760 662 813 587 c 1
 680 482 l 5
 641 538 594 560 516 560 c 0
 385 560 287 471 267 350 c 0
567 870 m 1
 527 870 504 884 512 932 c 1
 396 926 l 1
 380 827 438 750 547 750 c 1
 567 870 l 1
567 870 m 5
 547 750 l 1
 656 750 740 827 756 926 c 1
 642 932 l 5
 634 884 609 870 567 870 c 5
EndSplineSet
EndChar

StartChar: gbreve
Encoding: 287 287 212
Width: 655
VWidth: 0
Flags: HMW
LayerCount: 2
Fore
SplineSet
482 260 m 0
 495 339 453 385 378 385 c 4
 303 385 250 339 237 260 c 0
 224 181 262 135 337 135 c 4
 412 135 469 181 482 260 c 0
517 260 m 0
 493 111 432 -10 268 -10 c 0
 144 -10 46 101 72 260 c 0
 98 419 232 530 356 530 c 0
 530 530 541 409 517 260 c 0
299 -78 m 1
 287 -220 l 1
 130 -220 51 -172 14 -108 c 1
 163 -32 l 1
 183 -56 236 -78 299 -78 c 1
608 20 m 1
 443 20 l 1
 525 520 l 1
 690 520 l 1
 608 20 l 1
443 20 m 1
 608 20 l 1
 585 -119 436 -220 287 -220 c 1
 299 -78 l 1
 356 -78 433 -39 443 20 c 1
412 690 m 1
 372 690 349 704 357 752 c 1
 241 746 l 1
 225 647 284 570 393 570 c 1
 412 690 l 1
412 690 m 5
 393 570 l 1
 502 570 585 647 601 746 c 1
 487 752 l 5
 479 704 454 690 412 690 c 5
EndSplineSet
EndChar

StartChar: Gdotaccent
Encoding: 288 288 213
Width: 782
VWidth: 0
Flags: HMW
LayerCount: 2
Fore
SplineSet
802 400 m 1
 779 260 l 1
 477 260 l 1
 500 400 l 1
 802 400 l 1
755 113 m 1
 596 113 l 1
 638 370 l 1
 797 370 l 1
 755 113 l 1
267 350 m 0
 247 229 318 150 449 150 c 0
 527 150 602 172 665 233 c 1
 755 113 l 1
 678 38 549 -10 423 -10 c 4
 198 -10 65 151 97 350 c 0
 129 549 316 710 541 710 c 4
 667 710 760 662 813 587 c 1
 680 482 l 5
 641 538 594 560 516 560 c 0
 385 560 287 471 267 350 c 0
478 856 m 0
 486 903 531 942 578 942 c 0
 625 942 658 903 650 856 c 0
 642 809 597 770 550 770 c 0
 503 770 470 809 478 856 c 0
EndSplineSet
EndChar

StartChar: gdotaccent
Encoding: 289 289 214
Width: 655
VWidth: 0
Flags: HMW
LayerCount: 2
Fore
SplineSet
482 260 m 0
 495 339 453 385 378 385 c 4
 303 385 250 339 237 260 c 0
 224 181 262 135 337 135 c 4
 412 135 469 181 482 260 c 0
517 260 m 0
 493 111 432 -10 268 -10 c 0
 144 -10 46 101 72 260 c 0
 98 419 232 530 356 530 c 0
 530 530 541 409 517 260 c 0
299 -78 m 1
 287 -220 l 1
 130 -220 51 -172 14 -108 c 1
 163 -32 l 1
 183 -56 236 -78 299 -78 c 1
608 20 m 1
 443 20 l 1
 525 520 l 1
 690 520 l 1
 608 20 l 1
443 20 m 1
 608 20 l 1
 585 -119 436 -220 287 -220 c 1
 299 -78 l 1
 356 -78 433 -39 443 20 c 1
324 676 m 0
 332 723 377 762 424 762 c 0
 471 762 504 723 496 676 c 0
 488 629 443 590 396 590 c 0
 349 590 316 629 324 676 c 0
EndSplineSet
EndChar

StartChar: uni0122
Encoding: 290 290 215
Width: 782
VWidth: 0
Flags: HMW
LayerCount: 2
Fore
SplineSet
802 400 m 1
 779 260 l 1
 477 260 l 1
 500 400 l 1
 802 400 l 1
755 113 m 1
 596 113 l 1
 638 370 l 1
 797 370 l 1
 755 113 l 1
267 350 m 0
 247 229 318 150 449 150 c 0
 527 150 602 172 665 233 c 1
 755 113 l 1
 678 38 549 -10 423 -10 c 4
 198 -10 65 151 97 350 c 0
 129 549 316 710 541 710 c 4
 667 710 760 662 813 587 c 1
 680 482 l 5
 641 538 594 560 516 560 c 0
 385 560 287 471 267 350 c 0
323 -95 m 0
 332 -37 388 10 450 10 c 0
 514 10 552 -35 543 -93 c 0
 537 -131 509 -167 485 -192 c 2
 366 -320 l 1
 276 -320 l 1
 359 -189 l 1
 327 -167 317 -129 323 -95 c 0
EndSplineSet
EndChar

StartChar: Hcircumflex
Encoding: 292 292 216
Width: 765
VWidth: 0
Flags: HMW
LayerCount: 2
Fore
SplineSet
649 700 m 5
 819 700 l 5
 705 0 l 5
 535 0 l 5
 649 700 l 5
131 433 m 1
 721 433 l 5
 696 283 l 5
 106 283 l 1
 131 433 l 1
174 700 m 1
 344 700 l 1
 230 0 l 1
 60 0 l 1
 174 700 l 1
570 770 m 1
 487 870 l 1
 577 870 l 1
 660 770 l 1
 570 770 l 1
467 870 m 5
 557 870 l 1
 440 770 l 1
 350 770 l 5
 467 870 l 5
EndSplineSet
EndChar

StartChar: hcircumflex
Encoding: 293 293 217
Width: 635
VWidth: 0
Flags: HMW
LayerCount: 2
Fore
SplineSet
642 320 m 5
 590 0 l 5
 425 0 l 5
 474 300 l 5
 642 320 l 5
169 730 m 5
 334 730 l 5
 215 0 l 5
 50 0 l 5
 169 730 l 5
474 300 m 5
 484 359 427 385 387 385 c 4
 338 385 274 360 261 280 c 5
 226 280 l 5
 249 419 327 530 486 530 c 4
 615 530 663 449 642 320 c 5
 474 300 l 5
511 790 m 1
 427 890 l 1
 517 890 l 1
 601 790 l 1
 511 790 l 1
407 890 m 5
 497 890 l 1
 381 790 l 1
 291 790 l 5
 407 890 l 5
EndSplineSet
EndChar

StartChar: Itilde
Encoding: 296 296 218
Width: 300
VWidth: 0
Flags: HMW
LayerCount: 2
Fore
SplineSet
179 700 m 5
 349 700 l 1
 235 0 l 1
 65 0 l 5
 179 700 l 5
143 770 m 5
 55 790 l 1
 72 868 139 917 190 917 c 0
 254 917 282 873 326 873 c 0
 361 873 392 883 396 910 c 1
 482 890 l 1
 463 802 391 763 341 763 c 0
 279 763 254 807 211 807 c 4
 177 807 147 797 143 770 c 5
EndSplineSet
EndChar

StartChar: itilde
Encoding: 297 297 219
Width: 270
VWidth: 0
Flags: HMW
LayerCount: 2
Fore
SplineSet
140 520 m 5
 300 520 l 1
 215 0 l 1
 55 0 l 5
 140 520 l 5
111 590 m 5
 23 610 l 1
 40 688 107 737 158 737 c 0
 222 737 250 693 294 693 c 0
 329 693 360 703 364 730 c 1
 451 710 l 1
 432 622 359 583 309 583 c 0
 247 583 222 627 179 627 c 4
 145 627 115 617 111 590 c 5
EndSplineSet
EndChar

StartChar: Imacron
Encoding: 298 298 220
Width: 300
VWidth: 0
Flags: HMW
LayerCount: 2
Fore
SplineSet
179 700 m 5
 349 700 l 1
 235 0 l 1
 65 0 l 5
 179 700 l 5
114 850 m 1
 418 850 l 5
 405 770 l 5
 101 770 l 1
 114 850 l 1
EndSplineSet
EndChar

StartChar: imacron
Encoding: 299 299 221
Width: 270
VWidth: 0
Flags: HMW
LayerCount: 2
Fore
SplineSet
140 520 m 5
 300 520 l 1
 215 0 l 1
 55 0 l 5
 140 520 l 5
82 670 m 1
 386 670 l 5
 373 590 l 5
 69 590 l 1
 82 670 l 1
EndSplineSet
EndChar

StartChar: Ibreve
Encoding: 300 300 222
Width: 300
VWidth: 0
Flags: HMW
LayerCount: 2
Fore
SplineSet
179 700 m 5
 349 700 l 1
 235 0 l 1
 65 0 l 5
 179 700 l 5
269 870 m 1
 229 870 206 884 214 932 c 1
 98 926 l 1
 82 827 141 750 250 750 c 1
 269 870 l 1
269 870 m 5
 250 750 l 1
 359 750 442 827 458 926 c 1
 344 932 l 5
 336 884 311 870 269 870 c 5
EndSplineSet
EndChar

StartChar: ibreve
Encoding: 301 301 223
Width: 270
VWidth: 0
Flags: HMW
LayerCount: 2
Fore
SplineSet
140 520 m 5
 300 520 l 1
 215 0 l 1
 55 0 l 5
 140 520 l 5
237 690 m 1
 197 690 174 704 182 752 c 1
 66 746 l 1
 50 647 109 570 218 570 c 1
 237 690 l 1
237 690 m 5
 218 570 l 1
 327 570 410 647 426 746 c 1
 312 752 l 5
 304 704 279 690 237 690 c 5
EndSplineSet
EndChar

StartChar: Idotaccent
Encoding: 304 304 224
Width: 300
VWidth: 0
Flags: HMW
LayerCount: 2
Fore
SplineSet
179 700 m 5
 349 700 l 1
 235 0 l 1
 65 0 l 5
 179 700 l 5
181 856 m 0
 189 903 234 942 281 942 c 0
 328 942 361 903 353 856 c 0
 345 809 300 770 253 770 c 0
 206 770 173 809 181 856 c 0
EndSplineSet
EndChar

StartChar: dotlessi
Encoding: 305 305 225
Width: 270
VWidth: 0
Flags: HMW
AnchorPoint: "ced" 135 0 basechar 0
LayerCount: 2
Fore
SplineSet
140 520 m 5
 300 520 l 1
 215 0 l 1
 55 0 l 5
 140 520 l 5
EndSplineSet
EndChar

StartChar: Jcircumflex
Encoding: 308 308 226
Width: 599
VWidth: 0
Flags: HMW
LayerCount: 2
Fore
SplineSet
426 260 m 1
 498 700 l 1
 663 700 l 1
 591 260 l 1
 426 260 l 1
426 260 m 1
 591 260 l 1
 560 71 412 -10 253 -10 c 0
 145 -10 59 41 26 157 c 1
 169 246 l 1
 187 180 233 133 282 133 c 4
 349 133 412 171 426 260 c 1
624 770 m 1
 541 870 l 1
 631 870 l 1
 714 770 l 1
 624 770 l 1
521 870 m 5
 611 870 l 1
 494 770 l 1
 404 770 l 5
 521 870 l 5
EndSplineSet
EndChar

StartChar: jcircumflex
Encoding: 309 309 227
Width: 270
VWidth: 0
Flags: HMW
LayerCount: 2
Fore
SplineSet
134 520 m 1
 299 520 l 1
 204 -60 l 1
 44 -30 l 1
 134 520 l 1
1 -65 m 1
 8 -210 l 1
 -49 -210 -117 -192 -138 -158 c 1
 -48 -37 l 1
 -34 -56 -21 -65 1 -65 c 1
44 -30 m 1
 204 -60 l 1
 185 -179 97 -210 8 -210 c 1
 1 -65 l 1
 28 -65 40 -57 44 -30 c 1
290 590 m 1
 206 690 l 1
 296 690 l 1
 380 590 l 1
 290 590 l 1
186 690 m 5
 276 690 l 1
 160 590 l 1
 70 590 l 5
 186 690 l 5
EndSplineSet
EndChar

StartChar: uni0136
Encoding: 310 310 228
Width: 745
VWidth: 0
Flags: HMW
LayerCount: 2
Fore
SplineSet
304 413 m 1
 492 419 l 5
 750 0 l 1
 556 0 l 1
 304 413 l 1
609 700 m 1
 814 700 l 1
 264 207 l 1
 102 230 l 1
 609 700 l 1
174 700 m 1
 344 700 l 1
 230 0 l 1
 60 0 l 1
 174 700 l 1
287 -85 m 0
 296 -27 352 20 414 20 c 0
 478 20 516 -25 507 -83 c 0
 501 -121 473 -157 449 -182 c 2
 330 -310 l 1
 240 -310 l 1
 324 -179 l 1
 292 -157 281 -119 287 -85 c 0
EndSplineSet
EndChar

StartChar: uni0137
Encoding: 311 311 229
Width: 615
VWidth: 0
Flags: HMW
LayerCount: 2
Fore
SplineSet
270 291 m 5
 436 311 l 1
 620 0 l 1
 442 0 l 1
 270 291 l 5
499 520 m 1
 685 520 l 1
 233 110 l 1
 100 154 l 1
 499 520 l 1
169 730 m 1
 334 730 l 1
 215 0 l 1
 50 0 l 1
 169 730 l 1
194 -85 m 0
 203 -27 259 20 321 20 c 0
 385 20 423 -25 414 -83 c 0
 408 -121 380 -157 356 -182 c 2
 238 -310 l 1
 148 -310 l 1
 231 -179 l 1
 199 -157 188 -119 194 -85 c 0
EndSplineSet
EndChar

StartChar: Lacute
Encoding: 313 313 230
Width: 655
VWidth: 0
Flags: HM
LayerCount: 2
Fore
SplineSet
84 150 m 1
 654 150 l 5
 630 0 l 5
 60 0 l 1
 84 150 l 1
174 700 m 1
 344 700 l 1
 230 0 l 1
 60 0 l 1
 174 700 l 1
327 770 m 1
 207 770 l 5
 310 910 l 5
 470 910 l 1
 327 770 l 1
EndSplineSet
EndChar

StartChar: lacute
Encoding: 314 314 231
Width: 265
VWidth: 0
Flags: HMW
LayerCount: 2
Fore
SplineSet
169 730 m 5
 334 730 l 1
 215 0 l 1
 50 0 l 5
 169 730 l 5
299 790 m 1
 179 790 l 5
 281 930 l 5
 441 930 l 1
 299 790 l 1
EndSplineSet
EndChar

StartChar: uni013B
Encoding: 315 315 232
Width: 655
VWidth: 0
Flags: HM
LayerCount: 2
Fore
SplineSet
84 150 m 1
 654 150 l 5
 630 0 l 5
 60 0 l 1
 84 150 l 1
174 700 m 1
 344 700 l 1
 230 0 l 1
 60 0 l 1
 174 700 l 1
254 -85 m 0
 263 -27 319 20 381 20 c 0
 445 20 483 -25 474 -83 c 0
 468 -121 440 -157 416 -182 c 2
 298 -310 l 1
 208 -310 l 1
 291 -179 l 1
 259 -157 248 -119 254 -85 c 0
EndSplineSet
EndChar

StartChar: uni013C
Encoding: 316 316 233
Width: 265
VWidth: 0
Flags: HMW
LayerCount: 2
Fore
SplineSet
169 730 m 5
 334 730 l 1
 215 0 l 1
 50 0 l 5
 169 730 l 5
9 -85 m 0
 18 -27 74 20 136 20 c 0
 200 20 238 -25 229 -83 c 0
 223 -121 195 -157 171 -182 c 2
 53 -310 l 1
 -37 -310 l 1
 46 -179 l 1
 14 -157 3 -119 9 -85 c 0
EndSplineSet
EndChar

StartChar: Lcaron
Encoding: 317 317 234
Width: 655
VWidth: 0
Flags: HMW
LayerCount: 2
Fore
SplineSet
84 150 m 1
 654 150 l 5
 630 0 l 5
 60 0 l 1
 84 150 l 1
174 700 m 1
 344 700 l 1
 230 0 l 1
 60 0 l 1
 174 700 l 1
442 685 m 0
 451 743 507 790 569 790 c 0
 633 790 671 745 662 687 c 0
 656 649 628 613 604 588 c 2
 485 460 l 1
 395 460 l 1
 478 591 l 1
 446 613 436 651 442 685 c 0
EndSplineSet
EndChar

StartChar: lcaron
Encoding: 318 318 235
Width: 265
VWidth: 0
Flags: HMW
LayerCount: 2
Fore
SplineSet
169 730 m 5
 334 730 l 1
 215 0 l 1
 50 0 l 5
 169 730 l 5
305 705 m 0
 314 763 370 810 432 810 c 0
 496 810 534 765 525 707 c 0
 519 669 491 633 467 608 c 2
 348 480 l 1
 258 480 l 1
 342 611 l 1
 310 633 299 671 305 705 c 0
EndSplineSet
EndChar

StartChar: Ldot
Encoding: 319 319 236
Width: 655
VWidth: 0
Flags: HM
LayerCount: 2
Fore
SplineSet
84 150 m 1
 654 150 l 5
 630 0 l 5
 60 0 l 1
 84 150 l 1
174 700 m 1
 344 700 l 1
 230 0 l 1
 60 0 l 1
 174 700 l 1
334 395 m 4
 343 453 398 500 456 500 c 4
 514 500 553 453 544 395 c 4
 535 337 480 290 422 290 c 4
 364 290 325 337 334 395 c 4
EndSplineSet
EndChar

StartChar: ldot
Encoding: 320 320 237
Width: 450
VWidth: 0
Flags: HM
LayerCount: 2
Fore
SplineSet
169 730 m 5
 334 730 l 1
 215 0 l 1
 50 0 l 5
 169 730 l 5
326 345 m 4
 335 403 390 450 448 450 c 4
 506 450 545 403 536 345 c 4
 527 287 472 240 414 240 c 4
 356 240 317 287 326 345 c 4
EndSplineSet
EndChar

StartChar: Nacute
Encoding: 323 323 238
Width: 790
VWidth: 0
Flags: HMW
LayerCount: 2
Fore
SplineSet
730 0 m 1
 570 0 l 1
 574 24 l 1
 732 14 l 1
 730 0 l 1
334 700 m 1
 331 680 l 1
 171 680 l 1
 174 700 l 1
 334 700 l 1
172 625 m 5
 334 700 l 1
 732 75 l 1
 570 0 l 1
 172 625 l 5
674 700 m 1
 844 700 l 1
 730 0 l 1
 563 20 l 1
 674 700 l 1
174 700 m 1
 341 680 l 1
 230 0 l 1
 60 0 l 1
 174 700 l 1
555 770 m 1
 435 770 l 5
 538 910 l 5
 698 910 l 1
 555 770 l 1
EndSplineSet
EndChar

StartChar: nacute
Encoding: 324 324 239
Width: 635
VWidth: 0
Flags: HMW
LayerCount: 2
Fore
SplineSet
642 320 m 5
 590 0 l 5
 425 0 l 5
 474 300 l 5
 642 320 l 5
135 520 m 5
 300 520 l 5
 215 0 l 5
 50 0 l 5
 135 520 l 5
474 300 m 5
 484 359 427 385 387 385 c 4
 338 385 274 360 261 280 c 5
 226 280 l 5
 249 419 327 530 486 530 c 4
 615 530 663 449 642 320 c 5
 474 300 l 5
474 590 m 1
 354 590 l 5
 456 730 l 5
 616 730 l 1
 474 590 l 1
EndSplineSet
EndChar

StartChar: uni0145
Encoding: 325 325 240
Width: 790
VWidth: 0
Flags: HMW
LayerCount: 2
Fore
SplineSet
730 0 m 1
 570 0 l 1
 574 24 l 1
 732 14 l 1
 730 0 l 1
334 700 m 1
 331 680 l 1
 171 680 l 1
 174 700 l 1
 334 700 l 1
172 625 m 5
 334 700 l 1
 732 75 l 1
 570 0 l 1
 172 625 l 5
674 700 m 1
 844 700 l 1
 730 0 l 1
 563 20 l 1
 674 700 l 1
174 700 m 1
 341 680 l 1
 230 0 l 1
 60 0 l 1
 174 700 l 1
269 -85 m 0
 278 -27 334 20 396 20 c 0
 460 20 498 -25 489 -83 c 0
 483 -121 455 -157 431 -182 c 2
 313 -310 l 1
 223 -310 l 1
 306 -179 l 1
 274 -157 263 -119 269 -85 c 0
EndSplineSet
EndChar

StartChar: uni0146
Encoding: 326 326 241
Width: 635
VWidth: 0
Flags: HMW
LayerCount: 2
Fore
SplineSet
642 320 m 5
 590 0 l 5
 425 0 l 5
 474 300 l 5
 642 320 l 5
135 520 m 5
 300 520 l 5
 215 0 l 5
 50 0 l 5
 135 520 l 5
474 300 m 5
 484 359 427 385 387 385 c 4
 338 385 274 360 261 280 c 5
 226 280 l 5
 249 419 327 530 486 530 c 4
 615 530 663 449 642 320 c 5
 474 300 l 5
217 -85 m 0
 226 -27 282 20 344 20 c 0
 408 20 446 -25 437 -83 c 0
 431 -121 403 -157 379 -182 c 2
 260 -310 l 1
 170 -310 l 1
 254 -179 l 1
 222 -157 211 -119 217 -85 c 0
EndSplineSet
EndChar

StartChar: Ncaron
Encoding: 327 327 242
Width: 790
VWidth: 0
Flags: HMW
LayerCount: 2
Fore
SplineSet
730 0 m 1
 570 0 l 1
 574 24 l 1
 732 14 l 1
 730 0 l 1
334 700 m 1
 331 680 l 1
 171 680 l 1
 174 700 l 1
 334 700 l 1
172 625 m 5
 334 700 l 1
 732 75 l 1
 570 0 l 1
 172 625 l 5
674 700 m 1
 844 700 l 1
 730 0 l 1
 563 20 l 1
 674 700 l 1
174 700 m 1
 341 680 l 1
 230 0 l 1
 60 0 l 1
 174 700 l 1
447 870 m 1
 530 770 l 1
 440 770 l 5
 357 870 l 5
 447 870 l 1
550 770 m 1
 460 770 l 1
 577 870 l 1
 667 870 l 1
 550 770 l 1
EndSplineSet
EndChar

StartChar: ncaron
Encoding: 328 328 243
Width: 635
VWidth: 0
Flags: HMW
LayerCount: 2
Fore
SplineSet
642 320 m 5
 590 0 l 5
 425 0 l 5
 474 300 l 5
 642 320 l 5
135 520 m 5
 300 520 l 5
 215 0 l 5
 50 0 l 5
 135 520 l 5
474 300 m 5
 484 359 427 385 387 385 c 4
 338 385 274 360 261 280 c 5
 226 280 l 5
 249 419 327 530 486 530 c 4
 615 530 663 449 642 320 c 5
 474 300 l 5
365 690 m 1
 449 590 l 1
 359 590 l 5
 275 690 l 5
 365 690 l 1
469 590 m 1
 379 590 l 1
 495 690 l 1
 585 690 l 1
 469 590 l 1
EndSplineSet
EndChar

StartChar: Omacron
Encoding: 332 332 244
Width: 850
VWidth: 0
Flags: HM
LayerCount: 2
Fore
SplineSet
277 350 m 4
 258 234 325 140 448 140 c 4
 571 140 668 234 687 350 c 4
 706 466 639 560 516 560 c 4
 393 560 296 466 277 350 c 4
107 350 m 4
 139 549 326 710 541 710 c 4
 756 710 889 549 857 350 c 4
 825 151 638 -10 423 -10 c 4
 208 -10 75 151 107 350 c 4
411 850 m 1
 715 850 l 5
 702 770 l 5
 398 770 l 1
 411 850 l 1
EndSplineSet
EndChar

StartChar: omacron
Encoding: 333 333 245
Width: 650
VWidth: 0
Flags: HMW
LayerCount: 2
Fore
SplineSet
247 260 m 0
 236 190 278 135 347 135 c 4
 416 135 476 190 487 260 c 0
 498 330 457 385 388 385 c 0
 319 385 258 330 247 260 c 0
82 260 m 0
 106 409 242 530 411 530 c 0
 580 530 676 409 652 260 c 0
 628 111 492 -10 323 -10 c 0
 154 -10 58 111 82 260 c 0
282 670 m 1
 586 670 l 5
 573 590 l 5
 269 590 l 1
 282 670 l 1
EndSplineSet
EndChar

StartChar: Obreve
Encoding: 334 334 246
Width: 850
VWidth: 0
Flags: HM
LayerCount: 2
Fore
SplineSet
277 350 m 4
 258 234 325 140 448 140 c 4
 571 140 668 234 687 350 c 4
 706 466 639 560 516 560 c 4
 393 560 296 466 277 350 c 4
107 350 m 4
 139 549 326 710 541 710 c 4
 756 710 889 549 857 350 c 4
 825 151 638 -10 423 -10 c 4
 208 -10 75 151 107 350 c 4
567 870 m 1
 527 870 504 884 512 932 c 1
 396 926 l 1
 380 827 438 750 547 750 c 1
 567 870 l 1
567 870 m 5
 547 750 l 1
 656 750 740 827 756 926 c 1
 642 932 l 5
 634 884 609 870 567 870 c 5
EndSplineSet
EndChar

StartChar: obreve
Encoding: 335 335 247
Width: 650
VWidth: 0
Flags: HMW
LayerCount: 2
Fore
SplineSet
247 260 m 0
 236 190 278 135 347 135 c 4
 416 135 476 190 487 260 c 0
 498 330 457 385 388 385 c 0
 319 385 258 330 247 260 c 0
82 260 m 0
 106 409 242 530 411 530 c 0
 580 530 676 409 652 260 c 0
 628 111 492 -10 323 -10 c 0
 154 -10 58 111 82 260 c 0
437 690 m 1
 397 690 374 704 382 752 c 1
 266 746 l 1
 250 647 309 570 418 570 c 1
 437 690 l 1
437 690 m 5
 418 570 l 1
 527 570 610 647 626 746 c 1
 512 752 l 5
 504 704 479 690 437 690 c 5
EndSplineSet
EndChar

StartChar: Racute
Encoding: 340 340 248
Width: 718
VWidth: 0
Flags: HMW
LayerCount: 2
Fore
SplineSet
446 373 m 1
 514 373 560 410 569 465 c 0
 578 520 543 550 475 550 c 1
 519 700 l 1
 668 700 761 600 739 465 c 0
 717 331 590 223 441 223 c 1
 446 373 l 1
179 700 m 1
 349 700 l 1
 235 0 l 1
 65 0 l 1
 179 700 l 1
214 700 m 1
 519 700 l 1
 475 550 l 1
 190 550 l 1
 214 700 l 1
161 373 m 1
 446 373 l 1
 441 223 l 1
 136 223 l 1
 161 373 l 1
315 320 m 1
 500 320 l 1
 708 0 l 1
 523 0 l 1
 315 320 l 1
478 770 m 1
 358 770 l 5
 461 910 l 5
 621 910 l 1
 478 770 l 1
EndSplineSet
EndChar

StartChar: racute
Encoding: 341 341 249
Width: 410
VWidth: 0
Flags: HMW
LayerCount: 2
Fore
SplineSet
135 520 m 1
 300 520 l 1
 215 0 l 1
 50 0 l 1
 135 520 l 1
456 375 m 1
 431 375 l 2
 337 375 270 340 259 270 c 1
 224 270 l 1
 250 429 321 520 480 520 c 5
 456 375 l 1
376 590 m 1
 256 590 l 5
 359 730 l 5
 519 730 l 1
 376 590 l 1
EndSplineSet
EndChar

StartChar: uni0156
Encoding: 342 342 250
Width: 718
VWidth: 0
Flags: HMW
LayerCount: 2
Fore
SplineSet
446 373 m 1
 514 373 560 410 569 465 c 0
 578 520 543 550 475 550 c 1
 519 700 l 1
 668 700 761 600 739 465 c 0
 717 331 590 223 441 223 c 1
 446 373 l 1
179 700 m 1
 349 700 l 1
 235 0 l 1
 65 0 l 1
 179 700 l 1
214 700 m 1
 519 700 l 1
 475 550 l 1
 190 550 l 1
 214 700 l 1
161 373 m 1
 446 373 l 1
 441 223 l 1
 136 223 l 1
 161 373 l 1
315 320 m 1
 500 320 l 1
 708 0 l 1
 523 0 l 1
 315 320 l 1
278 -85 m 0
 287 -27 343 20 405 20 c 0
 469 20 507 -25 498 -83 c 0
 492 -121 464 -157 440 -182 c 2
 322 -310 l 1
 232 -310 l 1
 315 -179 l 1
 283 -157 272 -119 278 -85 c 0
EndSplineSet
EndChar

StartChar: uni0157
Encoding: 343 343 251
Width: 410
VWidth: 0
Flags: HMW
LayerCount: 2
Fore
SplineSet
135 520 m 1
 300 520 l 1
 215 0 l 1
 50 0 l 1
 135 520 l 1
456 375 m 1
 431 375 l 2
 337 375 270 340 259 270 c 1
 224 270 l 1
 250 429 321 520 480 520 c 5
 456 375 l 1
14 -85 m 0
 23 -27 79 20 141 20 c 0
 205 20 243 -25 234 -83 c 0
 228 -121 200 -157 176 -182 c 2
 58 -310 l 1
 -32 -310 l 1
 51 -179 l 1
 19 -157 8 -119 14 -85 c 0
EndSplineSet
EndChar

StartChar: Rcaron
Encoding: 344 344 252
Width: 718
VWidth: 0
Flags: HMW
LayerCount: 2
Fore
SplineSet
446 373 m 1
 514 373 560 410 569 465 c 0
 578 520 543 550 475 550 c 1
 519 700 l 1
 668 700 761 600 739 465 c 0
 717 331 590 223 441 223 c 1
 446 373 l 1
179 700 m 1
 349 700 l 1
 235 0 l 1
 65 0 l 1
 179 700 l 1
214 700 m 1
 519 700 l 1
 475 550 l 1
 190 550 l 1
 214 700 l 1
161 373 m 1
 446 373 l 1
 441 223 l 1
 136 223 l 1
 161 373 l 1
315 320 m 1
 500 320 l 1
 708 0 l 1
 523 0 l 1
 315 320 l 1
319 870 m 1
 403 770 l 1
 313 770 l 5
 229 870 l 5
 319 870 l 1
423 770 m 1
 333 770 l 1
 449 870 l 1
 539 870 l 1
 423 770 l 1
EndSplineSet
EndChar

StartChar: rcaron
Encoding: 345 345 253
Width: 410
VWidth: 0
Flags: HMW
LayerCount: 2
Fore
SplineSet
135 520 m 1
 300 520 l 1
 215 0 l 1
 50 0 l 1
 135 520 l 1
456 375 m 1
 431 375 l 2
 337 375 270 340 259 270 c 1
 224 270 l 1
 250 429 321 520 480 520 c 5
 456 375 l 1
267 690 m 1
 351 590 l 1
 261 590 l 5
 177 690 l 5
 267 690 l 1
371 590 m 1
 281 590 l 1
 397 690 l 1
 487 690 l 1
 371 590 l 1
EndSplineSet
EndChar

StartChar: Sacute
Encoding: 346 346 254
Width: 625
VWidth: 0
Flags: HMW
LayerCount: 2
Fore
SplineSet
474 208 m 1
 630 215 l 1
 606 66 475 -15 326 -15 c 0
 177 -15 93 66 40 123 c 1
 148 243 l 1
 197 189 273 135 340 135 c 0
 420 135 466 160 474 208 c 1
308 501 m 1
 147 496 l 1
 171 642 302 715 446 715 c 0
 575 715 646 669 693 617 c 1
 586 490 l 1
 548 534 499 565 417 565 c 0
 349 565 314 539 308 501 c 1
420 430 m 0
 542 405 653 357 630 215 c 1
 474 208 l 1
 482 259 431 270 336 290 c 0
 227 313 126 369 147 496 c 1
 308 501 l 1
 301 458 343 446 420 430 c 0
490 770 m 1
 370 770 l 5
 473 910 l 5
 633 910 l 1
 490 770 l 1
EndSplineSet
EndChar

StartChar: sacute
Encoding: 347 347 255
Width: 520
VWidth: 0
Flags: HMW
LayerCount: 2
Fore
SplineSet
357 167 m 1
 521 157 l 5
 503 48 402 -10 263 -10 c 0
 154 -10 66 19 22 86 c 1
 120 198 l 1
 158 151 223 131 271 131 c 0
 319 131 353 142 357 167 c 1
264 365 m 1
 99 363 l 1
 118 479 231 530 350 530 c 0
 449 530 527 496 561 448 c 1
 472 345 l 1
 439 378 385 395 348 395 c 0
 310 395 268 391 264 365 c 1
383 326 m 0
 478 311 537 257 521 157 c 5
 357 167 l 1
 363 201 320 198 244 211 c 0
 163 225 83 265 99 363 c 1
 264 365 l 1
 259 335 317 337 383 326 c 0
465 590 m 1
 345 590 l 5
 448 730 l 5
 608 730 l 1
 465 590 l 1
EndSplineSet
EndChar

StartChar: Scircumflex
Encoding: 348 348 256
Width: 625
VWidth: 0
Flags: HMW
LayerCount: 2
Fore
SplineSet
474 208 m 1
 630 215 l 1
 606 66 475 -15 326 -15 c 0
 177 -15 93 66 40 123 c 1
 148 243 l 1
 197 189 273 135 340 135 c 0
 420 135 466 160 474 208 c 1
308 501 m 1
 147 496 l 1
 171 642 302 715 446 715 c 0
 575 715 646 669 693 617 c 1
 586 490 l 1
 548 534 499 565 417 565 c 0
 349 565 314 539 308 501 c 1
420 430 m 0
 542 405 653 357 630 215 c 1
 474 208 l 1
 482 259 431 270 336 290 c 0
 227 313 126 369 147 496 c 1
 308 501 l 1
 301 458 343 446 420 430 c 0
495 770 m 1
 412 870 l 1
 502 870 l 1
 585 770 l 1
 495 770 l 1
392 870 m 5
 482 870 l 1
 365 770 l 1
 275 770 l 5
 392 870 l 5
EndSplineSet
EndChar

StartChar: scircumflex
Encoding: 349 349 257
Width: 520
VWidth: 0
Flags: HMW
LayerCount: 2
Fore
SplineSet
357 167 m 1
 521 157 l 5
 503 48 402 -10 263 -10 c 0
 154 -10 66 19 22 86 c 1
 120 198 l 1
 158 151 223 131 271 131 c 0
 319 131 353 142 357 167 c 1
264 365 m 1
 99 363 l 1
 118 479 231 530 350 530 c 0
 449 530 527 496 561 448 c 1
 472 345 l 1
 439 378 385 395 348 395 c 0
 310 395 268 391 264 365 c 1
383 326 m 0
 478 311 537 257 521 157 c 5
 357 167 l 1
 363 201 320 198 244 211 c 0
 163 225 83 265 99 363 c 1
 264 365 l 1
 259 335 317 337 383 326 c 0
470 590 m 1
 386 690 l 1
 476 690 l 1
 560 590 l 1
 470 590 l 1
366 690 m 5
 456 690 l 1
 340 590 l 1
 250 590 l 5
 366 690 l 5
EndSplineSet
EndChar

StartChar: Scedilla
Encoding: 350 350 258
Width: 625
VWidth: 0
Flags: HMW
LayerCount: 2
Fore
SplineSet
474 208 m 1
 630 215 l 1
 606 66 475 -15 326 -15 c 0
 177 -15 93 66 40 123 c 1
 148 243 l 1
 197 189 273 135 340 135 c 0
 420 135 466 160 474 208 c 1
308 501 m 1
 147 496 l 1
 171 642 302 715 446 715 c 0
 575 715 646 669 693 617 c 1
 586 490 l 1
 548 534 499 565 417 565 c 0
 349 565 314 539 308 501 c 1
420 430 m 0
 542 405 653 357 630 215 c 1
 474 208 l 1
 482 259 431 270 336 290 c 0
 227 313 126 369 147 496 c 1
 308 501 l 1
 301 458 343 446 420 430 c 0
308 -3 m 1
 348 -3 l 1
 392 -37 460 -77 449 -145 c 0
 440 -202 412 -237 335 -237 c 4
 288 -237 265 -213 246 -198 c 1
 279 -128 l 1
 293 -141 312 -153 332 -153 c 0
 358 -153 369 -142 372 -122 c 0
 376 -97 349 -42 308 -3 c 1
EndSplineSet
EndChar

StartChar: scedilla
Encoding: 351 351 259
Width: 520
VWidth: 0
Flags: HMW
LayerCount: 2
Fore
SplineSet
357 167 m 1
 521 157 l 5
 503 48 402 -10 263 -10 c 0
 154 -10 66 19 22 86 c 1
 120 198 l 1
 158 151 223 131 271 131 c 0
 319 131 353 142 357 167 c 1
264 365 m 1
 99 363 l 1
 118 479 231 530 350 530 c 0
 449 530 527 496 561 448 c 1
 472 345 l 1
 439 378 385 395 348 395 c 0
 310 395 268 391 264 365 c 1
383 326 m 0
 478 311 537 257 521 157 c 5
 357 167 l 1
 363 201 320 198 244 211 c 0
 163 225 83 265 99 363 c 1
 264 365 l 1
 259 335 317 337 383 326 c 0
309 -3 m 1
 349 -3 l 1
 393 -37 461 -77 450 -145 c 0
 441 -202 413 -237 336 -237 c 4
 289 -237 266 -213 247 -198 c 1
 280 -128 l 1
 294 -141 313 -153 333 -153 c 0
 359 -153 370 -142 373 -122 c 0
 377 -97 350 -42 309 -3 c 1
EndSplineSet
EndChar

StartChar: Scaron
Encoding: 352 352 260
Width: 625
VWidth: 0
Flags: HMW
LayerCount: 2
Fore
SplineSet
474 208 m 1
 630 215 l 1
 606 66 475 -15 326 -15 c 0
 177 -15 93 66 40 123 c 1
 148 243 l 1
 197 189 273 135 340 135 c 0
 420 135 466 160 474 208 c 1
308 501 m 1
 147 496 l 1
 171 642 302 715 446 715 c 0
 575 715 646 669 693 617 c 1
 586 490 l 1
 548 534 499 565 417 565 c 0
 349 565 314 539 308 501 c 1
420 430 m 0
 542 405 653 357 630 215 c 1
 474 208 l 1
 482 259 431 270 336 290 c 0
 227 313 126 369 147 496 c 1
 308 501 l 1
 301 458 343 446 420 430 c 0
382 870 m 1
 465 770 l 1
 375 770 l 5
 292 870 l 5
 382 870 l 1
485 770 m 1
 395 770 l 1
 512 870 l 1
 602 870 l 1
 485 770 l 1
EndSplineSet
EndChar

StartChar: scaron
Encoding: 353 353 261
Width: 520
VWidth: 0
Flags: HMW
LayerCount: 2
Fore
SplineSet
357 167 m 1
 521 157 l 5
 503 48 402 -10 263 -10 c 0
 154 -10 66 19 22 86 c 1
 120 198 l 1
 158 151 223 131 271 131 c 0
 319 131 353 142 357 167 c 1
264 365 m 1
 99 363 l 1
 118 479 231 530 350 530 c 0
 449 530 527 496 561 448 c 1
 472 345 l 1
 439 378 385 395 348 395 c 0
 310 395 268 391 264 365 c 1
383 326 m 0
 478 311 537 257 521 157 c 5
 357 167 l 1
 363 201 320 198 244 211 c 0
 163 225 83 265 99 363 c 1
 264 365 l 1
 259 335 317 337 383 326 c 0
356 690 m 1
 440 590 l 1
 350 590 l 5
 266 690 l 5
 356 690 l 1
460 590 m 1
 370 590 l 1
 486 690 l 1
 576 690 l 1
 460 590 l 1
EndSplineSet
EndChar

StartChar: uni0162
Encoding: 354 354 262
Width: 690
VWidth: 0
Flags: HMW
LayerCount: 2
Fore
SplineSet
134 700 m 1
 784 700 l 5
 760 550 l 5
 110 550 l 1
 134 700 l 1
374 700 m 1
 544 700 l 1
 430 0 l 1
 260 0 l 1
 374 700 l 1
324 7 m 1
 364 7 l 1
 408 -27 477 -67 466 -135 c 0
 457 -192 429 -227 352 -227 c 4
 305 -227 281 -203 262 -188 c 1
 295 -118 l 1
 309 -131 328 -143 348 -143 c 0
 374 -143 385 -132 388 -112 c 0
 392 -87 365 -32 324 7 c 1
EndSplineSet
EndChar

StartChar: uni0163
Encoding: 355 355 263
Width: 420
VWidth: 0
Flags: HMW
LayerCount: 2
Fore
SplineSet
95 520 m 1
 465 520 l 1
 441 375 l 1
 71 375 l 1
 95 520 l 1
273 170 m 1
 103 140 l 1
 190 673 l 1
 355 673 l 1
 273 170 l 1
302 135 m 1
 316 135 333 146 343 160 c 5
 409 42 l 1
 377 13 328 -10 246 -10 c 1
 302 135 l 1
273 170 m 1
 269 148 277 135 302 135 c 5
 246 -10 l 1
 127 -10 90 61 103 140 c 1
 273 170 l 1
226 -3 m 1
 266 -3 l 1
 310 -37 378 -77 367 -145 c 0
 358 -202 330 -237 253 -237 c 4
 206 -237 183 -213 164 -198 c 1
 197 -128 l 1
 211 -141 230 -153 250 -153 c 0
 276 -153 287 -142 290 -122 c 0
 294 -97 267 -42 226 -3 c 1
EndSplineSet
EndChar

StartChar: Tcaron
Encoding: 356 356 264
Width: 690
VWidth: 0
Flags: HMW
LayerCount: 2
Fore
SplineSet
134 700 m 1
 784 700 l 5
 760 550 l 5
 110 550 l 1
 134 700 l 1
374 700 m 1
 544 700 l 1
 430 0 l 1
 260 0 l 1
 374 700 l 1
419 870 m 1
 503 770 l 1
 413 770 l 5
 329 870 l 5
 419 870 l 1
523 770 m 1
 433 770 l 1
 549 870 l 1
 639 870 l 1
 523 770 l 1
EndSplineSet
EndChar

StartChar: tcaron
Encoding: 357 357 265
Width: 420
VWidth: 0
Flags: HMW
LayerCount: 2
Fore
SplineSet
95 520 m 1
 465 520 l 1
 441 375 l 1
 71 375 l 1
 95 520 l 1
273 170 m 1
 103 140 l 1
 190 673 l 1
 355 673 l 1
 273 170 l 1
302 135 m 1
 316 135 333 146 343 160 c 5
 409 42 l 1
 377 13 328 -10 246 -10 c 1
 302 135 l 1
273 170 m 1
 269 148 277 135 302 135 c 5
 246 -10 l 1
 127 -10 90 61 103 140 c 1
 273 170 l 1
359 778 m 0
 368 836 424 883 486 883 c 0
 550 883 588 838 579 780 c 0
 573 742 545 706 521 681 c 2
 402 553 l 1
 312 553 l 1
 396 684 l 1
 364 706 353 744 359 778 c 0
EndSplineSet
EndChar

StartChar: Utilde
Encoding: 360 360 266
Width: 760
VWidth: 0
Flags: HMW
LayerCount: 2
Fore
SplineSet
594 300 m 5
 659 700 l 5
 824 700 l 5
 756 280 l 5
 594 300 l 5
96 280 m 1
 164 700 l 1
 329 700 l 1
 264 300 l 1
 96 280 l 1
594 300 m 5
 756 280 l 5
 728 111 557 -10 378 -10 c 0
 199 -10 68 111 96 280 c 1
 264 300 l 1
 250 211 318 155 405 155 c 0
 492 155 580 211 594 300 c 5
375 770 m 5
 288 790 l 1
 305 868 372 917 423 917 c 0
 487 917 515 873 559 873 c 0
 594 873 624 883 628 910 c 1
 715 890 l 1
 696 802 623 763 573 763 c 0
 511 763 487 807 444 807 c 4
 410 807 379 797 375 770 c 5
EndSplineSet
EndChar

StartChar: utilde
Encoding: 361 361 267
Width: 635
VWidth: 0
Flags: HMW
LayerCount: 2
Fore
SplineSet
78 200 m 1
 130 520 l 1
 295 520 l 1
 246 220 l 1
 78 200 l 1
585 0 m 1
 420 0 l 1
 505 520 l 1
 670 520 l 1
 585 0 l 1
246 220 m 1
 236 161 293 135 333 135 c 0
 382 135 446 160 459 240 c 1
 494 240 l 1
 471 101 392 -10 233 -10 c 0
 104 -10 57 71 78 200 c 1
 246 220 l 1
299 590 m 5
 211 610 l 1
 228 688 295 737 346 737 c 0
 410 737 438 693 482 693 c 0
 517 693 547 703 551 730 c 1
 638 710 l 1
 619 622 546 583 496 583 c 0
 434 583 410 627 367 627 c 4
 333 627 303 617 299 590 c 5
EndSplineSet
EndChar

StartChar: Umacron
Encoding: 362 362 268
Width: 760
VWidth: 0
Flags: HMW
LayerCount: 2
Fore
SplineSet
594 300 m 5
 659 700 l 5
 824 700 l 5
 756 280 l 5
 594 300 l 5
96 280 m 1
 164 700 l 1
 329 700 l 1
 264 300 l 1
 96 280 l 1
594 300 m 5
 756 280 l 5
 728 111 557 -10 378 -10 c 0
 199 -10 68 111 96 280 c 1
 264 300 l 1
 250 211 318 155 405 155 c 0
 492 155 580 211 594 300 c 5
346 850 m 1
 650 850 l 5
 637 770 l 5
 333 770 l 1
 346 850 l 1
EndSplineSet
EndChar

StartChar: umacron
Encoding: 363 363 269
Width: 635
VWidth: 0
Flags: HMW
LayerCount: 2
Fore
SplineSet
78 200 m 1
 130 520 l 1
 295 520 l 1
 246 220 l 1
 78 200 l 1
585 0 m 1
 420 0 l 1
 505 520 l 1
 670 520 l 1
 585 0 l 1
246 220 m 1
 236 161 293 135 333 135 c 0
 382 135 446 160 459 240 c 1
 494 240 l 1
 471 101 392 -10 233 -10 c 0
 104 -10 57 71 78 200 c 1
 246 220 l 1
270 670 m 1
 574 670 l 5
 561 590 l 5
 257 590 l 1
 270 670 l 1
EndSplineSet
EndChar

StartChar: Ubreve
Encoding: 364 364 270
Width: 760
VWidth: 0
Flags: HMW
LayerCount: 2
Fore
SplineSet
594 300 m 5
 659 700 l 5
 824 700 l 5
 756 280 l 5
 594 300 l 5
96 280 m 1
 164 700 l 1
 329 700 l 1
 264 300 l 1
 96 280 l 1
594 300 m 5
 756 280 l 5
 728 111 557 -10 378 -10 c 0
 199 -10 68 111 96 280 c 1
 264 300 l 1
 250 211 318 155 405 155 c 0
 492 155 580 211 594 300 c 5
502 870 m 1
 462 870 439 884 447 932 c 1
 331 926 l 1
 315 827 373 750 482 750 c 1
 502 870 l 1
502 870 m 5
 482 750 l 1
 591 750 675 827 691 926 c 1
 577 932 l 5
 569 884 544 870 502 870 c 5
EndSplineSet
EndChar

StartChar: ubreve
Encoding: 365 365 271
Width: 635
VWidth: 0
Flags: HMW
LayerCount: 2
Fore
SplineSet
78 200 m 1
 130 520 l 1
 295 520 l 1
 246 220 l 1
 78 200 l 1
585 0 m 1
 420 0 l 1
 505 520 l 1
 670 520 l 1
 585 0 l 1
246 220 m 1
 236 161 293 135 333 135 c 0
 382 135 446 160 459 240 c 1
 494 240 l 1
 471 101 392 -10 233 -10 c 0
 104 -10 57 71 78 200 c 1
 246 220 l 1
425 690 m 1
 385 690 362 704 370 752 c 1
 254 746 l 1
 238 647 296 570 405 570 c 1
 425 690 l 1
425 690 m 5
 405 570 l 1
 514 570 598 647 614 746 c 1
 500 752 l 5
 492 704 467 690 425 690 c 5
EndSplineSet
EndChar

StartChar: Uring
Encoding: 366 366 272
Width: 760
VWidth: 0
Flags: HMW
LayerCount: 2
Fore
SplineSet
594 300 m 5
 659 700 l 5
 824 700 l 5
 756 280 l 5
 594 300 l 5
96 280 m 1
 164 700 l 1
 329 700 l 1
 264 300 l 1
 96 280 l 1
594 300 m 5
 756 280 l 5
 728 111 557 -10 378 -10 c 0
 199 -10 68 111 96 280 c 1
 264 300 l 1
 250 211 318 155 405 155 c 0
 492 155 580 211 594 300 c 5
452 870 m 0
 447 841 465 820 494 820 c 0
 523 820 547 841 552 870 c 0
 557 899 539 920 510 920 c 4
 481 920 457 899 452 870 c 0
402 870 m 0
 411 925 463 970 518 970 c 0
 573 970 611 925 602 870 c 0
 593 815 540 770 485 770 c 0
 430 770 393 815 402 870 c 0
EndSplineSet
EndChar

StartChar: uring
Encoding: 367 367 273
Width: 635
VWidth: 0
Flags: HMW
LayerCount: 2
Fore
SplineSet
78 200 m 1
 130 520 l 1
 295 520 l 1
 246 220 l 1
 78 200 l 1
585 0 m 1
 420 0 l 1
 505 520 l 1
 670 520 l 1
 585 0 l 1
246 220 m 1
 236 161 293 135 333 135 c 0
 382 135 446 160 459 240 c 1
 494 240 l 1
 471 101 392 -10 233 -10 c 0
 104 -10 57 71 78 200 c 1
 246 220 l 1
375 690 m 0
 370 661 388 640 417 640 c 0
 446 640 470 661 475 690 c 0
 480 719 462 740 433 740 c 4
 404 740 380 719 375 690 c 0
325 690 m 0
 334 745 386 790 441 790 c 0
 496 790 534 745 525 690 c 0
 516 635 464 590 409 590 c 0
 354 590 316 635 325 690 c 0
EndSplineSet
EndChar

StartChar: Wcircumflex
Encoding: 372 372 274
Width: 1065
VWidth: 0
Flags: HMW
LayerCount: 2
Fore
SplineSet
564 700 m 1
 729 700 l 5
 713 690 l 5
 576 690 l 1
 564 700 l 1
830 0 m 1
 670 0 l 1
 672 10 l 1
 832 10 l 1
 830 0 l 1
729 700 m 5
 832 10 l 1
 670 0 l 1
 576 690 l 1
 729 700 l 5
830 0 m 1
 672 10 l 1
 994 700 l 1
 1164 700 l 1
 830 0 l 1
395 0 m 1
 235 0 l 1
 237 10 l 1
 397 10 l 1
 395 0 l 1
299 700 m 1
 397 10 l 1
 235 0 l 1
 129 700 l 1
 299 700 l 1
395 0 m 1
 237 10 l 1
 564 700 l 1
 713 690 l 5
 395 0 l 1
690 770 m 1
 607 870 l 1
 697 870 l 1
 780 770 l 1
 690 770 l 1
587 870 m 5
 677 870 l 1
 560 770 l 1
 470 770 l 5
 587 870 l 5
EndSplineSet
EndChar

StartChar: wcircumflex
Encoding: 373 373 275
Width: 795
VWidth: 0
Flags: HMW
LayerCount: 2
Fore
SplineSet
420 520 m 1
 565 520 l 1
 557 470 l 1
 412 470 l 1
 420 520 l 1
645 0 m 1
 490 0 l 1
 491 5 l 1
 629 25 l 1
 645 0 l 1
524 25 m 5
 705 520 l 1
 870 520 l 1
 645 0 l 1
 524 25 l 5
422 470 m 1
 565 520 l 1
 619 25 l 1
 490 0 l 1
 422 470 l 1
325 0 m 1
 170 0 l 1
 174 25 l 1
 326 5 l 1
 325 0 l 1
204 25 m 1
 420 520 l 1
 547 470 l 1
 325 0 l 1
 204 25 l 1
115 520 m 1
 280 520 l 1
 299 25 l 1
 170 0 l 1
 115 520 l 1
549 590 m 1
 465 690 l 1
 555 690 l 1
 639 590 l 1
 549 590 l 1
445 690 m 5
 535 690 l 1
 419 590 l 1
 329 590 l 5
 445 690 l 5
EndSplineSet
EndChar

StartChar: Ycircumflex
Encoding: 374 374 276
Width: 680
VWidth: 0
Flags: HMW
LayerCount: 2
Fore
SplineSet
303 295 m 1
 473 295 l 1
 425 0 l 1
 255 0 l 1
 303 295 l 1
124 700 m 1
 304 700 l 1
 473 295 l 1
 330 217 l 1
 124 700 l 1
604 700 m 1
 784 700 l 1
 420 217 l 1
 303 295 l 1
 604 700 l 1
508 770 m 1
 424 870 l 1
 514 870 l 1
 598 770 l 1
 508 770 l 1
404 870 m 5
 494 870 l 1
 378 770 l 1
 288 770 l 5
 404 870 l 5
EndSplineSet
EndChar

StartChar: ycircumflex
Encoding: 375 375 277
Width: 579
VWidth: 0
Flags: HMW
LayerCount: 2
Fore
SplineSet
94 520 m 1
 264 520 l 1
 368 25 l 1
 251 -40 l 5
 94 520 l 1
141 -75 m 1
 154 -210 l 1
 97 -210 32 -184 11 -150 c 1
 80 -42 l 1
 94 -61 112 -75 141 -75 c 1
243 -5 m 2
 484 520 l 1
 649 520 l 1
 369 -60 l 2
 323 -156 243 -210 154 -210 c 1
 141 -75 l 1
 168 -75 219 -52 243 -5 c 2
440 590 m 1
 356 690 l 1
 446 690 l 1
 530 590 l 1
 440 590 l 1
336 690 m 5
 426 690 l 1
 310 590 l 1
 220 590 l 5
 336 690 l 5
EndSplineSet
EndChar

StartChar: Ydieresis
Encoding: 376 376 278
Width: 680
VWidth: 0
Flags: HMW
LayerCount: 2
Fore
SplineSet
303 295 m 1
 473 295 l 1
 425 0 l 1
 255 0 l 1
 303 295 l 1
124 700 m 1
 304 700 l 1
 473 295 l 1
 330 217 l 1
 124 700 l 1
604 700 m 1
 784 700 l 1
 420 217 l 1
 303 295 l 1
 604 700 l 1
261 856 m 0
 269 903 314 942 361 942 c 0
 408 942 441 903 433 856 c 0
 425 809 380 770 333 770 c 0
 286 770 253 809 261 856 c 0
481 856 m 0
 489 903 534 942 581 942 c 0
 628 942 661 903 653 856 c 0
 645 809 600 770 553 770 c 0
 506 770 473 809 481 856 c 0
EndSplineSet
EndChar

StartChar: Zacute
Encoding: 377 377 279
Width: 680
VWidth: 0
Flags: HM
LayerCount: 2
Fore
SplineSet
709 580 m 1
 666 560 l 1
 719 700 l 1
 729 700 l 1
 709 580 l 1
65 120 m 1
 108 140 l 1
 55 0 l 1
 45 0 l 1
 65 120 l 1
179 700 m 1
 719 700 l 1
 665 550 l 1
 155 550 l 1
 179 700 l 1
109 150 m 1
 659 150 l 1
 635 0 l 1
 55 0 l 1
 109 150 l 1
511 560 m 1
 709 580 l 1
 263 140 l 5
 65 120 l 1
 511 560 l 1
525 770 m 1
 405 770 l 5
 508 910 l 5
 668 910 l 1
 525 770 l 1
EndSplineSet
EndChar

StartChar: zacute
Encoding: 378 378 280
Width: 570
VWidth: 0
Flags: HM
LayerCount: 2
Fore
SplineSet
59 115 m 1
 102 135 l 1
 60 0 l 1
 40 0 l 1
 59 115 l 1
104 145 m 1
 554 145 l 1
 530 0 l 1
 60 0 l 1
 104 145 l 1
585 520 m 1
 605 520 l 1
 586 405 l 1
 543 385 l 5
 585 520 l 1
145 520 m 1
 585 520 l 1
 541 375 l 5
 121 375 l 1
 145 520 l 1
373 385 m 1
 586 405 l 1
 272 135 l 1
 59 115 l 1
 373 385 l 1
446 590 m 1
 326 590 l 5
 429 730 l 5
 589 730 l 1
 446 590 l 1
EndSplineSet
EndChar

StartChar: Zdotaccent
Encoding: 379 379 281
Width: 680
VWidth: 0
Flags: HM
LayerCount: 2
Fore
SplineSet
709 580 m 1
 666 560 l 1
 719 700 l 1
 729 700 l 1
 709 580 l 1
65 120 m 1
 108 140 l 1
 55 0 l 1
 45 0 l 1
 65 120 l 1
179 700 m 1
 719 700 l 1
 665 550 l 1
 155 550 l 1
 179 700 l 1
109 150 m 1
 659 150 l 1
 635 0 l 1
 55 0 l 1
 109 150 l 1
511 560 m 1
 709 580 l 1
 263 140 l 5
 65 120 l 1
 511 560 l 1
393 856 m 0
 401 903 446 942 493 942 c 0
 540 942 573 903 565 856 c 0
 557 809 512 770 465 770 c 0
 418 770 385 809 393 856 c 0
EndSplineSet
EndChar

StartChar: zdotaccent
Encoding: 380 380 282
Width: 570
VWidth: 0
Flags: HM
LayerCount: 2
Fore
SplineSet
59 115 m 1
 102 135 l 1
 60 0 l 1
 40 0 l 1
 59 115 l 1
104 145 m 1
 554 145 l 1
 530 0 l 1
 60 0 l 1
 104 145 l 1
585 520 m 1
 605 520 l 1
 586 405 l 1
 543 385 l 5
 585 520 l 1
145 520 m 1
 585 520 l 1
 541 375 l 5
 121 375 l 1
 145 520 l 1
373 385 m 1
 586 405 l 1
 272 135 l 1
 59 115 l 1
 373 385 l 1
314 676 m 0
 322 723 367 762 414 762 c 0
 461 762 494 723 486 676 c 0
 478 629 433 590 386 590 c 0
 339 590 306 629 314 676 c 0
EndSplineSet
EndChar

StartChar: Zcaron
Encoding: 381 381 283
Width: 680
VWidth: 0
Flags: HM
LayerCount: 2
Fore
SplineSet
709 580 m 1
 666 560 l 1
 719 700 l 1
 729 700 l 1
 709 580 l 1
65 120 m 1
 108 140 l 1
 55 0 l 1
 45 0 l 1
 65 120 l 1
179 700 m 1
 719 700 l 1
 665 550 l 1
 155 550 l 1
 179 700 l 1
109 150 m 1
 659 150 l 1
 635 0 l 1
 55 0 l 1
 109 150 l 1
511 560 m 1
 709 580 l 1
 263 140 l 5
 65 120 l 1
 511 560 l 1
417 870 m 1
 500 770 l 1
 410 770 l 5
 327 870 l 5
 417 870 l 1
520 770 m 1
 430 770 l 1
 547 870 l 1
 637 870 l 1
 520 770 l 1
EndSplineSet
EndChar

StartChar: zcaron
Encoding: 382 382 284
Width: 570
VWidth: 0
Flags: HM
LayerCount: 2
Fore
SplineSet
59 115 m 1
 102 135 l 1
 60 0 l 1
 40 0 l 1
 59 115 l 1
104 145 m 1
 554 145 l 1
 530 0 l 1
 60 0 l 1
 104 145 l 1
585 520 m 1
 605 520 l 1
 586 405 l 1
 543 385 l 5
 585 520 l 1
145 520 m 1
 585 520 l 1
 541 375 l 5
 121 375 l 1
 145 520 l 1
373 385 m 1
 586 405 l 1
 272 135 l 1
 59 115 l 1
 373 385 l 1
337 690 m 1
 421 590 l 1
 331 590 l 5
 247 690 l 5
 337 690 l 1
441 590 m 1
 351 590 l 1
 467 690 l 1
 557 690 l 1
 441 590 l 1
EndSplineSet
EndChar

StartChar: Ohorn
Encoding: 416 416 285
Width: 850
VWidth: 0
Flags: HMW
LayerCount: 2
Fore
SplineSet
277 350 m 4
 258 234 325 140 448 140 c 4
 571 140 668 234 687 350 c 4
 706 466 639 560 516 560 c 4
 393 560 296 466 277 350 c 4
107 350 m 4
 139 549 326 710 541 710 c 4
 756 710 889 549 857 350 c 4
 825 151 638 -10 423 -10 c 4
 208 -10 75 151 107 350 c 4
787 685 m 0
 796 743 852 790 914 790 c 0
 978 790 1016 745 1007 687 c 0
 1001 649 973 613 949 588 c 2
 830 460 l 1
 740 460 l 1
 823 591 l 1
 791 613 781 651 787 685 c 0
EndSplineSet
EndChar

StartChar: ohorn
Encoding: 417 417 286
Width: 650
VWidth: 0
Flags: HMW
LayerCount: 2
Fore
SplineSet
247 260 m 0
 236 190 278 135 347 135 c 4
 416 135 476 190 487 260 c 0
 498 330 457 385 388 385 c 0
 319 385 258 330 247 260 c 0
82 260 m 0
 106 409 242 530 411 530 c 0
 580 530 676 409 652 260 c 0
 628 111 492 -10 323 -10 c 0
 154 -10 58 111 82 260 c 0
604 557 m 0
 613 615 669 662 731 662 c 0
 795 662 833 617 824 559 c 0
 818 521 790 485 766 460 c 2
 647 332 l 1
 557 332 l 1
 641 463 l 1
 609 485 598 523 604 557 c 0
EndSplineSet
EndChar

StartChar: Uhorn
Encoding: 431 431 287
Width: 760
VWidth: 0
Flags: HMW
LayerCount: 2
Fore
SplineSet
594 300 m 5
 659 700 l 5
 824 700 l 5
 756 280 l 5
 594 300 l 5
96 280 m 1
 164 700 l 1
 329 700 l 1
 264 300 l 1
 96 280 l 1
594 300 m 5
 756 280 l 5
 728 111 557 -10 378 -10 c 0
 199 -10 68 111 96 280 c 1
 264 300 l 1
 250 211 318 155 405 155 c 0
 492 155 580 211 594 300 c 5
802 685 m 0
 811 743 867 790 929 790 c 0
 993 790 1031 745 1022 687 c 0
 1016 649 988 613 964 588 c 2
 845 460 l 1
 755 460 l 1
 838 591 l 1
 806 613 796 651 802 685 c 0
EndSplineSet
EndChar

StartChar: uhorn
Encoding: 432 432 288
Width: 635
VWidth: 0
Flags: HMW
LayerCount: 2
Fore
SplineSet
78 200 m 1
 130 520 l 1
 295 520 l 1
 246 220 l 1
 78 200 l 1
585 0 m 1
 420 0 l 1
 505 520 l 1
 670 520 l 1
 585 0 l 1
246 220 m 1
 236 161 293 135 333 135 c 0
 382 135 446 160 459 240 c 1
 494 240 l 1
 471 101 392 -10 233 -10 c 0
 104 -10 57 71 78 200 c 1
 246 220 l 1
647 505 m 0
 656 563 712 610 774 610 c 0
 838 610 877 565 868 507 c 0
 862 469 833 433 809 408 c 2
 691 280 l 1
 601 280 l 1
 684 411 l 1
 652 433 641 471 647 505 c 0
EndSplineSet
EndChar

StartChar: uni01CD
Encoding: 461 461 289
Width: 800
VWidth: 0
Flags: HMW
LayerCount: 2
Fore
SplineSet
434 700 m 1
 594 700 l 1
 589 670 l 5
 429 670 l 5
 434 700 l 1
218 270 m 1
 650 270 l 1
 626 125 l 1
 194 125 l 1
 218 270 l 1
610 0 m 1
 449 670 l 5
 594 700 l 1
 790 0 l 1
 610 0 l 1
434 700 m 1
 569 670 l 5
 190 0 l 1
 10 0 l 1
 434 700 l 1
454 870 m 1
 538 770 l 1
 448 770 l 5
 364 870 l 5
 454 870 l 1
558 770 m 1
 468 770 l 1
 584 870 l 1
 674 870 l 1
 558 770 l 1
EndSplineSet
EndChar

StartChar: uni01CE
Encoding: 462 462 290
Width: 580
VWidth: 0
Flags: HMW
LayerCount: 2
Fore
SplineSet
379 302 m 1
 469 302 l 1
 456 218 l 1
 396 218 l 1
 379 302 l 1
420 310 m 1
 429 365 393 395 332 395 c 1
 370 530 l 1
 513 530 609 454 589 330 c 1
 420 310 l 1
332 395 m 1
 258 395 227 369 192 342 c 1
 123 450 l 1
 188 499 258 530 370 530 c 1
 332 395 l 1
420 310 m 1
 589 330 l 1
 535 0 l 1
 370 0 l 1
 420 310 l 1
224 157 m 1
 218 123 244 105 277 105 c 0
 335 105 390 120 403 200 c 1
 434 180 l 1
 416 71 327 -10 198 -10 c 4
 99 -10 29 41 47 150 c 1
 224 157 l 1
379 302 m 1
 396 218 l 1
 287 218 231 202 224 157 c 1
 47 150 l 1
 69 285 192 302 379 302 c 1
331 690 m 1
 415 590 l 1
 325 590 l 5
 241 690 l 5
 331 690 l 1
435 590 m 1
 345 590 l 1
 461 690 l 1
 551 690 l 1
 435 590 l 1
EndSplineSet
EndChar

StartChar: uni01CF
Encoding: 463 463 291
Width: 300
VWidth: 0
Flags: HMW
LayerCount: 2
Fore
SplineSet
179 700 m 5
 349 700 l 1
 235 0 l 1
 65 0 l 5
 179 700 l 5
204 870 m 1
 288 770 l 1
 198 770 l 5
 114 870 l 5
 204 870 l 1
308 770 m 1
 218 770 l 1
 334 870 l 1
 424 870 l 1
 308 770 l 1
EndSplineSet
EndChar

StartChar: uni01D0
Encoding: 464 464 292
Width: 270
VWidth: 0
Flags: HMW
LayerCount: 2
Fore
SplineSet
140 520 m 5
 300 520 l 1
 215 0 l 1
 55 0 l 5
 140 520 l 5
172 690 m 1
 256 590 l 1
 166 590 l 5
 82 690 l 5
 172 690 l 1
276 590 m 1
 186 590 l 1
 302 690 l 1
 392 690 l 1
 276 590 l 1
EndSplineSet
EndChar

StartChar: uni01D1
Encoding: 465 465 293
Width: 850
VWidth: 0
Flags: HM
LayerCount: 2
Fore
SplineSet
277 350 m 4
 258 234 325 140 448 140 c 4
 571 140 668 234 687 350 c 4
 706 466 639 560 516 560 c 4
 393 560 296 466 277 350 c 4
107 350 m 4
 139 549 326 710 541 710 c 4
 756 710 889 549 857 350 c 4
 825 151 638 -10 423 -10 c 4
 208 -10 75 151 107 350 c 4
502 870 m 1
 585 770 l 1
 495 770 l 5
 412 870 l 5
 502 870 l 1
605 770 m 1
 515 770 l 1
 632 870 l 1
 722 870 l 1
 605 770 l 1
EndSplineSet
EndChar

StartChar: uni01D2
Encoding: 466 466 294
Width: 650
VWidth: 0
Flags: HMW
LayerCount: 2
Fore
SplineSet
247 260 m 0
 236 190 278 135 347 135 c 4
 416 135 476 190 487 260 c 0
 498 330 457 385 388 385 c 0
 319 385 258 330 247 260 c 0
82 260 m 0
 106 409 242 530 411 530 c 0
 580 530 676 409 652 260 c 0
 628 111 492 -10 323 -10 c 0
 154 -10 58 111 82 260 c 0
372 690 m 1
 456 590 l 1
 366 590 l 5
 282 690 l 5
 372 690 l 1
476 590 m 1
 386 590 l 1
 502 690 l 1
 592 690 l 1
 476 590 l 1
EndSplineSet
EndChar

StartChar: uni01D3
Encoding: 467 467 295
Width: 760
VWidth: 0
Flags: HMW
LayerCount: 2
Fore
SplineSet
594 300 m 5
 659 700 l 5
 824 700 l 5
 756 280 l 5
 594 300 l 5
96 280 m 1
 164 700 l 1
 329 700 l 1
 264 300 l 1
 96 280 l 1
594 300 m 5
 756 280 l 5
 728 111 557 -10 378 -10 c 0
 199 -10 68 111 96 280 c 1
 264 300 l 1
 250 211 318 155 405 155 c 0
 492 155 580 211 594 300 c 5
437 870 m 1
 520 770 l 1
 430 770 l 5
 347 870 l 5
 437 870 l 1
540 770 m 1
 450 770 l 1
 567 870 l 1
 657 870 l 1
 540 770 l 1
EndSplineSet
EndChar

StartChar: uni01D4
Encoding: 468 468 296
Width: 635
VWidth: 0
Flags: HMW
LayerCount: 2
Fore
SplineSet
78 200 m 1
 130 520 l 1
 295 520 l 1
 246 220 l 1
 78 200 l 1
585 0 m 1
 420 0 l 1
 505 520 l 1
 670 520 l 1
 585 0 l 1
246 220 m 1
 236 161 293 135 333 135 c 0
 382 135 446 160 459 240 c 1
 494 240 l 1
 471 101 392 -10 233 -10 c 0
 104 -10 57 71 78 200 c 1
 246 220 l 1
360 690 m 1
 444 590 l 1
 354 590 l 5
 270 690 l 5
 360 690 l 1
464 590 m 1
 374 590 l 1
 490 690 l 1
 580 690 l 1
 464 590 l 1
EndSplineSet
EndChar

StartChar: uni01D5
Encoding: 469 469 297
Width: 760
VWidth: 0
Flags: HMW
LayerCount: 2
Fore
SplineSet
594 300 m 5
 659 700 l 5
 824 700 l 5
 756 280 l 5
 594 300 l 5
96 280 m 1
 164 700 l 1
 329 700 l 1
 264 300 l 1
 96 280 l 1
594 300 m 5
 756 280 l 5
 728 111 557 -10 378 -10 c 0
 199 -10 68 111 96 280 c 1
 264 300 l 1
 250 211 318 155 405 155 c 0
 492 155 580 211 594 300 c 5
303 856 m 0
 311 903 356 942 403 942 c 0
 450 942 483 903 475 856 c 0
 467 809 422 770 375 770 c 0
 328 770 295 809 303 856 c 0
523 856 m 0
 531 903 576 942 623 942 c 0
 670 942 703 903 695 856 c 0
 687 809 642 770 595 770 c 0
 548 770 515 809 523 856 c 0
377 1040 m 1
 681 1040 l 5
 668 960 l 5
 364 960 l 1
 377 1040 l 1
EndSplineSet
EndChar

StartChar: uni01D6
Encoding: 470 470 298
Width: 635
VWidth: 0
Flags: HMW
LayerCount: 2
Fore
SplineSet
78 200 m 1
 130 520 l 1
 295 520 l 1
 246 220 l 1
 78 200 l 1
585 0 m 1
 420 0 l 1
 505 520 l 1
 670 520 l 1
 585 0 l 1
246 220 m 1
 236 161 293 135 333 135 c 0
 382 135 446 160 459 240 c 1
 494 240 l 1
 471 101 392 -10 233 -10 c 0
 104 -10 57 71 78 200 c 1
 246 220 l 1
227 676 m 0
 235 723 280 762 327 762 c 0
 374 762 407 723 399 676 c 0
 391 629 346 590 299 590 c 0
 252 590 219 629 227 676 c 0
447 676 m 0
 455 723 500 762 547 762 c 0
 594 762 627 723 619 676 c 0
 611 629 566 590 519 590 c 0
 472 590 439 629 447 676 c 0
301 860 m 1
 605 860 l 5
 592 780 l 5
 288 780 l 1
 301 860 l 1
EndSplineSet
EndChar

StartChar: uni01D7
Encoding: 471 471 299
Width: 760
VWidth: 0
Flags: HMW
LayerCount: 2
Fore
SplineSet
594 300 m 5
 659 700 l 5
 824 700 l 5
 756 280 l 5
 594 300 l 5
96 280 m 1
 164 700 l 1
 329 700 l 1
 264 300 l 1
 96 280 l 1
594 300 m 5
 756 280 l 5
 728 111 557 -10 378 -10 c 0
 199 -10 68 111 96 280 c 1
 264 300 l 1
 250 211 318 155 405 155 c 0
 492 155 580 211 594 300 c 5
303 856 m 0
 311 903 356 942 403 942 c 0
 450 942 483 903 475 856 c 0
 467 809 422 770 375 770 c 0
 328 770 295 809 303 856 c 0
523 856 m 0
 531 903 576 942 623 942 c 0
 670 942 703 903 695 856 c 0
 687 809 642 770 595 770 c 0
 548 770 515 809 523 856 c 0
576 960 m 1
 456 960 l 5
 559 1100 l 5
 719 1100 l 1
 576 960 l 1
EndSplineSet
EndChar

StartChar: uni01D8
Encoding: 472 472 300
Width: 635
VWidth: 0
Flags: HMW
LayerCount: 2
Fore
SplineSet
78 200 m 1
 130 520 l 1
 295 520 l 1
 246 220 l 1
 78 200 l 1
585 0 m 1
 420 0 l 1
 505 520 l 1
 670 520 l 1
 585 0 l 1
246 220 m 1
 236 161 293 135 333 135 c 0
 382 135 446 160 459 240 c 1
 494 240 l 1
 471 101 392 -10 233 -10 c 0
 104 -10 57 71 78 200 c 1
 246 220 l 1
227 676 m 0
 235 723 280 762 327 762 c 0
 374 762 407 723 399 676 c 0
 391 629 346 590 299 590 c 0
 252 590 219 629 227 676 c 0
447 676 m 0
 455 723 500 762 547 762 c 0
 594 762 627 723 619 676 c 0
 611 629 566 590 519 590 c 0
 472 590 439 629 447 676 c 0
500 780 m 1
 380 780 l 5
 482 920 l 5
 642 920 l 1
 500 780 l 1
EndSplineSet
EndChar

StartChar: uni01D9
Encoding: 473 473 301
Width: 760
VWidth: 0
Flags: HMW
LayerCount: 2
Fore
SplineSet
594 300 m 5
 659 700 l 5
 824 700 l 5
 756 280 l 5
 594 300 l 5
96 280 m 1
 164 700 l 1
 329 700 l 1
 264 300 l 1
 96 280 l 1
594 300 m 5
 756 280 l 5
 728 111 557 -10 378 -10 c 0
 199 -10 68 111 96 280 c 1
 264 300 l 1
 250 211 318 155 405 155 c 0
 492 155 580 211 594 300 c 5
303 856 m 0
 311 903 356 942 403 942 c 0
 450 942 483 903 475 856 c 0
 467 809 422 770 375 770 c 0
 328 770 295 809 303 856 c 0
523 856 m 0
 531 903 576 942 623 942 c 0
 670 942 703 903 695 856 c 0
 687 809 642 770 595 770 c 0
 548 770 515 809 523 856 c 0
468 1060 m 1
 551 960 l 1
 461 960 l 5
 378 1060 l 5
 468 1060 l 1
571 960 m 1
 481 960 l 1
 598 1060 l 1
 688 1060 l 1
 571 960 l 1
EndSplineSet
EndChar

StartChar: uni01DA
Encoding: 474 474 302
Width: 635
VWidth: 0
Flags: HMW
LayerCount: 2
Fore
SplineSet
78 200 m 1
 130 520 l 1
 295 520 l 1
 246 220 l 1
 78 200 l 1
585 0 m 1
 420 0 l 1
 505 520 l 1
 670 520 l 1
 585 0 l 1
246 220 m 1
 236 161 293 135 333 135 c 0
 382 135 446 160 459 240 c 1
 494 240 l 1
 471 101 392 -10 233 -10 c 0
 104 -10 57 71 78 200 c 1
 246 220 l 1
227 676 m 0
 235 723 280 762 327 762 c 0
 374 762 407 723 399 676 c 0
 391 629 346 590 299 590 c 0
 252 590 219 629 227 676 c 0
447 676 m 0
 455 723 500 762 547 762 c 0
 594 762 627 723 619 676 c 0
 611 629 566 590 519 590 c 0
 472 590 439 629 447 676 c 0
391 880 m 1
 475 780 l 1
 385 780 l 5
 301 880 l 5
 391 880 l 1
495 780 m 1
 405 780 l 1
 521 880 l 1
 611 880 l 1
 495 780 l 1
EndSplineSet
EndChar

StartChar: uni01DB
Encoding: 475 475 303
Width: 760
VWidth: 0
Flags: HMW
LayerCount: 2
Fore
SplineSet
594 300 m 5
 659 700 l 5
 824 700 l 5
 756 280 l 5
 594 300 l 5
96 280 m 1
 164 700 l 1
 329 700 l 1
 264 300 l 1
 96 280 l 1
594 300 m 5
 756 280 l 5
 728 111 557 -10 378 -10 c 0
 199 -10 68 111 96 280 c 1
 264 300 l 1
 250 211 318 155 405 155 c 0
 492 155 580 211 594 300 c 5
303 856 m 0
 311 903 356 942 403 942 c 0
 450 942 483 903 475 856 c 0
 467 809 422 770 375 770 c 0
 328 770 295 809 303 856 c 0
523 856 m 0
 531 903 576 942 623 942 c 0
 670 942 703 903 695 856 c 0
 687 809 642 770 595 770 c 0
 548 770 515 809 523 856 c 0
446 960 m 5
 349 1100 l 5
 529 1100 l 1
 586 960 l 1
 446 960 l 5
EndSplineSet
EndChar

StartChar: uni01DC
Encoding: 476 476 304
Width: 635
VWidth: 0
Flags: HMW
LayerCount: 2
Fore
SplineSet
78 200 m 1
 130 520 l 1
 295 520 l 1
 246 220 l 1
 78 200 l 1
585 0 m 1
 420 0 l 1
 505 520 l 1
 670 520 l 1
 585 0 l 1
246 220 m 1
 236 161 293 135 333 135 c 0
 382 135 446 160 459 240 c 1
 494 240 l 1
 471 101 392 -10 233 -10 c 0
 104 -10 57 71 78 200 c 1
 246 220 l 1
227 676 m 0
 235 723 280 762 327 762 c 0
 374 762 407 723 399 676 c 0
 391 629 346 590 299 590 c 0
 252 590 219 629 227 676 c 0
447 676 m 0
 455 723 500 762 547 762 c 0
 594 762 627 723 619 676 c 0
 611 629 566 590 519 590 c 0
 472 590 439 629 447 676 c 0
370 780 m 5
 272 920 l 5
 452 920 l 1
 510 780 l 1
 370 780 l 5
EndSplineSet
EndChar

StartChar: uni01DE
Encoding: 478 478 305
Width: 800
VWidth: 0
Flags: HMW
LayerCount: 2
Fore
SplineSet
434 700 m 1
 594 700 l 1
 589 670 l 5
 429 670 l 5
 434 700 l 1
218 270 m 1
 650 270 l 1
 626 125 l 1
 194 125 l 1
 218 270 l 1
610 0 m 1
 449 670 l 5
 594 700 l 1
 790 0 l 1
 610 0 l 1
434 700 m 1
 569 670 l 5
 190 0 l 1
 10 0 l 1
 434 700 l 1
341 856 m 0
 349 903 394 942 441 942 c 0
 488 942 521 903 513 856 c 0
 505 809 460 770 413 770 c 0
 366 770 333 809 341 856 c 0
561 856 m 0
 569 903 614 942 661 942 c 0
 708 942 741 903 733 856 c 0
 725 809 680 770 633 770 c 0
 586 770 553 809 561 856 c 0
395 1040 m 1
 699 1040 l 5
 686 960 l 5
 382 960 l 1
 395 1040 l 1
EndSplineSet
EndChar

StartChar: uni01DF
Encoding: 479 479 306
Width: 580
VWidth: 0
Flags: HMW
LayerCount: 2
Fore
SplineSet
379 302 m 1
 469 302 l 1
 456 218 l 1
 396 218 l 1
 379 302 l 1
420 310 m 1
 429 365 393 395 332 395 c 1
 370 530 l 1
 513 530 609 454 589 330 c 1
 420 310 l 1
332 395 m 1
 258 395 227 369 192 342 c 1
 123 450 l 1
 188 499 258 530 370 530 c 1
 332 395 l 1
420 310 m 1
 589 330 l 1
 535 0 l 1
 370 0 l 1
 420 310 l 1
224 157 m 1
 218 123 244 105 277 105 c 0
 335 105 390 120 403 200 c 1
 434 180 l 1
 416 71 327 -10 198 -10 c 4
 99 -10 29 41 47 150 c 1
 224 157 l 1
379 302 m 1
 396 218 l 1
 287 218 231 202 224 157 c 1
 47 150 l 1
 69 285 192 302 379 302 c 1
198 676 m 0
 206 723 251 762 298 762 c 0
 345 762 378 723 370 676 c 0
 362 629 317 590 270 590 c 0
 223 590 190 629 198 676 c 0
418 676 m 0
 426 723 471 762 518 762 c 0
 565 762 598 723 590 676 c 0
 582 629 537 590 490 590 c 0
 443 590 410 629 418 676 c 0
272 860 m 1
 576 860 l 5
 563 780 l 5
 259 780 l 1
 272 860 l 1
EndSplineSet
EndChar

StartChar: Gcaron
Encoding: 486 486 307
Width: 782
VWidth: 0
Flags: HMW
LayerCount: 2
Fore
SplineSet
802 400 m 1
 779 260 l 1
 477 260 l 1
 500 400 l 1
 802 400 l 1
755 113 m 1
 596 113 l 1
 638 370 l 1
 797 370 l 1
 755 113 l 1
267 350 m 0
 247 229 318 150 449 150 c 0
 527 150 602 172 665 233 c 1
 755 113 l 1
 678 38 549 -10 423 -10 c 4
 198 -10 65 151 97 350 c 0
 129 549 316 710 541 710 c 4
 667 710 760 662 813 587 c 1
 680 482 l 5
 641 538 594 560 516 560 c 0
 385 560 287 471 267 350 c 0
502 870 m 1
 585 770 l 1
 495 770 l 5
 412 870 l 5
 502 870 l 1
605 770 m 1
 515 770 l 1
 632 870 l 1
 722 870 l 1
 605 770 l 1
EndSplineSet
EndChar

StartChar: gcaron
Encoding: 487 487 308
Width: 655
VWidth: 0
Flags: HMW
LayerCount: 2
Fore
SplineSet
482 260 m 0
 495 339 453 385 378 385 c 4
 303 385 250 339 237 260 c 0
 224 181 262 135 337 135 c 4
 412 135 469 181 482 260 c 0
517 260 m 0
 493 111 432 -10 268 -10 c 0
 144 -10 46 101 72 260 c 0
 98 419 232 530 356 530 c 0
 530 530 541 409 517 260 c 0
299 -78 m 1
 287 -220 l 1
 130 -220 51 -172 14 -108 c 1
 163 -32 l 1
 183 -56 236 -78 299 -78 c 1
608 20 m 1
 443 20 l 1
 525 520 l 1
 690 520 l 1
 608 20 l 1
443 20 m 1
 608 20 l 1
 585 -119 436 -220 287 -220 c 1
 299 -78 l 1
 356 -78 433 -39 443 20 c 1
347 690 m 1
 431 590 l 1
 341 590 l 5
 257 690 l 5
 347 690 l 1
451 590 m 1
 361 590 l 1
 477 690 l 1
 567 690 l 1
 451 590 l 1
EndSplineSet
EndChar

StartChar: uni01E8
Encoding: 488 488 309
Width: 745
VWidth: 0
Flags: HMW
LayerCount: 2
Fore
SplineSet
304 413 m 1
 492 419 l 5
 750 0 l 1
 556 0 l 1
 304 413 l 1
609 700 m 1
 814 700 l 1
 264 207 l 1
 102 230 l 1
 609 700 l 1
174 700 m 1
 344 700 l 1
 230 0 l 1
 60 0 l 1
 174 700 l 1
439 870 m 1
 523 770 l 1
 433 770 l 5
 349 870 l 5
 439 870 l 1
543 770 m 1
 453 770 l 1
 569 870 l 1
 659 870 l 1
 543 770 l 1
EndSplineSet
EndChar

StartChar: uni01E9
Encoding: 489 489 310
Width: 615
VWidth: 0
Flags: HMW
LayerCount: 2
Fore
SplineSet
270 291 m 5
 436 311 l 1
 620 0 l 1
 442 0 l 1
 270 291 l 5
499 520 m 1
 685 520 l 1
 233 110 l 1
 100 154 l 1
 499 520 l 1
169 730 m 1
 334 730 l 1
 215 0 l 1
 50 0 l 1
 169 730 l 1
185 890 m 1
 269 790 l 1
 179 790 l 5
 95 890 l 5
 185 890 l 1
289 790 m 1
 199 790 l 1
 315 890 l 1
 405 890 l 1
 289 790 l 1
EndSplineSet
EndChar

StartChar: uni01F0
Encoding: 496 496 311
Width: 270
VWidth: 0
Flags: HMW
LayerCount: 2
Fore
SplineSet
134 520 m 1
 299 520 l 1
 204 -60 l 1
 44 -30 l 1
 134 520 l 1
1 -65 m 1
 8 -210 l 1
 -49 -210 -117 -192 -138 -158 c 1
 -48 -37 l 1
 -34 -56 -21 -65 1 -65 c 1
44 -30 m 1
 204 -60 l 1
 185 -179 97 -210 8 -210 c 1
 1 -65 l 1
 28 -65 40 -57 44 -30 c 1
176 690 m 1
 260 590 l 1
 170 590 l 5
 86 690 l 5
 176 690 l 1
280 590 m 1
 190 590 l 1
 306 690 l 1
 396 690 l 1
 280 590 l 1
EndSplineSet
EndChar

StartChar: uni01F4
Encoding: 500 500 312
Width: 782
VWidth: 0
Flags: HMW
LayerCount: 2
Fore
SplineSet
802 400 m 1
 779 260 l 1
 477 260 l 1
 500 400 l 1
 802 400 l 1
755 113 m 1
 596 113 l 1
 638 370 l 1
 797 370 l 1
 755 113 l 1
267 350 m 0
 247 229 318 150 449 150 c 0
 527 150 602 172 665 233 c 1
 755 113 l 1
 678 38 549 -10 423 -10 c 4
 198 -10 65 151 97 350 c 0
 129 549 316 710 541 710 c 4
 667 710 760 662 813 587 c 1
 680 482 l 5
 641 538 594 560 516 560 c 0
 385 560 287 471 267 350 c 0
610 770 m 1
 490 770 l 5
 593 910 l 5
 753 910 l 1
 610 770 l 1
EndSplineSet
EndChar

StartChar: uni01F5
Encoding: 501 501 313
Width: 655
VWidth: 0
Flags: HMW
LayerCount: 2
Fore
SplineSet
482 260 m 0
 495 339 453 385 378 385 c 4
 303 385 250 339 237 260 c 0
 224 181 262 135 337 135 c 4
 412 135 469 181 482 260 c 0
517 260 m 0
 493 111 432 -10 268 -10 c 0
 144 -10 46 101 72 260 c 0
 98 419 232 530 356 530 c 0
 530 530 541 409 517 260 c 0
299 -78 m 1
 287 -220 l 1
 130 -220 51 -172 14 -108 c 1
 163 -32 l 1
 183 -56 236 -78 299 -78 c 1
608 20 m 1
 443 20 l 1
 525 520 l 1
 690 520 l 1
 608 20 l 1
443 20 m 1
 608 20 l 1
 585 -119 436 -220 287 -220 c 1
 299 -78 l 1
 356 -78 433 -39 443 20 c 1
456 590 m 1
 336 590 l 5
 439 730 l 5
 599 730 l 1
 456 590 l 1
EndSplineSet
EndChar

StartChar: uni01F8
Encoding: 504 504 314
Width: 790
VWidth: 0
Flags: HMW
LayerCount: 2
Fore
SplineSet
730 0 m 1
 570 0 l 1
 574 24 l 1
 732 14 l 1
 730 0 l 1
334 700 m 1
 331 680 l 1
 171 680 l 1
 174 700 l 1
 334 700 l 1
172 625 m 5
 334 700 l 1
 732 75 l 1
 570 0 l 1
 172 625 l 5
674 700 m 1
 844 700 l 1
 730 0 l 1
 563 20 l 1
 674 700 l 1
174 700 m 1
 341 680 l 1
 230 0 l 1
 60 0 l 1
 174 700 l 1
425 770 m 5
 328 910 l 5
 508 910 l 1
 565 770 l 1
 425 770 l 5
EndSplineSet
EndChar

StartChar: uni01F9
Encoding: 505 505 315
Width: 635
VWidth: 0
Flags: HMW
LayerCount: 2
Fore
SplineSet
642 320 m 5
 590 0 l 5
 425 0 l 5
 474 300 l 5
 642 320 l 5
135 520 m 5
 300 520 l 5
 215 0 l 5
 50 0 l 5
 135 520 l 5
474 300 m 5
 484 359 427 385 387 385 c 4
 338 385 274 360 261 280 c 5
 226 280 l 5
 249 419 327 530 486 530 c 4
 615 530 663 449 642 320 c 5
 474 300 l 5
344 590 m 5
 246 730 l 5
 426 730 l 1
 484 590 l 1
 344 590 l 5
EndSplineSet
EndChar

StartChar: Aringacute
Encoding: 506 506 316
Width: 800
VWidth: 0
Flags: HMW
LayerCount: 2
Fore
SplineSet
434 700 m 1
 594 700 l 1
 589 670 l 5
 429 670 l 5
 434 700 l 1
218 270 m 1
 650 270 l 1
 626 125 l 1
 194 125 l 1
 218 270 l 1
610 0 m 1
 449 670 l 5
 594 700 l 1
 790 0 l 1
 610 0 l 1
434 700 m 1
 569 670 l 5
 190 0 l 1
 10 0 l 1
 434 700 l 1
471 760 m 0
 466 731 484 710 513 710 c 0
 542 710 566 731 571 760 c 0
 576 789 558 810 529 810 c 4
 500 810 476 789 471 760 c 0
421 760 m 0
 430 815 483 860 538 860 c 0
 593 860 630 815 621 760 c 0
 612 705 560 660 505 660 c 0
 450 660 412 705 421 760 c 0
594 963 m 1
 474 963 l 5
 577 1103 l 5
 737 1103 l 1
 594 963 l 1
EndSplineSet
EndChar

StartChar: aringacute
Encoding: 507 507 317
Width: 580
VWidth: 0
Flags: HMW
LayerCount: 2
Fore
SplineSet
379 302 m 1
 469 302 l 1
 456 218 l 1
 396 218 l 1
 379 302 l 1
420 310 m 1
 429 365 393 395 332 395 c 1
 370 530 l 1
 513 530 609 454 589 330 c 1
 420 310 l 1
332 395 m 1
 258 395 227 369 192 342 c 1
 123 450 l 1
 188 499 258 530 370 530 c 1
 332 395 l 1
420 310 m 1
 589 330 l 1
 535 0 l 1
 370 0 l 1
 420 310 l 1
224 157 m 1
 218 123 244 105 277 105 c 0
 335 105 390 120 403 200 c 1
 434 180 l 1
 416 71 327 -10 198 -10 c 4
 99 -10 29 41 47 150 c 1
 224 157 l 1
379 302 m 1
 396 218 l 1
 287 218 231 202 224 157 c 1
 47 150 l 1
 69 285 192 302 379 302 c 1
346 690 m 0
 341 661 359 640 388 640 c 0
 417 640 441 661 446 690 c 0
 451 719 434 740 405 740 c 4
 376 740 351 719 346 690 c 0
296 690 m 0
 305 745 358 790 413 790 c 0
 468 790 505 745 496 690 c 0
 487 635 435 590 380 590 c 0
 325 590 287 635 296 690 c 0
482 850 m 1
 362 850 l 5
 465 990 l 5
 625 990 l 1
 482 850 l 1
EndSplineSet
EndChar

StartChar: uni0202
Encoding: 514 514 318
Width: 800
VWidth: 0
Flags: HMW
LayerCount: 2
Fore
SplineSet
434 700 m 1
 594 700 l 1
 589 670 l 5
 429 670 l 5
 434 700 l 1
218 270 m 1
 650 270 l 1
 626 125 l 1
 194 125 l 1
 218 270 l 1
610 0 m 1
 449 670 l 5
 594 700 l 1
 790 0 l 1
 610 0 l 1
434 700 m 1
 569 670 l 5
 190 0 l 1
 10 0 l 1
 434 700 l 1
511 822 m 1
 471 822 444 808 436 760 c 1
 322 766 l 1
 338 865 422 942 531 942 c 1
 511 822 l 1
511 822 m 5
 531 942 l 1
 640 942 698 865 682 766 c 1
 566 760 l 5
 574 808 553 822 511 822 c 5
EndSplineSet
EndChar

StartChar: uni0206
Encoding: 518 518 319
Width: 670
VWidth: 0
Flags: HM
LayerCount: 2
Fore
SplineSet
131 433 m 1
 671 433 l 5
 646 283 l 5
 106 283 l 1
 131 433 l 1
174 700 m 1
 764 700 l 5
 740 550 l 5
 150 550 l 1
 174 700 l 1
86 160 m 1
 676 160 l 5
 650 0 l 5
 60 0 l 1
 86 160 l 1
174 700 m 1
 344 700 l 1
 230 0 l 1
 60 0 l 1
 174 700 l 1
489 822 m 1
 449 822 422 808 414 760 c 1
 300 766 l 1
 316 865 399 942 508 942 c 1
 489 822 l 1
489 822 m 5
 508 942 l 1
 617 942 676 865 660 766 c 1
 544 760 l 5
 552 808 531 822 489 822 c 5
EndSplineSet
EndChar

StartChar: uni0207
Encoding: 519 519 320
Width: 615
VWidth: 0
Flags: HMW
LayerCount: 2
Fore
SplineSet
622 260 m 1
 616 220 l 1
 451 220 l 1
 457 260 l 1
 622 260 l 1
451 220 m 1
 145 220 l 1
 161 317 l 1
 467 317 l 1
 451 220 l 1
457 260 m 1
 474 364 446 403 379 403 c 0
 312 403 254 364 237 260 c 1
 72 260 l 1
 98 419 227 530 406 530 c 0
 565 530 648 419 622 260 c 1
 457 260 l 1
72 260 m 1
 237 260 l 1
 225 186 291 125 342 125 c 0
 386 125 428 146 462 177 c 1
 568 92 l 1
 511 28 405 -10 318 -10 c 0
 159 -10 46 101 72 260 c 1
410 642 m 1
 370 642 342 628 334 580 c 1
 220 586 l 1
 236 685 320 762 429 762 c 1
 410 642 l 1
410 642 m 5
 429 762 l 1
 538 762 596 685 580 586 c 1
 464 580 l 5
 472 628 452 642 410 642 c 5
EndSplineSet
EndChar

StartChar: uni020A
Encoding: 522 522 321
Width: 300
VWidth: 0
Flags: HMW
LayerCount: 2
Fore
SplineSet
179 700 m 5
 349 700 l 1
 235 0 l 1
 65 0 l 5
 179 700 l 5
261 822 m 1
 221 822 194 808 186 760 c 1
 72 766 l 1
 88 865 172 942 281 942 c 1
 261 822 l 1
261 822 m 5
 281 942 l 1
 390 942 448 865 432 766 c 1
 316 760 l 5
 324 808 303 822 261 822 c 5
EndSplineSet
EndChar

StartChar: uni020B
Encoding: 523 523 322
Width: 270
VWidth: 0
Flags: HMW
LayerCount: 2
Fore
SplineSet
140 520 m 5
 300 520 l 1
 215 0 l 1
 55 0 l 5
 140 520 l 5
230 642 m 1
 190 642 162 628 154 580 c 1
 40 586 l 1
 56 685 140 762 249 762 c 1
 230 642 l 1
230 642 m 5
 249 762 l 1
 358 762 416 685 400 586 c 1
 284 580 l 5
 292 628 272 642 230 642 c 5
EndSplineSet
EndChar

StartChar: uni020E
Encoding: 526 526 323
Width: 850
VWidth: 0
Flags: HM
LayerCount: 2
Fore
SplineSet
277 350 m 4
 258 234 325 140 448 140 c 4
 571 140 668 234 687 350 c 4
 706 466 639 560 516 560 c 4
 393 560 296 466 277 350 c 4
107 350 m 4
 139 549 326 710 541 710 c 4
 756 710 889 549 857 350 c 4
 825 151 638 -10 423 -10 c 4
 208 -10 75 151 107 350 c 4
559 822 m 1
 519 822 492 808 484 760 c 1
 370 766 l 1
 386 865 469 942 578 942 c 1
 559 822 l 1
559 822 m 5
 578 942 l 1
 687 942 746 865 730 766 c 1
 614 760 l 5
 622 808 601 822 559 822 c 5
EndSplineSet
EndChar

StartChar: uni020F
Encoding: 527 527 324
Width: 650
VWidth: 0
Flags: HMW
LayerCount: 2
Fore
SplineSet
247 260 m 0
 236 190 278 135 347 135 c 4
 416 135 476 190 487 260 c 0
 498 330 457 385 388 385 c 0
 319 385 258 330 247 260 c 0
82 260 m 0
 106 409 242 530 411 530 c 0
 580 530 676 409 652 260 c 0
 628 111 492 -10 323 -10 c 0
 154 -10 58 111 82 260 c 0
430 642 m 1
 390 642 362 628 354 580 c 1
 240 586 l 1
 256 685 340 762 449 762 c 1
 430 642 l 1
430 642 m 5
 449 762 l 1
 558 762 616 685 600 586 c 1
 484 580 l 5
 492 628 472 642 430 642 c 5
EndSplineSet
EndChar

StartChar: uni0212
Encoding: 530 530 325
Width: 718
VWidth: 0
Flags: HMW
LayerCount: 2
Fore
SplineSet
446 373 m 1
 514 373 560 410 569 465 c 0
 578 520 543 550 475 550 c 1
 519 700 l 1
 668 700 761 600 739 465 c 0
 717 331 590 223 441 223 c 1
 446 373 l 1
179 700 m 1
 349 700 l 1
 235 0 l 1
 65 0 l 1
 179 700 l 1
214 700 m 1
 519 700 l 1
 475 550 l 1
 190 550 l 1
 214 700 l 1
161 373 m 1
 446 373 l 1
 441 223 l 1
 136 223 l 1
 161 373 l 1
315 320 m 1
 500 320 l 1
 708 0 l 1
 523 0 l 1
 315 320 l 1
466 822 m 1
 426 822 399 808 391 760 c 1
 277 766 l 1
 293 865 377 942 486 942 c 1
 466 822 l 1
466 822 m 5
 486 942 l 1
 595 942 653 865 637 766 c 1
 521 760 l 5
 529 808 508 822 466 822 c 5
EndSplineSet
EndChar

StartChar: uni0213
Encoding: 531 531 326
Width: 410
VWidth: 0
Flags: HMW
LayerCount: 2
Fore
SplineSet
135 520 m 1
 300 520 l 1
 215 0 l 1
 50 0 l 1
 135 520 l 1
456 375 m 1
 431 375 l 2
 337 375 270 340 259 270 c 1
 224 270 l 1
 250 429 321 520 480 520 c 5
 456 375 l 1
325 642 m 1
 285 642 257 628 249 580 c 1
 135 586 l 1
 151 685 235 762 344 762 c 1
 325 642 l 1
325 642 m 5
 344 762 l 1
 453 762 511 685 495 586 c 1
 379 580 l 5
 387 628 367 642 325 642 c 5
EndSplineSet
EndChar

StartChar: uni0216
Encoding: 534 534 327
Width: 760
VWidth: 0
Flags: HMW
LayerCount: 2
Fore
SplineSet
594 300 m 5
 659 700 l 5
 824 700 l 5
 756 280 l 5
 594 300 l 5
96 280 m 1
 164 700 l 1
 329 700 l 1
 264 300 l 1
 96 280 l 1
594 300 m 5
 756 280 l 5
 728 111 557 -10 378 -10 c 0
 199 -10 68 111 96 280 c 1
 264 300 l 1
 250 211 318 155 405 155 c 0
 492 155 580 211 594 300 c 5
494 822 m 1
 454 822 427 808 419 760 c 1
 305 766 l 1
 321 865 404 942 513 942 c 1
 494 822 l 1
494 822 m 5
 513 942 l 1
 622 942 681 865 665 766 c 1
 549 760 l 5
 557 808 536 822 494 822 c 5
EndSplineSet
EndChar

StartChar: uni0217
Encoding: 535 535 328
Width: 635
VWidth: 0
Flags: HMW
LayerCount: 2
Fore
SplineSet
78 200 m 1
 130 520 l 1
 295 520 l 1
 246 220 l 1
 78 200 l 1
585 0 m 1
 420 0 l 1
 505 520 l 1
 670 520 l 1
 585 0 l 1
246 220 m 1
 236 161 293 135 333 135 c 0
 382 135 446 160 459 240 c 1
 494 240 l 1
 471 101 392 -10 233 -10 c 0
 104 -10 57 71 78 200 c 1
 246 220 l 1
417 642 m 1
 377 642 350 628 342 580 c 1
 228 586 l 1
 244 685 328 762 437 762 c 1
 417 642 l 1
417 642 m 5
 437 762 l 1
 546 762 604 685 588 586 c 1
 472 580 l 5
 480 628 459 642 417 642 c 5
EndSplineSet
EndChar

StartChar: uni0218
Encoding: 536 536 329
Width: 625
VWidth: 0
Flags: HMW
LayerCount: 2
Fore
SplineSet
474 208 m 1
 630 215 l 1
 606 66 475 -15 326 -15 c 0
 177 -15 93 66 40 123 c 1
 148 243 l 1
 197 189 273 135 340 135 c 0
 420 135 466 160 474 208 c 1
308 501 m 1
 147 496 l 1
 171 642 302 715 446 715 c 0
 575 715 646 669 693 617 c 1
 586 490 l 1
 548 534 499 565 417 565 c 0
 349 565 314 539 308 501 c 1
420 430 m 0
 542 405 653 357 630 215 c 1
 474 208 l 1
 482 259 431 270 336 290 c 0
 227 313 126 369 147 496 c 1
 308 501 l 1
 301 458 343 446 420 430 c 0
226 -95 m 0
 235 -37 291 10 353 10 c 0
 417 10 455 -35 446 -93 c 0
 440 -131 412 -167 388 -192 c 2
 269 -320 l 1
 179 -320 l 1
 262 -189 l 1
 230 -167 220 -129 226 -95 c 0
EndSplineSet
EndChar

StartChar: uni0219
Encoding: 537 537 330
Width: 520
VWidth: 0
Flags: HMW
LayerCount: 2
Fore
SplineSet
357 167 m 1
 521 157 l 5
 503 48 402 -10 263 -10 c 0
 154 -10 66 19 22 86 c 1
 120 198 l 1
 158 151 223 131 271 131 c 0
 319 131 353 142 357 167 c 1
264 365 m 1
 99 363 l 1
 118 479 231 530 350 530 c 0
 449 530 527 496 561 448 c 1
 472 345 l 1
 439 378 385 395 348 395 c 0
 310 395 268 391 264 365 c 1
383 326 m 0
 478 311 537 257 521 157 c 5
 357 167 l 1
 363 201 320 198 244 211 c 0
 163 225 83 265 99 363 c 1
 264 365 l 1
 259 335 317 337 383 326 c 0
227 -95 m 0
 236 -37 292 10 354 10 c 0
 418 10 456 -35 447 -93 c 0
 441 -131 413 -167 389 -192 c 2
 270 -320 l 1
 180 -320 l 1
 263 -189 l 1
 231 -167 221 -129 227 -95 c 0
EndSplineSet
EndChar

StartChar: uni021A
Encoding: 538 538 331
Width: 690
VWidth: 0
Flags: HMW
LayerCount: 2
Fore
SplineSet
134 700 m 1
 784 700 l 5
 760 550 l 5
 110 550 l 1
 134 700 l 1
374 700 m 1
 544 700 l 1
 430 0 l 1
 260 0 l 1
 374 700 l 1
242 -85 m 0
 251 -27 307 20 369 20 c 0
 433 20 471 -25 462 -83 c 0
 456 -121 428 -157 404 -182 c 2
 285 -310 l 1
 195 -310 l 1
 279 -179 l 1
 247 -157 236 -119 242 -85 c 0
EndSplineSet
EndChar

StartChar: uni021B
Encoding: 539 539 332
Width: 420
VWidth: 0
Flags: HMW
LayerCount: 2
Fore
SplineSet
95 520 m 1
 465 520 l 1
 441 375 l 1
 71 375 l 1
 95 520 l 1
273 170 m 1
 103 140 l 1
 190 673 l 1
 355 673 l 1
 273 170 l 1
302 135 m 1
 316 135 333 146 343 160 c 5
 409 42 l 1
 377 13 328 -10 246 -10 c 1
 302 135 l 1
273 170 m 1
 269 148 277 135 302 135 c 5
 246 -10 l 1
 127 -10 90 61 103 140 c 1
 273 170 l 1
144 -95 m 0
 153 -37 209 10 271 10 c 0
 335 10 373 -35 364 -93 c 0
 358 -131 330 -167 306 -192 c 2
 187 -320 l 1
 97 -320 l 1
 180 -189 l 1
 148 -167 138 -129 144 -95 c 0
EndSplineSet
EndChar

StartChar: uni021E
Encoding: 542 542 333
Width: 765
VWidth: 0
Flags: HMW
LayerCount: 2
Fore
SplineSet
649 700 m 5
 819 700 l 5
 705 0 l 5
 535 0 l 5
 649 700 l 5
131 433 m 1
 721 433 l 5
 696 283 l 5
 106 283 l 1
 131 433 l 1
174 700 m 1
 344 700 l 1
 230 0 l 1
 60 0 l 1
 174 700 l 1
457 870 m 1
 540 770 l 1
 450 770 l 5
 367 870 l 5
 457 870 l 1
560 770 m 1
 470 770 l 1
 587 870 l 1
 677 870 l 1
 560 770 l 1
EndSplineSet
EndChar

StartChar: uni021F
Encoding: 543 543 334
Width: 635
VWidth: 0
Flags: HMW
LayerCount: 2
Fore
SplineSet
642 320 m 5
 590 0 l 5
 425 0 l 5
 474 300 l 5
 642 320 l 5
169 730 m 5
 334 730 l 5
 215 0 l 5
 50 0 l 5
 169 730 l 5
474 300 m 5
 484 359 427 385 387 385 c 4
 338 385 274 360 261 280 c 5
 226 280 l 5
 249 419 327 530 486 530 c 4
 615 530 663 449 642 320 c 5
 474 300 l 5
397 890 m 1
 481 790 l 1
 391 790 l 5
 307 890 l 5
 397 890 l 1
501 790 m 1
 411 790 l 1
 527 890 l 1
 617 890 l 1
 501 790 l 1
EndSplineSet
EndChar

StartChar: uni0226
Encoding: 550 550 335
Width: 800
VWidth: 0
Flags: HMW
LayerCount: 2
Fore
SplineSet
434 700 m 1
 594 700 l 1
 589 670 l 5
 429 670 l 5
 434 700 l 1
218 270 m 1
 650 270 l 1
 626 125 l 1
 194 125 l 1
 218 270 l 1
610 0 m 1
 449 670 l 5
 594 700 l 1
 790 0 l 1
 610 0 l 1
434 700 m 1
 569 670 l 5
 190 0 l 1
 10 0 l 1
 434 700 l 1
431 856 m 0
 439 903 484 942 531 942 c 0
 578 942 611 903 603 856 c 0
 595 809 550 770 503 770 c 0
 456 770 423 809 431 856 c 0
EndSplineSet
EndChar

StartChar: uni0227
Encoding: 551 551 336
Width: 580
VWidth: 0
Flags: HMW
LayerCount: 2
Fore
SplineSet
379 302 m 1
 469 302 l 1
 456 218 l 1
 396 218 l 1
 379 302 l 1
420 310 m 1
 429 365 393 395 332 395 c 1
 370 530 l 1
 513 530 609 454 589 330 c 1
 420 310 l 1
332 395 m 1
 258 395 227 369 192 342 c 1
 123 450 l 1
 188 499 258 530 370 530 c 1
 332 395 l 1
420 310 m 1
 589 330 l 1
 535 0 l 1
 370 0 l 1
 420 310 l 1
224 157 m 1
 218 123 244 105 277 105 c 0
 335 105 390 120 403 200 c 1
 434 180 l 1
 416 71 327 -10 198 -10 c 4
 99 -10 29 41 47 150 c 1
 224 157 l 1
379 302 m 1
 396 218 l 1
 287 218 231 202 224 157 c 1
 47 150 l 1
 69 285 192 302 379 302 c 1
308 676 m 0
 316 723 361 762 408 762 c 0
 455 762 488 723 480 676 c 0
 472 629 427 590 380 590 c 0
 333 590 300 629 308 676 c 0
EndSplineSet
EndChar

StartChar: uni0228
Encoding: 552 552 337
Width: 670
VWidth: 0
Flags: HM
LayerCount: 2
Fore
SplineSet
131 433 m 1
 671 433 l 5
 646 283 l 5
 106 283 l 1
 131 433 l 1
174 700 m 1
 764 700 l 5
 740 550 l 5
 150 550 l 1
 174 700 l 1
86 160 m 1
 676 160 l 5
 650 0 l 5
 60 0 l 1
 86 160 l 1
174 700 m 1
 344 700 l 1
 230 0 l 1
 60 0 l 1
 174 700 l 1
336 7 m 1
 376 7 l 1
 420 -27 489 -67 478 -135 c 0
 469 -192 441 -227 364 -227 c 4
 317 -227 293 -203 274 -188 c 1
 308 -118 l 1
 322 -131 341 -143 361 -143 c 0
 387 -143 398 -132 401 -112 c 0
 405 -87 377 -32 336 7 c 1
EndSplineSet
EndChar

StartChar: uni0229
Encoding: 553 553 338
Width: 615
VWidth: 0
Flags: HMW
LayerCount: 2
Fore
SplineSet
622 260 m 1
 616 220 l 1
 451 220 l 1
 457 260 l 1
 622 260 l 1
451 220 m 1
 145 220 l 1
 161 317 l 1
 467 317 l 1
 451 220 l 1
457 260 m 1
 474 364 446 403 379 403 c 0
 312 403 254 364 237 260 c 1
 72 260 l 1
 98 419 227 530 406 530 c 0
 565 530 648 419 622 260 c 1
 457 260 l 1
72 260 m 1
 237 260 l 1
 225 186 291 125 342 125 c 0
 386 125 428 146 462 177 c 1
 568 92 l 1
 511 28 405 -10 318 -10 c 0
 159 -10 46 101 72 260 c 1
295 -3 m 1
 335 -3 l 1
 379 -37 447 -77 436 -145 c 0
 427 -202 399 -237 322 -237 c 4
 275 -237 252 -213 233 -198 c 1
 266 -128 l 1
 280 -141 299 -153 319 -153 c 0
 345 -153 356 -142 359 -122 c 0
 363 -97 336 -42 295 -3 c 1
EndSplineSet
EndChar

StartChar: uni022A
Encoding: 554 554 339
Width: 850
VWidth: 0
Flags: HM
LayerCount: 2
Fore
SplineSet
277 350 m 4
 258 234 325 140 448 140 c 4
 571 140 668 234 687 350 c 4
 706 466 639 560 516 560 c 4
 393 560 296 466 277 350 c 4
107 350 m 4
 139 549 326 710 541 710 c 4
 756 710 889 549 857 350 c 4
 825 151 638 -10 423 -10 c 4
 208 -10 75 151 107 350 c 4
368 856 m 0
 376 903 421 942 468 942 c 0
 515 942 548 903 540 856 c 0
 532 809 487 770 440 770 c 0
 393 770 360 809 368 856 c 0
588 856 m 0
 596 903 641 942 688 942 c 0
 735 942 768 903 760 856 c 0
 752 809 707 770 660 770 c 0
 613 770 580 809 588 856 c 0
442 1040 m 1
 746 1040 l 5
 733 960 l 5
 429 960 l 1
 442 1040 l 1
EndSplineSet
EndChar

StartChar: uni022B
Encoding: 555 555 340
Width: 650
VWidth: 0
Flags: HMW
LayerCount: 2
Fore
SplineSet
247 260 m 0
 236 190 278 135 347 135 c 4
 416 135 476 190 487 260 c 0
 498 330 457 385 388 385 c 0
 319 385 258 330 247 260 c 0
82 260 m 0
 106 409 242 530 411 530 c 0
 580 530 676 409 652 260 c 0
 628 111 492 -10 323 -10 c 0
 154 -10 58 111 82 260 c 0
239 676 m 0
 247 723 292 762 339 762 c 0
 386 762 419 723 411 676 c 0
 403 629 358 590 311 590 c 0
 264 590 231 629 239 676 c 0
459 676 m 0
 467 723 512 762 559 762 c 0
 606 762 639 723 631 676 c 0
 623 629 578 590 531 590 c 0
 484 590 451 629 459 676 c 0
313 860 m 1
 617 860 l 5
 604 780 l 5
 300 780 l 1
 313 860 l 1
EndSplineSet
EndChar

StartChar: uni022C
Encoding: 556 556 341
Width: 850
VWidth: 0
Flags: HM
LayerCount: 2
Fore
SplineSet
277 350 m 4
 258 234 325 140 448 140 c 4
 571 140 668 234 687 350 c 4
 706 466 639 560 516 560 c 4
 393 560 296 466 277 350 c 4
107 350 m 4
 139 549 326 710 541 710 c 4
 756 710 889 549 857 350 c 4
 825 151 638 -10 423 -10 c 4
 208 -10 75 151 107 350 c 4
440 770 m 5
 353 790 l 1
 370 868 437 917 488 917 c 0
 552 917 580 873 624 873 c 0
 659 873 689 883 693 910 c 1
 780 890 l 1
 761 802 688 763 638 763 c 0
 576 763 552 807 509 807 c 4
 475 807 444 797 440 770 c 5
574 1050 m 1
 878 1050 l 5
 865 970 l 5
 561 970 l 1
 574 1050 l 1
EndSplineSet
EndChar

StartChar: uni022D
Encoding: 557 557 342
Width: 650
VWidth: 0
Flags: HMW
LayerCount: 2
Fore
SplineSet
247 260 m 0
 236 190 278 135 347 135 c 4
 416 135 476 190 487 260 c 0
 498 330 457 385 388 385 c 0
 319 385 258 330 247 260 c 0
82 260 m 0
 106 409 242 530 411 530 c 0
 580 530 676 409 652 260 c 0
 628 111 492 -10 323 -10 c 0
 154 -10 58 111 82 260 c 0
311 590 m 5
 223 610 l 1
 240 688 307 737 358 737 c 0
 422 737 450 693 494 693 c 0
 529 693 560 703 564 730 c 1
 651 710 l 1
 632 622 559 583 509 583 c 0
 447 583 422 627 379 627 c 4
 345 627 315 617 311 590 c 5
315 870 m 1
 619 870 l 5
 606 790 l 5
 302 790 l 1
 315 870 l 1
EndSplineSet
EndChar

StartChar: uni022E
Encoding: 558 558 343
Width: 850
VWidth: 0
Flags: HM
LayerCount: 2
Fore
SplineSet
277 350 m 4
 258 234 325 140 448 140 c 4
 571 140 668 234 687 350 c 4
 706 466 639 560 516 560 c 4
 393 560 296 466 277 350 c 4
107 350 m 4
 139 549 326 710 541 710 c 4
 756 710 889 549 857 350 c 4
 825 151 638 -10 423 -10 c 4
 208 -10 75 151 107 350 c 4
478 856 m 0
 486 903 531 942 578 942 c 0
 625 942 658 903 650 856 c 0
 642 809 597 770 550 770 c 0
 503 770 470 809 478 856 c 0
EndSplineSet
EndChar

StartChar: uni022F
Encoding: 559 559 344
Width: 650
VWidth: 0
Flags: HMW
LayerCount: 2
Fore
SplineSet
247 260 m 0
 236 190 278 135 347 135 c 4
 416 135 476 190 487 260 c 0
 498 330 457 385 388 385 c 0
 319 385 258 330 247 260 c 0
82 260 m 0
 106 409 242 530 411 530 c 0
 580 530 676 409 652 260 c 0
 628 111 492 -10 323 -10 c 0
 154 -10 58 111 82 260 c 0
349 676 m 0
 357 723 402 762 449 762 c 0
 496 762 529 723 521 676 c 0
 513 629 468 590 421 590 c 0
 374 590 341 629 349 676 c 0
EndSplineSet
EndChar

StartChar: uni0230
Encoding: 560 560 345
Width: 850
VWidth: 0
Flags: HM
LayerCount: 2
Fore
SplineSet
277 350 m 4
 258 234 325 140 448 140 c 4
 571 140 668 234 687 350 c 4
 706 466 639 560 516 560 c 4
 393 560 296 466 277 350 c 4
107 350 m 4
 139 549 326 710 541 710 c 4
 756 710 889 549 857 350 c 4
 825 151 638 -10 423 -10 c 4
 208 -10 75 151 107 350 c 4
478 856 m 0
 486 903 531 942 578 942 c 0
 625 942 658 903 650 856 c 0
 642 809 597 770 550 770 c 0
 503 770 470 809 478 856 c 0
442 1040 m 1
 746 1040 l 5
 733 960 l 5
 429 960 l 1
 442 1040 l 1
EndSplineSet
EndChar

StartChar: uni0231
Encoding: 561 561 346
Width: 650
VWidth: 0
Flags: HMW
LayerCount: 2
Fore
SplineSet
247 260 m 0
 236 190 278 135 347 135 c 4
 416 135 476 190 487 260 c 0
 498 330 457 385 388 385 c 0
 319 385 258 330 247 260 c 0
82 260 m 0
 106 409 242 530 411 530 c 0
 580 530 676 409 652 260 c 0
 628 111 492 -10 323 -10 c 0
 154 -10 58 111 82 260 c 0
349 676 m 0
 357 723 402 762 449 762 c 0
 496 762 529 723 521 676 c 0
 513 629 468 590 421 590 c 0
 374 590 341 629 349 676 c 0
313 860 m 1
 617 860 l 5
 604 780 l 5
 300 780 l 1
 313 860 l 1
EndSplineSet
EndChar

StartChar: uni0232
Encoding: 562 562 347
Width: 680
VWidth: 0
Flags: HMW
LayerCount: 2
Fore
SplineSet
303 295 m 1
 473 295 l 1
 425 0 l 1
 255 0 l 1
 303 295 l 1
124 700 m 1
 304 700 l 1
 473 295 l 1
 330 217 l 1
 124 700 l 1
604 700 m 1
 784 700 l 1
 420 217 l 1
 303 295 l 1
 604 700 l 1
304 850 m 1
 608 850 l 5
 595 770 l 5
 291 770 l 1
 304 850 l 1
EndSplineSet
EndChar

StartChar: uni0233
Encoding: 563 563 348
Width: 579
VWidth: 0
Flags: HMW
LayerCount: 2
Fore
SplineSet
94 520 m 1
 264 520 l 1
 368 25 l 1
 251 -40 l 5
 94 520 l 1
141 -75 m 1
 154 -210 l 1
 97 -210 32 -184 11 -150 c 1
 80 -42 l 1
 94 -61 112 -75 141 -75 c 1
243 -5 m 2
 484 520 l 1
 649 520 l 1
 369 -60 l 2
 323 -156 243 -210 154 -210 c 1
 141 -75 l 1
 168 -75 219 -52 243 -5 c 2
236 670 m 1
 540 670 l 5
 527 590 l 5
 223 590 l 1
 236 670 l 1
EndSplineSet
EndChar

StartChar: uni0237
Encoding: 567 567 349
Width: 270
VWidth: 0
Flags: HMW
LayerCount: 2
Fore
SplineSet
134 520 m 1
 299 520 l 1
 204 -60 l 1
 44 -30 l 1
 134 520 l 1
1 -65 m 1
 8 -210 l 1
 -49 -210 -117 -192 -138 -158 c 1
 -48 -37 l 1
 -34 -56 -21 -65 1 -65 c 1
44 -30 m 1
 204 -60 l 1
 185 -179 97 -210 8 -210 c 1
 1 -65 l 1
 28 -65 40 -57 44 -30 c 1
EndSplineSet
EndChar

StartChar: uni1E00
Encoding: 7680 7680 350
Width: 800
VWidth: 0
Flags: HMW
LayerCount: 2
Fore
SplineSet
434 700 m 1
 594 700 l 1
 589 670 l 5
 429 670 l 5
 434 700 l 1
218 270 m 1
 650 270 l 1
 626 125 l 1
 194 125 l 1
 218 270 l 1
610 0 m 1
 449 670 l 5
 594 700 l 1
 790 0 l 1
 610 0 l 1
434 700 m 1
 569 670 l 5
 190 0 l 1
 10 0 l 1
 434 700 l 1
301 -160 m 0
 296 -189 314 -210 343 -210 c 0
 372 -210 396 -189 401 -160 c 0
 406 -131 389 -110 360 -110 c 4
 331 -110 306 -131 301 -160 c 0
251 -160 m 0
 260 -105 313 -60 368 -60 c 0
 423 -60 460 -105 451 -160 c 0
 442 -215 390 -260 335 -260 c 0
 280 -260 242 -215 251 -160 c 0
EndSplineSet
EndChar

StartChar: uni1E01
Encoding: 7681 7681 351
Width: 580
VWidth: 0
Flags: HMW
LayerCount: 2
Fore
SplineSet
379 302 m 1
 469 302 l 1
 456 218 l 1
 396 218 l 1
 379 302 l 1
420 310 m 1
 429 365 393 395 332 395 c 1
 370 530 l 1
 513 530 609 454 589 330 c 1
 420 310 l 1
332 395 m 1
 258 395 227 369 192 342 c 1
 123 450 l 1
 188 499 258 530 370 530 c 1
 332 395 l 1
420 310 m 1
 589 330 l 1
 535 0 l 1
 370 0 l 1
 420 310 l 1
224 157 m 1
 218 123 244 105 277 105 c 0
 335 105 390 120 403 200 c 1
 434 180 l 1
 416 71 327 -10 198 -10 c 4
 99 -10 29 41 47 150 c 1
 224 157 l 1
379 302 m 1
 396 218 l 1
 287 218 231 202 224 157 c 1
 47 150 l 1
 69 285 192 302 379 302 c 1
162 -170 m 0
 157 -199 175 -220 204 -220 c 0
 233 -220 257 -199 262 -170 c 0
 267 -141 249 -120 220 -120 c 4
 191 -120 167 -141 162 -170 c 0
112 -170 m 0
 121 -115 174 -70 229 -70 c 0
 284 -70 321 -115 312 -170 c 0
 303 -225 251 -270 196 -270 c 0
 141 -270 103 -225 112 -170 c 0
EndSplineSet
EndChar

StartChar: uni1E02
Encoding: 7682 7682 352
Width: 695
VWidth: 0
Flags: HMW
LayerCount: 2
Fore
SplineSet
434 423 m 1
 517 423 545 441 552 486 c 0
 559 531 538 550 455 550 c 1
 499 700 l 1
 628 700 748 643 726 509 c 0
 704 376 565 315 436 315 c 1
 434 423 l 1
174 700 m 1
 344 700 l 1
 230 0 l 1
 60 0 l 1
 174 700 l 1
82 135 m 1
 407 135 l 1
 405 0 l 1
 60 0 l 1
 82 135 l 1
174 700 m 1
 499 700 l 1
 455 550 l 1
 150 550 l 1
 174 700 l 1
129 423 m 1
 494 423 l 1
 433 293 l 1
 108 293 l 1
 129 423 l 1
407 135 m 1
 490 135 527 163 535 213 c 0
 543 263 516 293 433 293 c 1
 470 400 l 1
 599 400 723 324 700 185 c 4
 677 46 544 0 405 0 c 1
 407 135 l 1
423 856 m 0
 431 903 476 942 523 942 c 0
 570 942 603 903 595 856 c 0
 587 809 542 770 495 770 c 0
 448 770 415 809 423 856 c 0
EndSplineSet
EndChar

StartChar: uni1E03
Encoding: 7683 7683 353
Width: 655
VWidth: 0
Flags: HMW
LayerCount: 2
Fore
SplineSet
257 260 m 0
 244 181 287 135 362 135 c 4
 437 135 489 181 502 260 c 0
 515 339 478 385 403 385 c 4
 328 385 270 339 257 260 c 0
222 260 m 0
 246 409 297 530 471 530 c 0
 595 530 693 419 667 260 c 0
 641 101 507 -10 383 -10 c 0
 219 -10 198 111 222 260 c 0
169 730 m 1
 334 730 l 1
 215 0 l 1
 50 0 l 1
 169 730 l 1
187 876 m 0
 195 923 240 962 287 962 c 0
 334 962 367 923 359 876 c 0
 351 829 306 790 259 790 c 0
 212 790 179 829 187 876 c 0
EndSplineSet
EndChar

StartChar: uni1E04
Encoding: 7684 7684 354
Width: 695
VWidth: 0
Flags: HMW
LayerCount: 2
Fore
SplineSet
434 423 m 1
 517 423 545 441 552 486 c 0
 559 531 538 550 455 550 c 1
 499 700 l 1
 628 700 748 643 726 509 c 0
 704 376 565 315 436 315 c 1
 434 423 l 1
174 700 m 1
 344 700 l 1
 230 0 l 1
 60 0 l 1
 174 700 l 1
82 135 m 1
 407 135 l 1
 405 0 l 1
 60 0 l 1
 82 135 l 1
174 700 m 1
 499 700 l 1
 455 550 l 1
 150 550 l 1
 174 700 l 1
129 423 m 1
 494 423 l 1
 433 293 l 1
 108 293 l 1
 129 423 l 1
407 135 m 1
 490 135 527 163 535 213 c 0
 543 263 516 293 433 293 c 1
 470 400 l 1
 599 400 723 324 700 185 c 4
 677 46 544 0 405 0 c 1
 407 135 l 1
225 -104 m 0
 233 -57 278 -18 325 -18 c 0
 372 -18 405 -57 397 -104 c 0
 389 -151 344 -190 297 -190 c 0
 250 -190 217 -151 225 -104 c 0
EndSplineSet
EndChar

StartChar: uni1E05
Encoding: 7685 7685 355
Width: 655
VWidth: 0
Flags: HMW
LayerCount: 2
Fore
SplineSet
257 260 m 0
 244 181 287 135 362 135 c 4
 437 135 489 181 502 260 c 0
 515 339 478 385 403 385 c 4
 328 385 270 339 257 260 c 0
222 260 m 0
 246 409 297 530 471 530 c 0
 595 530 693 419 667 260 c 0
 641 101 507 -10 383 -10 c 0
 219 -10 198 111 222 260 c 0
169 730 m 1
 334 730 l 1
 215 0 l 1
 50 0 l 1
 169 730 l 1
245 -114 m 0
 253 -67 298 -28 345 -28 c 0
 392 -28 425 -67 417 -114 c 0
 409 -161 364 -200 317 -200 c 0
 270 -200 237 -161 245 -114 c 0
EndSplineSet
EndChar

StartChar: uni1E06
Encoding: 7686 7686 356
Width: 695
VWidth: 0
Flags: HMW
LayerCount: 2
Fore
SplineSet
434 423 m 1
 517 423 545 441 552 486 c 0
 559 531 538 550 455 550 c 1
 499 700 l 1
 628 700 748 643 726 509 c 0
 704 376 565 315 436 315 c 1
 434 423 l 1
174 700 m 1
 344 700 l 1
 230 0 l 1
 60 0 l 1
 174 700 l 1
82 135 m 1
 407 135 l 1
 405 0 l 1
 60 0 l 1
 82 135 l 1
174 700 m 1
 499 700 l 1
 455 550 l 1
 150 550 l 1
 174 700 l 1
129 423 m 1
 494 423 l 1
 433 293 l 1
 108 293 l 1
 129 423 l 1
407 135 m 1
 490 135 527 163 535 213 c 0
 543 263 516 293 433 293 c 1
 470 400 l 1
 599 400 723 324 700 185 c 4
 677 46 544 0 405 0 c 1
 407 135 l 1
86 -60 m 1
 390 -60 l 5
 377 -140 l 5
 73 -140 l 1
 86 -60 l 1
EndSplineSet
EndChar

StartChar: uni1E07
Encoding: 7687 7687 357
Width: 655
VWidth: 0
Flags: HMW
LayerCount: 2
Fore
SplineSet
257 260 m 0
 244 181 287 135 362 135 c 4
 437 135 489 181 502 260 c 0
 515 339 478 385 403 385 c 4
 328 385 270 339 257 260 c 0
222 260 m 0
 246 409 297 530 471 530 c 0
 595 530 693 419 667 260 c 0
 641 101 507 -10 383 -10 c 0
 219 -10 198 111 222 260 c 0
169 730 m 1
 334 730 l 1
 215 0 l 1
 50 0 l 1
 169 730 l 1
187 -70 m 1
 491 -70 l 5
 478 -150 l 5
 174 -150 l 1
 187 -70 l 1
EndSplineSet
EndChar

StartChar: uni1E08
Encoding: 7688 7688 358
Width: 732
VWidth: 0
Flags: HM
LayerCount: 2
Fore
SplineSet
267 350 m 0
 248 234 312 140 448 140 c 0
 532 140 602 172 654 228 c 1
 730 113 l 1
 653 38 549 -10 423 -10 c 4
 198 -10 65 151 97 350 c 0
 129 549 316 710 541 710 c 4
 667 710 755 662 808 587 c 1
 694 472 l 1
 660 528 599 560 516 560 c 0
 380 560 286 466 267 350 c 0
405 -3 m 1
 445 -3 l 1
 489 -37 557 -77 546 -145 c 0
 537 -202 509 -237 432 -237 c 4
 385 -237 362 -213 343 -198 c 1
 376 -128 l 1
 390 -141 409 -153 429 -153 c 0
 455 -153 466 -142 469 -122 c 0
 473 -97 446 -42 405 -3 c 1
610 770 m 1
 490 770 l 5
 593 910 l 5
 753 910 l 1
 610 770 l 1
EndSplineSet
EndChar

StartChar: uni1E09
Encoding: 7689 7689 359
Width: 573
VWidth: 0
Flags: HM
LayerCount: 2
Fore
SplineSet
247 260 m 0
 237 196 271 140 348 140 c 4
 407 140 443 160 478 200 c 1
 568 92 l 1
 511 28 420 -10 323 -10 c 0
 156 -10 58 111 82 260 c 0
 106 409 244 530 411 530 c 0
 508 530 585 491 622 428 c 1
 497 320 l 5
 476 360 446 380 387 380 c 4
 310 380 258 326 247 260 c 0
305 -3 m 1
 345 -3 l 1
 389 -37 457 -77 446 -145 c 0
 437 -202 409 -237 332 -237 c 4
 285 -237 262 -213 243 -198 c 1
 276 -128 l 1
 290 -141 309 -153 329 -153 c 0
 355 -153 366 -142 369 -122 c 0
 373 -97 346 -42 305 -3 c 1
481 590 m 1
 361 590 l 5
 464 730 l 5
 624 730 l 1
 481 590 l 1
EndSplineSet
EndChar

StartChar: uni1E0A
Encoding: 7690 7690 360
Width: 810
VWidth: 0
Flags: HMW
LayerCount: 2
Fore
SplineSet
194 700 m 5
 494 700 l 1
 470 550 l 1
 170 550 l 5
 194 700 l 5
104 150 m 5
 404 150 l 1
 380 0 l 1
 80 0 l 5
 104 150 l 5
194 700 m 5
 364 700 l 5
 250 0 l 5
 80 0 l 5
 194 700 l 5
404 150 m 1
 535 150 627 229 647 350 c 0
 667 471 601 550 470 550 c 1
 494 700 l 1
 709 700 849 549 817 350 c 0
 785 151 595 0 380 0 c 1
 404 150 l 1
471 856 m 0
 479 903 524 942 571 942 c 0
 618 942 651 903 643 856 c 0
 635 809 590 770 543 770 c 0
 496 770 463 809 471 856 c 0
EndSplineSet
EndChar

StartChar: uni1E0B
Encoding: 7691 7691 361
Width: 655
VWidth: 0
Flags: HMW
LayerCount: 2
Fore
SplineSet
482 260 m 4
 495 339 453 385 378 385 c 4
 303 385 250 339 237 260 c 4
 224 181 262 135 337 135 c 4
 412 135 469 181 482 260 c 4
517 260 m 4
 493 111 432 -10 268 -10 c 4
 144 -10 46 101 72 260 c 4
 98 419 232 530 356 530 c 4
 530 530 541 409 517 260 c 4
724 730 m 5
 605 0 l 5
 440 0 l 5
 559 730 l 5
 724 730 l 5
577 876 m 0
 585 923 630 962 677 962 c 0
 724 962 757 923 749 876 c 0
 741 829 696 790 649 790 c 0
 602 790 569 829 577 876 c 0
EndSplineSet
EndChar

StartChar: uni1E0C
Encoding: 7692 7692 362
Width: 810
VWidth: 0
Flags: HMW
LayerCount: 2
Fore
SplineSet
194 700 m 5
 494 700 l 1
 470 550 l 1
 170 550 l 5
 194 700 l 5
104 150 m 5
 404 150 l 1
 380 0 l 1
 80 0 l 5
 104 150 l 5
194 700 m 5
 364 700 l 5
 250 0 l 5
 80 0 l 5
 194 700 l 5
404 150 m 1
 535 150 627 229 647 350 c 0
 667 471 601 550 470 550 c 1
 494 700 l 1
 709 700 849 549 817 350 c 0
 785 151 595 0 380 0 c 1
 404 150 l 1
317 -104 m 0
 325 -57 370 -18 417 -18 c 0
 464 -18 497 -57 489 -104 c 0
 481 -151 436 -190 389 -190 c 0
 342 -190 309 -151 317 -104 c 0
EndSplineSet
EndChar

StartChar: uni1E0D
Encoding: 7693 7693 363
Width: 655
VWidth: 0
Flags: HMW
LayerCount: 2
Fore
SplineSet
482 260 m 4
 495 339 453 385 378 385 c 4
 303 385 250 339 237 260 c 4
 224 181 262 135 337 135 c 4
 412 135 469 181 482 260 c 4
517 260 m 4
 493 111 432 -10 268 -10 c 4
 144 -10 46 101 72 260 c 4
 98 419 232 530 356 530 c 4
 530 530 541 409 517 260 c 4
724 730 m 5
 605 0 l 5
 440 0 l 5
 559 730 l 5
 724 730 l 5
195 -114 m 0
 203 -67 248 -28 295 -28 c 0
 342 -28 375 -67 367 -114 c 0
 359 -161 314 -200 267 -200 c 0
 220 -200 187 -161 195 -114 c 0
EndSplineSet
EndChar

StartChar: uni1E0E
Encoding: 7694 7694 364
Width: 810
VWidth: 0
Flags: HMW
LayerCount: 2
Fore
SplineSet
194 700 m 5
 494 700 l 1
 470 550 l 1
 170 550 l 5
 194 700 l 5
104 150 m 5
 404 150 l 1
 380 0 l 1
 80 0 l 5
 104 150 l 5
194 700 m 5
 364 700 l 5
 250 0 l 5
 80 0 l 5
 194 700 l 5
404 150 m 1
 535 150 627 229 647 350 c 0
 667 471 601 550 470 550 c 1
 494 700 l 1
 709 700 849 549 817 350 c 0
 785 151 595 0 380 0 c 1
 404 150 l 1
228 -60 m 1
 532 -60 l 5
 519 -140 l 5
 215 -140 l 1
 228 -60 l 1
EndSplineSet
EndChar

StartChar: uni1E0F
Encoding: 7695 7695 365
Width: 655
VWidth: 0
Flags: HMW
LayerCount: 2
Fore
SplineSet
482 260 m 4
 495 339 453 385 378 385 c 4
 303 385 250 339 237 260 c 4
 224 181 262 135 337 135 c 4
 412 135 469 181 482 260 c 4
517 260 m 4
 493 111 432 -10 268 -10 c 4
 144 -10 46 101 72 260 c 4
 98 419 232 530 356 530 c 4
 530 530 541 409 517 260 c 4
724 730 m 5
 605 0 l 5
 440 0 l 5
 559 730 l 5
 724 730 l 5
137 -70 m 1
 441 -70 l 5
 428 -150 l 5
 124 -150 l 1
 137 -70 l 1
EndSplineSet
EndChar

StartChar: uni1E10
Encoding: 7696 7696 366
Width: 810
VWidth: 0
Flags: HMW
LayerCount: 2
Fore
SplineSet
194 700 m 5
 494 700 l 1
 470 550 l 1
 170 550 l 5
 194 700 l 5
104 150 m 5
 404 150 l 1
 380 0 l 1
 80 0 l 5
 104 150 l 5
194 700 m 5
 364 700 l 5
 250 0 l 5
 80 0 l 5
 194 700 l 5
404 150 m 1
 535 150 627 229 647 350 c 0
 667 471 601 550 470 550 c 1
 494 700 l 1
 709 700 849 549 817 350 c 0
 785 151 595 0 380 0 c 1
 404 150 l 1
221 7 m 1
 261 7 l 1
 305 -27 374 -67 363 -135 c 0
 354 -192 326 -227 249 -227 c 4
 202 -227 178 -203 159 -188 c 1
 193 -118 l 1
 207 -131 226 -143 246 -143 c 0
 272 -143 283 -132 286 -112 c 0
 290 -87 262 -32 221 7 c 1
EndSplineSet
EndChar

StartChar: uni1E11
Encoding: 7697 7697 367
Width: 655
VWidth: 0
Flags: HMW
LayerCount: 2
Fore
SplineSet
482 260 m 4
 495 339 453 385 378 385 c 4
 303 385 250 339 237 260 c 4
 224 181 262 135 337 135 c 4
 412 135 469 181 482 260 c 4
517 260 m 4
 493 111 432 -10 268 -10 c 4
 144 -10 46 101 72 260 c 4
 98 419 232 530 356 530 c 4
 530 530 541 409 517 260 c 4
724 730 m 5
 605 0 l 5
 440 0 l 5
 559 730 l 5
 724 730 l 5
280 -3 m 1
 320 -3 l 1
 364 -37 432 -77 421 -145 c 0
 412 -202 384 -237 307 -237 c 4
 260 -237 237 -213 218 -198 c 1
 251 -128 l 1
 265 -141 284 -153 304 -153 c 0
 330 -153 341 -142 344 -122 c 0
 348 -97 321 -42 280 -3 c 1
EndSplineSet
EndChar

StartChar: uni1E12
Encoding: 7698 7698 368
Width: 810
VWidth: 0
Flags: HMW
LayerCount: 2
Fore
SplineSet
194 700 m 5
 494 700 l 1
 470 550 l 1
 170 550 l 5
 194 700 l 5
104 150 m 5
 404 150 l 1
 380 0 l 1
 80 0 l 5
 104 150 l 5
194 700 m 5
 364 700 l 5
 250 0 l 5
 80 0 l 5
 194 700 l 5
404 150 m 1
 535 150 627 229 647 350 c 0
 667 471 601 550 470 550 c 1
 494 700 l 1
 709 700 849 549 817 350 c 0
 785 151 595 0 380 0 c 1
 404 150 l 1
279 -160 m 1
 195 -60 l 1
 285 -60 l 1
 369 -160 l 1
 279 -160 l 1
175 -60 m 5
 265 -60 l 1
 149 -160 l 1
 59 -160 l 5
 175 -60 l 5
EndSplineSet
EndChar

StartChar: uni1E13
Encoding: 7699 7699 369
Width: 655
VWidth: 0
Flags: HMW
LayerCount: 2
Fore
SplineSet
482 260 m 4
 495 339 453 385 378 385 c 4
 303 385 250 339 237 260 c 4
 224 181 262 135 337 135 c 4
 412 135 469 181 482 260 c 4
517 260 m 4
 493 111 432 -10 268 -10 c 4
 144 -10 46 101 72 260 c 4
 98 419 232 530 356 530 c 4
 530 530 541 409 517 260 c 4
724 730 m 5
 605 0 l 5
 440 0 l 5
 559 730 l 5
 724 730 l 5
337 -170 m 1
 254 -70 l 1
 344 -70 l 1
 427 -170 l 1
 337 -170 l 1
234 -70 m 5
 324 -70 l 1
 207 -170 l 1
 117 -170 l 5
 234 -70 l 5
EndSplineSet
EndChar

StartChar: uni1E14
Encoding: 7700 7700 370
Width: 670
VWidth: 0
Flags: HM
LayerCount: 2
Fore
SplineSet
131 433 m 1
 671 433 l 5
 646 283 l 5
 106 283 l 1
 131 433 l 1
174 700 m 1
 764 700 l 5
 740 550 l 5
 150 550 l 1
 174 700 l 1
86 160 m 1
 676 160 l 5
 650 0 l 5
 60 0 l 1
 86 160 l 1
174 700 m 1
 344 700 l 1
 230 0 l 1
 60 0 l 1
 174 700 l 1
341 850 m 1
 645 850 l 5
 632 770 l 5
 328 770 l 1
 341 850 l 1
433 910 m 5
 336 1050 l 5
 516 1050 l 1
 573 910 l 1
 433 910 l 5
EndSplineSet
EndChar

StartChar: uni1E15
Encoding: 7701 7701 371
Width: 615
VWidth: 0
Flags: HMW
LayerCount: 2
Fore
SplineSet
622 260 m 1
 616 220 l 1
 451 220 l 1
 457 260 l 1
 622 260 l 1
451 220 m 1
 145 220 l 1
 161 317 l 1
 467 317 l 1
 451 220 l 1
457 260 m 1
 474 364 446 403 379 403 c 0
 312 403 254 364 237 260 c 1
 72 260 l 1
 98 419 227 530 406 530 c 0
 565 530 648 419 622 260 c 1
 457 260 l 1
72 260 m 1
 237 260 l 1
 225 186 291 125 342 125 c 0
 386 125 428 146 462 177 c 1
 568 92 l 1
 511 28 405 -10 318 -10 c 0
 159 -10 46 101 72 260 c 1
262 670 m 1
 566 670 l 5
 553 590 l 5
 249 590 l 1
 262 670 l 1
354 730 m 5
 257 870 l 5
 437 870 l 1
 494 730 l 1
 354 730 l 5
EndSplineSet
EndChar

StartChar: uni1E16
Encoding: 7702 7702 372
Width: 670
VWidth: 0
Flags: HM
LayerCount: 2
Fore
SplineSet
131 433 m 1
 671 433 l 5
 646 283 l 5
 106 283 l 1
 131 433 l 1
174 700 m 1
 764 700 l 5
 740 550 l 5
 150 550 l 1
 174 700 l 1
86 160 m 1
 676 160 l 5
 650 0 l 5
 60 0 l 1
 86 160 l 1
174 700 m 1
 344 700 l 1
 230 0 l 1
 60 0 l 1
 174 700 l 1
341 850 m 1
 645 850 l 5
 632 770 l 5
 328 770 l 1
 341 850 l 1
563 910 m 1
 443 910 l 5
 546 1050 l 5
 706 1050 l 1
 563 910 l 1
EndSplineSet
EndChar

StartChar: uni1E17
Encoding: 7703 7703 373
Width: 615
VWidth: 0
Flags: HMW
LayerCount: 2
Fore
SplineSet
622 260 m 1
 616 220 l 1
 451 220 l 1
 457 260 l 1
 622 260 l 1
451 220 m 1
 145 220 l 1
 161 317 l 1
 467 317 l 1
 451 220 l 1
457 260 m 1
 474 364 446 403 379 403 c 0
 312 403 254 364 237 260 c 1
 72 260 l 1
 98 419 227 530 406 530 c 0
 565 530 648 419 622 260 c 1
 457 260 l 1
72 260 m 1
 237 260 l 1
 225 186 291 125 342 125 c 0
 386 125 428 146 462 177 c 1
 568 92 l 1
 511 28 405 -10 318 -10 c 0
 159 -10 46 101 72 260 c 1
262 670 m 1
 566 670 l 5
 553 590 l 5
 249 590 l 1
 262 670 l 1
484 730 m 1
 364 730 l 5
 467 870 l 5
 627 870 l 1
 484 730 l 1
EndSplineSet
EndChar

StartChar: uni1E18
Encoding: 7704 7704 374
Width: 670
VWidth: 0
Flags: HM
LayerCount: 2
Fore
SplineSet
131 433 m 1
 671 433 l 5
 646 283 l 5
 106 283 l 1
 131 433 l 1
174 700 m 1
 764 700 l 5
 740 550 l 5
 150 550 l 1
 174 700 l 1
86 160 m 1
 676 160 l 5
 650 0 l 5
 60 0 l 1
 86 160 l 1
174 700 m 1
 344 700 l 1
 230 0 l 1
 60 0 l 1
 174 700 l 1
394 -160 m 1
 310 -60 l 1
 400 -60 l 1
 484 -160 l 1
 394 -160 l 1
290 -60 m 5
 380 -60 l 1
 264 -160 l 1
 174 -160 l 5
 290 -60 l 5
EndSplineSet
EndChar

StartChar: uni1E19
Encoding: 7705 7705 375
Width: 615
VWidth: 0
Flags: HMW
LayerCount: 2
Fore
SplineSet
622 260 m 1
 616 220 l 1
 451 220 l 1
 457 260 l 1
 622 260 l 1
451 220 m 1
 145 220 l 1
 161 317 l 1
 467 317 l 1
 451 220 l 1
457 260 m 1
 474 364 446 403 379 403 c 0
 312 403 254 364 237 260 c 1
 72 260 l 1
 98 419 227 530 406 530 c 0
 565 530 648 419 622 260 c 1
 457 260 l 1
72 260 m 1
 237 260 l 1
 225 186 291 125 342 125 c 0
 386 125 428 146 462 177 c 1
 568 92 l 1
 511 28 405 -10 318 -10 c 0
 159 -10 46 101 72 260 c 1
352 -170 m 1
 269 -70 l 1
 359 -70 l 1
 442 -170 l 1
 352 -170 l 1
249 -70 m 5
 339 -70 l 1
 222 -170 l 1
 132 -170 l 5
 249 -70 l 5
EndSplineSet
EndChar

StartChar: uni1E1A
Encoding: 7706 7706 376
Width: 670
VWidth: 0
Flags: HM
LayerCount: 2
Fore
SplineSet
131 433 m 1
 671 433 l 5
 646 283 l 5
 106 283 l 1
 131 433 l 1
174 700 m 1
 764 700 l 5
 740 550 l 5
 150 550 l 1
 174 700 l 1
86 160 m 1
 676 160 l 5
 650 0 l 5
 60 0 l 1
 86 160 l 1
174 700 m 1
 344 700 l 1
 230 0 l 1
 60 0 l 1
 174 700 l 1
212 -200 m 5
 125 -180 l 1
 142 -102 209 -53 260 -53 c 0
 324 -53 352 -97 396 -97 c 0
 431 -97 461 -87 465 -60 c 1
 552 -80 l 1
 533 -168 460 -207 410 -207 c 0
 348 -207 324 -163 281 -163 c 4
 247 -163 216 -173 212 -200 c 5
EndSplineSet
EndChar

StartChar: uni1E1B
Encoding: 7707 7707 377
Width: 615
VWidth: 0
Flags: HMW
LayerCount: 2
Fore
SplineSet
622 260 m 1
 616 220 l 1
 451 220 l 1
 457 260 l 1
 622 260 l 1
451 220 m 1
 145 220 l 1
 161 317 l 1
 467 317 l 1
 451 220 l 1
457 260 m 1
 474 364 446 403 379 403 c 0
 312 403 254 364 237 260 c 1
 72 260 l 1
 98 419 227 530 406 530 c 0
 565 530 648 419 622 260 c 1
 457 260 l 1
72 260 m 1
 237 260 l 1
 225 186 291 125 342 125 c 0
 386 125 428 146 462 177 c 1
 568 92 l 1
 511 28 405 -10 318 -10 c 0
 159 -10 46 101 72 260 c 1
171 -210 m 5
 83 -190 l 1
 100 -112 167 -63 218 -63 c 0
 282 -63 310 -107 354 -107 c 0
 389 -107 420 -97 424 -70 c 1
 510 -90 l 1
 491 -178 419 -217 369 -217 c 0
 307 -217 282 -173 239 -173 c 4
 205 -173 175 -183 171 -210 c 5
EndSplineSet
EndChar

StartChar: uni1E1C
Encoding: 7708 7708 378
Width: 670
VWidth: 0
Flags: HM
LayerCount: 2
Fore
SplineSet
131 433 m 1
 671 433 l 5
 646 283 l 5
 106 283 l 1
 131 433 l 1
174 700 m 1
 764 700 l 5
 740 550 l 5
 150 550 l 1
 174 700 l 1
86 160 m 1
 676 160 l 5
 650 0 l 5
 60 0 l 1
 86 160 l 1
174 700 m 1
 344 700 l 1
 230 0 l 1
 60 0 l 1
 174 700 l 1
336 7 m 1
 376 7 l 1
 420 -27 489 -67 478 -135 c 0
 469 -192 441 -227 364 -227 c 4
 317 -227 293 -203 274 -188 c 1
 308 -118 l 1
 322 -131 341 -143 361 -143 c 0
 387 -143 398 -132 401 -112 c 0
 405 -87 377 -32 336 7 c 1
497 870 m 1
 457 870 434 884 442 932 c 1
 326 926 l 1
 310 827 368 750 477 750 c 1
 497 870 l 1
497 870 m 5
 477 750 l 1
 586 750 670 827 686 926 c 1
 572 932 l 5
 564 884 539 870 497 870 c 5
EndSplineSet
EndChar

StartChar: uni1E1D
Encoding: 7709 7709 379
Width: 615
VWidth: 0
Flags: HMW
LayerCount: 2
Fore
SplineSet
622 260 m 1
 616 220 l 1
 451 220 l 1
 457 260 l 1
 622 260 l 1
451 220 m 1
 145 220 l 1
 161 317 l 1
 467 317 l 1
 451 220 l 1
457 260 m 1
 474 364 446 403 379 403 c 0
 312 403 254 364 237 260 c 1
 72 260 l 1
 98 419 227 530 406 530 c 0
 565 530 648 419 622 260 c 1
 457 260 l 1
72 260 m 1
 237 260 l 1
 225 186 291 125 342 125 c 0
 386 125 428 146 462 177 c 1
 568 92 l 1
 511 28 405 -10 318 -10 c 0
 159 -10 46 101 72 260 c 1
295 -3 m 1
 335 -3 l 1
 379 -37 447 -77 436 -145 c 0
 427 -202 399 -237 322 -237 c 4
 275 -237 252 -213 233 -198 c 1
 266 -128 l 1
 280 -141 299 -153 319 -153 c 0
 345 -153 356 -142 359 -122 c 0
 363 -97 336 -42 295 -3 c 1
417 690 m 1
 377 690 354 704 362 752 c 1
 246 746 l 1
 230 647 289 570 398 570 c 1
 417 690 l 1
417 690 m 5
 398 570 l 1
 507 570 590 647 606 746 c 1
 492 752 l 5
 484 704 459 690 417 690 c 5
EndSplineSet
EndChar

